<?xml version="1.0" encoding="utf-8"?>
<!-- Generator: Adobe Illustrator 18.1.1, SVG Export Plug-In . SVG Version: 6.00 Build 0)  -->
<svg version="1.0" id="Layer_1" xmlns="http://www.w3.org/2000/svg" xmlns:xlink="http://www.w3.org/1999/xlink" x="0px" y="0px"
	 viewBox="0 0 595.3 841.9" style="enable-background:new 0 0 595.3 841.9;" xml:space="preserve">
<style type="text/css">
	.Arched_x0020_Green{fill:url(#SVGID_1_);stroke:#FFFFFF;stroke-width:0.25;stroke-miterlimit:1;}
	.st0{fill:#F1F2F2;}
</style>
<linearGradient id="SVGID_1_" gradientUnits="userSpaceOnUse" x1="0" y1="841.8896" x2="0.7071" y2="841.1825">
	<stop  offset="0" style="stop-color:#20AC4B"/>
	<stop  offset="0.9831" style="stop-color:#19361A"/>
</linearGradient>
<g>
	<path class="st0" d="M33.5,355.2h10.8v72.2h43v9.1H33.5V355.2z"/>
	<path class="st0" d="M97.3,355.2h10.8v81.3H97.3V355.2z"/>
	<path class="st0" d="M126.3,355.2h29.5c7.2,0,16.6,0,21.5,3c5.4,3.2,9.6,9,9.6,17c0,8.7-4.6,15.1-12.1,18.2v0.2
		c10,2,15.5,9.6,15.5,19.6c0,12-8.5,23.3-24.7,23.3h-39.3V355.2z M137.1,390.2h21.6c12.3,0,17.3-4.4,17.3-13
		c0-11.3-8-12.9-17.3-12.9h-21.6V390.2z M137.1,427.4h27.1c9.3,0,15.3-5.7,15.3-14.6c0-10.6-8.5-13.5-17.6-13.5h-24.7V427.4z"/>
	<path class="st0" d="M204.3,355.2h56.1v9.1h-45.3v25.8h42.2v9.1h-42.2v28.1h45.7v9.1h-56.5V355.2z"/>
	<path class="st0" d="M273.9,355.2h38.3c15.3,0,24.7,8.3,24.7,21.3c0,9.8-4.3,17.9-14.1,20.6v0.2c9.5,1.8,11.4,8.8,12.2,16.7
		c0.7,8,0.2,16.9,4.8,22.4h-12.1c-3.1-3.3-1.4-12.1-3-20c-1.1-8-3.1-14.7-13.5-14.7h-26.4v34.7h-10.8V355.2z M307.2,392.7
		c10.1,0,18.8-2.6,18.8-14.5c0-8-4.3-13.9-14.5-13.9h-26.9v28.4H307.2z"/>
	<path class="st0" d="M368.2,364.3h-27.1v-9.1h65v9.1h-27.1v72.2h-10.8V364.3z"/>
	<path class="st0" d="M415.6,355.2h10.8v81.3h-10.8V355.2z"/>
	<path class="st0" d="M444.5,355.2H456l42.8,65.9h0.2v-65.9h10.2v81.3h-11.8L455,371.3h-0.2v65.2h-10.2V355.2z"/>
	<path class="st0" d="M526.8,355.2H583v9.1h-45.3v25.8h42.2v9.1h-42.2v28.1h45.7v9.1h-56.5V355.2z"/>
</g>
<g>
	<path class="st0" d="M298.5,506.5c-1.1,0.4-3.5,1.3-6.9,1.3c-12,0-17.2-10-17.2-20.9c0-10.4,4.9-20.4,17.4-20.4
		c2.1,0,4.9,0.4,6.8,1.3l-0.2,4.1c-1.1-0.9-4-2-6.9-2c-2.8,0-13.3,1.3-13.3,17.2c0,14.1,8.6,17.4,13.2,17.4c3.1,0,4.6-0.8,6.8-1.8
		L298.5,506.5z"/>
	<path class="st0" d="M319.5,466.5c14.3,0,14.3,17.1,14.3,20.6c0,3.5,0,20.6-14.3,20.6c-14.3,0-14.3-17.1-14.3-20.6
		C305.2,483.6,305.2,466.5,319.5,466.5z M319.5,504.4c10.4,0,10.4-14.1,10.4-17.3c0-3.2,0-17.3-10.4-17.3
		c-10.4,0-10.4,14.1-10.4,17.3C309.1,490.3,309.1,504.4,319.5,504.4z"/>
	<path class="st0" d="M341.3,466.9h4.6l17,35.9h0.1v-35.9h3.4v40.4h-4.6l-17-35.7h-0.1v35.7h-3.4V466.9z"/>
	<path class="st0" d="M374.5,501.6c2.8,2.5,6.1,2.7,7.1,2.7c6.5,0,7.3-5.8,7.3-7.3c0-4.7-2.8-6.6-7.6-9.8c-5.6-3.8-7.3-6.4-7.3-11
		c0-9,8.2-9.8,10.5-9.8c3.2,0,5.4,0.9,6.4,1.3l-0.2,4.1c-1.6-0.9-3.4-2-6.4-2c-2.3,0-6.5,1.2-6.5,5.9c0,4,2.1,5.6,5.6,8.1
		c7.2,5.3,9.4,7.1,9.4,12.7c0,6.8-4.6,11.2-10.8,11.2c-2.5,0-5.6-0.6-7.7-1.9L374.5,501.6z"/>
	<path class="st0" d="M400.4,466.9h3.6v25.5c0,6.1,1.2,12,8.4,12c7.6,0,8.4-6.5,8.4-12v-25.5h3.6v25.6c0,8-2.6,15.3-12,15.3
		c-9.4,0-12-6.6-12-15.3V466.9z"/>
	<path class="st0" d="M433.6,466.9h3.6V504h13.2v3.4h-16.7V466.9z"/>
	<path class="st0" d="M447.4,466.9h22.4v3.4h-9.4v37.1h-3.6v-37.1h-9.4V466.9z"/>
	<path class="st0" d="M482.5,466.9h3.8l13.4,40.4H496l-3.5-11.1h-16.1l-3.7,11.1h-3.6L482.5,466.9z M477.4,492.8h14l-6.8-22.1h-0.1
		L477.4,492.8z"/>
	<path class="st0" d="M505.2,466.9h4.6l17,35.9h0.1v-35.9h3.4v40.4h-4.6l-17-35.7h-0.1v35.7h-3.4V466.9z"/>
	<path class="st0" d="M536.1,466.9h22.4v3.4h-9.4v37.1h-3.6v-37.1h-9.4V466.9z"/>
	<path class="st0" d="M563.1,501.6c2.8,2.5,6.1,2.7,7.1,2.7c6.5,0,7.3-5.8,7.3-7.3c0-4.7-2.8-6.6-7.6-9.8c-5.6-3.8-7.3-6.4-7.3-11
		c0-9,8.2-9.8,10.5-9.8c3.2,0,5.4,0.9,6.4,1.3l-0.2,4.1c-1.6-0.9-3.4-2-6.4-2c-2.3,0-6.5,1.2-6.5,5.9c0,4,2.1,5.6,5.6,8.1
		c7.2,5.3,9.4,7.1,9.4,12.7c0,6.8-4.6,11.2-10.8,11.2c-2.5,0-5.6-0.6-7.7-1.9L563.1,501.6z"/>
</g>
</svg>
