<?xml version="1.0" encoding="utf-8"?>
<!-- Generator: Adobe Illustrator 18.1.1, SVG Export Plug-In . SVG Version: 6.00 Build 0)  -->
<svg version="1.0"   xmlns="http://www.w3.org/2000/svg" xmlns:xlink="http://www.w3.org/1999/xlink" x="0px" y="0px"
	 viewBox="0 0 70 70" style="enable-background:new 0 0 70 70;" xml:space="preserve">
<style type="text/css">
	.st0{fill:#EF4459;}
</style>
<g>
	<path class="st0" d="M57.9,11.2c-15.1-3.1-30.7-3.1-45.8,0C8.1,12,5,15.8,5,19.8v3.3c0,3.3,2.7,6,6,6h8c3.3,0,6-2.7,6-6V22
		c6.8-0.6,13.2-0.6,20,0v1.1c0,1.6,0.6,3.1,1.8,4.2c1.1,1.1,2.6,1.8,4.2,1.8l0-1v1h8c3.3,0,6-2.7,6-6v-3.3
		C65,15.8,61.9,12,57.9,11.2z M63,23.1c0,2.2-1.8,4-4,4h-8c-1.1,0-2.1-0.4-2.8-1.2S47,24.2,47,23.1v-2c0-0.5-0.4-0.9-0.9-1
		c-3.8-0.4-7.4-0.6-11.1-0.6s-7.3,0.2-11.1,0.6c-0.5,0.1-0.9,0.5-0.9,1v2c0,1.1-0.4,2.1-1.2,2.8s-1.8,1.2-2.8,1.2h-8
		c-2.2,0-4-1.8-4-4v-3.3c0-3,2.5-6,5.5-6.6c14.8-3,30.2-3,45,0c3,0.6,5.5,3.6,5.5,6.6V23.1z"/>
	<path class="st0" d="M41,31.5v-4.2c0-0.6-0.4-1-1-1s-1,0.4-1,1v4.1c-0.1,0-0.2,0-0.3,0h-7.6c-0.1,0-0.1,0-0.2,0v-4.1
		c0-0.6-0.4-1-1-1s-1,0.4-1,1v4.2c-10.3,1.1-18,10-18,21v7.6c0,0.6,0.4,1,1,1h46c0.6,0,1-0.4,1-1v-7.6C59,41.5,51.3,32.6,41,31.5z
		 M57,59.1H13v-6.6c0-10.8,8-19.2,18.2-19.2h7.6C49,33.4,57,41.8,57,52.5V59.1z"/>
	<path class="st0" d="M35,37.1c-5.5,0-10,4.5-10,10s4.5,10,10,10s10-4.5,10-10S40.5,37.1,35,37.1z M35,55.1c-4.4,0-8-3.6-8-8
		s3.6-8,8-8s8,3.6,8,8S39.4,55.1,35,55.1z"/>
</g>
</svg>
