<?xml version="1.0" encoding="utf-8"?>
<!-- Generator: Adobe Illustrator 18.1.1, SVG Export Plug-In . SVG Version: 6.00 Build 0)  -->
<svg version="1.0"   xmlns="http://www.w3.org/2000/svg" xmlns:xlink="http://www.w3.org/1999/xlink" x="0px" y="0px"
	 viewBox="0 0 70 70" style="enable-background:new 0 0 70 70;" xml:space="preserve">
<style type="text/css">
	.st0{fill:#EF4459;}
</style>
<g>
	<path class="st0" d="M43,7.9l16,10.7V31c0,0.6,0.4,1,1,1s1-0.4,1-1V18c0-0.3-0.2-0.6-0.4-0.8l-18-12c0,0-0.1,0-0.1-0.1
		c0,0-0.1,0-0.1,0c-0.2-0.1-0.5-0.1-0.7,0c0,0-0.1,0-0.1,0c0,0-0.1,0-0.1,0.1L24,16.8L6.6,5.2c-0.3-0.2-0.7-0.2-1,0
		C5.2,5.3,5,5.6,5,6v42c0,0.3,0.2,0.6,0.4,0.8l18,12c0,0,0.1,0,0.1,0.1c0,0,0.1,0,0.1,0c0.1,0,0.2,0.1,0.3,0.1c0.1,0,0.2,0,0.3-0.1
		c0,0,0.1,0,0.1,0c0,0,0.1,0,0.1-0.1l15-10c0.5-0.3,0.6-0.9,0.3-1.4c-0.3-0.5-0.9-0.6-1.4-0.3l-13.4,9V18.5L41,7.9V31
		c0,0.6,0.4,1,1,1s1-0.4,1-1V7.9z M7,7.9l16,10.7v39.6L7,47.5V7.9z"/>
	<path class="st0" d="M54,41c-2.8,0-5,2.2-5,5s2.2,5,5,5s5-2.2,5-5S56.8,41,54,41z M54,49c-1.7,0-3-1.3-3-3s1.3-3,3-3s3,1.3,3,3
		S55.7,49,54,49z"/>
	<path class="st0" d="M54,35c-6.1,0-11,4.9-11,11c0,5.8,9.8,18.1,10.2,18.6c0.2,0.2,0.5,0.4,0.8,0.4s0.6-0.1,0.8-0.4
		C55.2,64.1,65,51.8,65,46C65,39.9,60.1,35,54,35z M54,62.4c-3.1-4-9-12.5-9-16.4c0-5,4-9,9-9s9,4,9,9C63,49.9,57.1,58.4,54,62.4z"
		/>
</g>
</svg>
