<?xml version="1.0" encoding="utf-8"?>
<!-- Generator: Adobe Illustrator 18.1.1, SVG Export Plug-In . SVG Version: 6.00 Build 0)  -->
<svg version="1.0"   xmlns="http://www.w3.org/2000/svg" xmlns:xlink="http://www.w3.org/1999/xlink" x="0px" y="0px"
	 viewBox="0 0 70 70" style="enable-background:new 0 0 70 70;" xml:space="preserve">
<style type="text/css">
	.st0{fill:#EF4459;}
</style>
<g>
	<path class="st0" d="M33.9,19c-0.6,0-1,0.5-0.9,1.1s0.5,1,1.1,0.9c4.2-0.3,8.8,1.1,12.3,3.8c0.2,0.1,0.4,0.2,0.6,0.2
		c0.3,0,0.6-0.1,0.8-0.4c0.3-0.4,0.2-1.1-0.2-1.4C43.7,20.3,38.6,18.7,33.9,19z"/>
	<path class="st0" d="M65,29c0-0.6-0.4-1-1-1s-1,0.4-1,1c0,1.9-1.3,3.5-3.1,3.9C59.3,21.8,48.3,13,35,13c-1.9,0-3.8,0-5.7,0.4
		C27.5,10.7,24.4,9,21.1,9c-1.7,0-3.4,0.5-4.9,1.3c-0.3,0.2-0.5,0.5-0.5,0.9c0,0.4,0.2,0.7,0.5,0.9c1.9,1.1,3.2,2.9,3.7,5
		c-5.1,3.3-8.7,8.4-9.8,13.9H6c-0.6,0-1,0.4-1,1v10c0,0.6,0.4,1,1,1h6.4c2.4,5,6.8,8.6,12.6,10.5V60c0,0.6,0.4,1,1,1s1-0.4,1-1v-5.9
		c2.5,0.6,5.1,0.9,8,0.9c2.8,0,5.5-0.4,8-1.1V60c0,0.6,0.4,1,1,1s1-0.4,1-1v-6.8c8.5-3.1,14.5-10.1,14.9-18.3C62.8,34.5,65,32,65,29
		z M35,53c-10.2,0-17.9-4.2-21.1-11.4C13.8,41.2,13.4,41,13,41H7v-8h4c0.5,0,0.9-0.4,1-0.9c0.8-5.4,4.3-10.6,9.6-13.7
		c0.3-0.2,0.5-0.6,0.5-1c-0.3-2.4-1.5-4.5-3.3-6c0.8-0.3,1.6-0.4,2.4-0.4c2.8,0,5.4,1.5,6.8,4c0.2,0.4,0.7,0.6,1.1,0.5
		c1.9-0.4,3.9-0.5,6-0.5c12.7,0,23,8.5,23,18.9C58,44.4,47.7,53,35,53z"/>
	<path class="st0" d="M21,27c-1.7,0-3,1.3-3,3s1.3,3,3,3s3-1.3,3-3S22.7,27,21,27z M21,31c-0.6,0-1-0.4-1-1s0.4-1,1-1s1,0.4,1,1
		S21.6,31,21,31z"/>
</g>
</svg>
