<?xml version="1.0" encoding="utf-8"?>
<!-- Generator: Adobe Illustrator 18.1.1, SVG Export Plug-In . SVG Version: 6.00 Build 0)  -->
<svg version="1.0" id="Layer_1" xmlns="http://www.w3.org/2000/svg" xmlns:xlink="http://www.w3.org/1999/xlink" x="0px" y="0px"
	 viewBox="0 0 70 70" style="enable-background:new 0 0 70 70;" xml:space="preserve">
<style type="text/css">
	.st0{fill:#EF4459;}
</style>
<path class="st0" d="M45,39v-7v-7v-7v-7c0-4.1-10.4-6-20-6S5,6.9,5,11v7v7v7v7v7c0,4.7,12.6,6,20,6v7c0,4.7,12.6,6,20,6s20-1.3,20-6
	v-7v-7C65,40.9,54.6,39,45,39z M63,52c0,1.6-7,4-18,4s-18-2.4-18-4v-4.2C30.5,50,37.9,51,45,51s14.5-1,18-3.2V52z M63,45
	c0,1.4-6.4,4-18,4s-18-2.6-18-4s6.4-4,18-4S63,43.6,63,45z M26,43c-0.3,0-0.6,0-1,0c-11,0-18-2.4-18-4v-4.1c3.8,2.4,12.4,3.1,18,3.1
	s14.2-0.7,18-3.1V39c0,0,0,0,0,0C35.7,39.2,28.5,40.5,26,43z M43,18c0,1.6-7,4-18,4S7,19.6,7,18v-4.2C10.5,16,17.9,17,25,17
	s14.5-1,18-3.2V18z M25,24c5.6,0,14.2-0.7,18-3.1V25c0,1.6-7,4-18,4S7,26.6,7,25v-4.1C10.8,23.3,19.4,24,25,24z M25,31
	c5.6,0,14.2-0.7,18-3.1V32c0,1.6-7,4-18,4S7,33.6,7,32v-4.1C10.8,30.3,19.4,31,25,31z M25,7c11.6,0,18,2.6,18,4s-6.4,4-18,4
	S7,12.4,7,11S13.4,7,25,7z M7,46v-4.1c3.8,2.4,12.4,3.1,18,3.1v5C14,50,7,47.6,7,46z M45,63c-11,0-18-2.4-18-4v-4.1
	c3.8,2.4,12.4,3.1,18,3.1s14.2-0.7,18-3.1V59C63,60.6,56,63,45,63z"/>
</svg>
