<?xml version="1.0" encoding="utf-8"?>
<!-- Generator: Adobe Illustrator 18.1.1, SVG Export Plug-In . SVG Version: 6.00 Build 0)  -->
<svg version="1.0" id="Layer_1" xmlns="http://www.w3.org/2000/svg" xmlns:xlink="http://www.w3.org/1999/xlink" x="0px" y="0px"
	 viewBox="0 0 70 70" style="enable-background:new 0 0 70 70;" xml:space="preserve">
<style type="text/css">
	.st0{fill:#EF4459;}
</style>
<g>
	<path class="st0" d="M0-0.3v70h27.6v-27h-5.1v-9.1h5.1c0,0,0-5.9,0-7.2c0-1.4,0-10.4,11.7-10.4c1.6,0,5.1,0,8.5,0c0,4,0,8,0,9.1
		c-2.6,0-5.1,0-6.3,0c-1.2,0-2.5,1.5-2.5,2.5c0,0.9,0,6.1,0,6.1s7.6,0,8.6,0c-0.3,4.8-1,9.1-1,9.1H39v27h31v-70H0z"/>
</g>
</svg>
