<?xml version="1.0" encoding="utf-8"?>
<!-- Generator: Adobe Illustrator 19.1.0, SVG Export Plug-In . SVG Version: 6.00 Build 0)  -->
<svg version="1.1" id="Layer_1" xmlns="http://www.w3.org/2000/svg" xmlns:xlink="http://www.w3.org/1999/xlink" x="0px" y="0px"
	 viewBox="-262 385.9 70 70" style="enable-background:new -262 385.9 70 70;" xml:space="preserve">
<style type="text/css">
	.st0{fill:#FFFFFF;}
</style>
<g>
	<path class="st0" d="M-247.9,441.5c-1.5-1.5-2.8-2.8-2.8-5.1c0-1.4,0.4-2.6,1-3.8c-0.6,0-1.3,0.1-1.9,0.1
		c-4.3,0.1-7.8-1.4-10.4-3.8v15.3c3.1-1.6,6.6-2.6,10.6-2.6C-250.2,441.6-249,441.5-247.9,441.5z"/>
	<path class="st0" d="M-240.4,418.6c-0.9-6.9-5.4-12.5-10.6-12.7c-5.2-0.2-8.8,5.1-7.9,12c0.9,6.9,5.9,11.7,11.1,11.9
		C-242.5,429.9-239.5,425.5-240.4,418.6z"/>
	<path class="st0" d="M-192,385.6h-70v22.8c3.4-3.4,8.4-5.7,13.9-5.7c5.1,0,19.5,0,19.5,0l-4.4,4.5h-5.1c3.6,2.3,5.5,6.4,5.5,11
		c0,4.3-2.4,7.8-5.8,10.4c-3.3,2.6-3.9,3.7-3.9,5.8c0,1.9,3.9,4.6,5.7,6c6.3,4.7,7.6,7.7,7.6,13.6c0,0.5,0,1-0.1,1.5h37.1V385.6z
		 M-204.5,417.2h-9.1v8.8h-4.6v-8.8h-8.8v-4.6h8.8v-9.1h4.6v9.1h9.1V417.2z"/>
	<path class="st0" d="M-235,455.6c0-0.2,0-0.4,0-0.7c0-0.7-0.1-1.4-0.2-2.1c-0.9-3.4-4.3-5.2-8.5-8.2c-1.6-0.4-3.3-0.7-5.2-0.7
		c-5.7-0.1-10.8,2.6-13.1,6.3v5.4C-262,455.6-235,455.6-235,455.6z"/>
</g>
</svg>
