<?xml version="1.0" encoding="utf-8"?>
<!-- Generator: Adobe Illustrator 18.1.1, SVG Export Plug-In . SVG Version: 6.00 Build 0)  -->
<svg version="1.0" id="Layer_1" xmlns="http://www.w3.org/2000/svg" xmlns:xlink="http://www.w3.org/1999/xlink" x="0px" y="0px"
	 viewBox="0 0 70 70" style="enable-background:new 0 0 70 70;" xml:space="preserve">
<style type="text/css">
	.st0{fill:#EF4459;}
</style>
<g>
	<path class="st0" d="M14.1,55.6c-1.5-1.5-2.8-2.8-2.8-5.1c0-1.4,0.4-2.6,1-3.8c-0.6,0-1.3,0.1-1.9,0.1C6.1,46.9,2.6,45.4,0,43v15.3
		c3.1-1.6,6.6-2.6,10.6-2.6C11.8,55.7,13,55.6,14.1,55.6z"/>
	<path class="st0" d="M21.6,32.7C20.7,25.8,16.2,20.2,11,20c-5.2-0.2-8.8,5.1-7.9,12C4,38.9,9,43.7,14.2,43.9
		C19.5,44,22.5,39.6,21.6,32.7z"/>
	<path class="st0" d="M70-0.3H0v22.8c3.4-3.4,8.4-5.7,13.9-5.7c5.1,0,19.5,0,19.5,0L29,21.3h-5.1c3.6,2.3,5.5,6.4,5.5,11
		c0,4.3-2.4,7.8-5.8,10.4c-3.3,2.6-3.9,3.7-3.9,5.8c0,1.9,3.9,4.6,5.7,6c6.3,4.7,7.6,7.7,7.6,13.6c0,0.5,0,1-0.1,1.5H70V-0.3z
		 M57.5,31.3h-9.1v8.8h-4.6v-8.8H35v-4.6h8.8v-9.1h4.6v9.1h9.1V31.3z"/>
	<path class="st0" d="M27,69.7c0-0.2,0-0.4,0-0.7c0-0.7-0.1-1.4-0.2-2.1c-0.9-3.4-4.3-5.2-8.5-8.2C16.7,58.3,15,58,13.1,58
		C7.4,57.9,2.3,60.6,0,64.3v5.4H27z"/>
</g>
</svg>
