<?xml version="1.0" encoding="utf-8"?>
<!-- Generator: Adobe Illustrator 19.1.0, SVG Export Plug-In . SVG Version: 6.00 Build 0)  -->
<svg version="1.1"   xmlns="http://www.w3.org/2000/svg" xmlns:xlink="http://www.w3.org/1999/xlink" x="0px" y="0px"
	 viewBox="0 0 70 70" style="enable-background:new 0 0 70 70;" xml:space="preserve">
<style type="text/css">
	.st0{fill:#FFFFFF;}
	.st1{fill:#EF4459;}
</style>
<path class="st0" d="M56.9,14.6c0,0.1,0.1,0.3,0.1,0.4c0,2.2-1.8,7.4-6.9,9.9c-5-1.3-10.1,2.5-8.8,2.5s2.5,5,2.5,5
	c1.3,1.3,3.8,0,3.8,0c3.2,3.2-5,8.8-5,10.1s3.2,1.9,1.3,3.8c-1.9,1.9-3.8,2.5-3.8,2.5c0,6.3-6.3,6.3-7.6,6.3s-3.8-5-3.8-6.3
	c0-1.3,1.3-2.5,1.3-3.8c0-1.3-2.5-3.8-2.5-3.8c0-5-3.8-3.8-7.6-3.8c-3.8,0-3.8-5-3.8-5s0-8.8,6.3-10.1c6.3-1.3,6.3,1.3,6.3,1.3
	c2.5,2.5,7.6,0,10.1,0c0,0,1.3-8.8-1.3-7.6c-2.5,1.3-4.8,0.3-5-2.5C32.1,9.6,43,7,45,7c0.3,0,0.6,0,0.9,0.1C42.5,5.7,38.8,5,35,5
	C18.5,5,5,18.5,5,35c0,16.5,13.5,30,30,30s30-13.5,30-30C65,27.1,61.9,19.9,56.9,14.6z"/>
<g>
	<path class="st1" d="M124.3,57.1V56c0-1.5-1.5-3-3-3h-14c-1.5,0-3,1.5-3,3v1.1c-2.2,0.5-4,2.6-4,4.9v2c0,0.6,0.4,1,1,1h26
		c0.6,0,1-0.4,1-1v-2C128.3,59.7,126.5,57.6,124.3,57.1z M106.3,56c0-0.4,0.6-1,1-1h14c0.4,0,1,0.6,1,1v1h-16V56z M126.3,63h-24v-1
		c0-1.5,1.5-3,3-3h18c1.5,0,3,1.5,3,3V63z"/>
	<path class="st1" d="M160,53.3l-24.8-24.8l5.1-5.1l0.3,0.3c0.9,0.9,1.8,1.2,2.8,1.2c1.2,0,2.4-0.6,3.3-1.5c1.6-1.6,2.2-4.2,0.2-6.2
		l-11-11c-1.9-1.9-4.6-1.3-6.2,0.2c-1.6,1.6-2.2,4.2-0.2,6.2l0.3,0.3l-11.6,11.6l-0.3-0.3c-1.9-1.9-4.6-1.3-6.2,0.2
		c-1.6,1.6-2.2,4.2-0.2,6.2l11,11c0.9,0.9,1.8,1.2,2.8,1.2c1.2,0,2.4-0.6,3.3-1.5c1.6-1.6,2.2-4.2,0.2-6.2l-0.3-0.3l5.1-5.1
		l24.8,24.8c0.2,0.2,0.5,0.3,0.7,0.3s0.5-0.1,0.7-0.3C160.4,54.3,160.4,53.6,160,53.3z M131.3,7.9c0.7-0.7,2.1-1.5,3.3-0.2l11,11
		c1.2,1.2,0.4,2.7-0.2,3.3c-0.7,0.7-2.1,1.5-3.3,0.2l-1-1l-9-9l-1-1C129.8,10,130.6,8.6,131.3,7.9z M131.3,14.4l7.6,7.6l-5.8,5.8
		c0,0,0,0,0,0l0,0l-5.8,5.8l-7.6-7.6L131.3,14.4z M127.4,40c-0.7,0.7-2.1,1.5-3.3,0.2l-11-11c-1.2-1.2-0.4-2.7,0.2-3.3
		s2.1-1.5,3.3-0.2l1,1l9,9l1,1C128.8,37.9,128,39.3,127.4,40z"/>
</g>
<g>
	<path class="st1" d="M232.6,19c-0.6,0-1,0.5-0.9,1.1s0.5,1,1.1,0.9c4.2-0.3,8.8,1.1,12.3,3.8c0.2,0.1,0.4,0.2,0.6,0.2
		c0.3,0,0.6-0.1,0.8-0.4c0.3-0.4,0.2-1.1-0.2-1.4C242.4,20.3,237.2,18.7,232.6,19z"/>
	<path class="st1" d="M263.7,29c0-0.6-0.4-1-1-1s-1,0.4-1,1c0,1.9-1.3,3.5-3.1,3.9C257.9,21.8,247,13,233.7,13c-1.9,0-3.8,0-5.7,0.4
		c-1.8-2.7-4.9-4.4-8.2-4.4c-1.7,0-3.4,0.5-4.9,1.3c-0.3,0.2-0.5,0.5-0.5,0.9c0,0.4,0.2,0.7,0.5,0.9c1.9,1.1,3.2,2.9,3.7,5
		c-5.1,3.3-8.7,8.4-9.8,13.9h-4.2c-0.6,0-1,0.4-1,1v10c0,0.6,0.4,1,1,1h6.4c2.4,5,6.8,8.6,12.6,10.5V60c0,0.6,0.4,1,1,1s1-0.4,1-1
		v-5.9c2.5,0.6,5.1,0.9,8,0.9c2.8,0,5.5-0.4,8-1.1V60c0,0.6,0.4,1,1,1s1-0.4,1-1v-6.8c8.5-3.1,14.5-10.1,14.9-18.3
		C261.5,34.5,263.7,32,263.7,29z M233.7,53c-10.2,0-17.9-4.2-21.1-11.4c-0.2-0.4-0.5-0.6-0.9-0.6h-6v-8h4c0.5,0,0.9-0.4,1-0.9
		c0.8-5.4,4.3-10.6,9.6-13.7c0.3-0.2,0.5-0.6,0.5-1c-0.3-2.4-1.5-4.5-3.3-6c0.8-0.3,1.6-0.4,2.4-0.4c2.8,0,5.4,1.5,6.8,4
		c0.2,0.4,0.7,0.6,1.1,0.5c1.9-0.4,3.9-0.5,6-0.5c12.7,0,23,8.5,23,18.9C256.6,44.4,246.3,53,233.7,53z"/>
	<path class="st1" d="M219.7,27c-1.7,0-3,1.3-3,3s1.3,3,3,3s3-1.3,3-3S221.3,27,219.7,27z M219.7,31c-0.6,0-1-0.4-1-1s0.4-1,1-1
		s1,0.4,1,1S220.2,31,219.7,31z"/>
</g>
<path class="st1" d="M342.8,39.7v-7v-7v-7v-7c0-4.1-10.4-6-20-6s-20,1.9-20,6v7v7v7v7v7c0,4.7,12.6,6,20,6v7c0,4.7,12.6,6,20,6
	s20-1.3,20-6v-7v-7C362.8,41.5,352.5,39.7,342.8,39.7z M360.8,52.7c0,1.6-7,4-18,4s-18-2.4-18-4v-4.2c3.5,2.2,10.9,3.2,18,3.2
	s14.5-1,18-3.2V52.7z M360.8,45.7c0,1.4-6.4,4-18,4s-18-2.6-18-4s6.4-4,18-4S360.8,44.3,360.8,45.7z M323.8,43.7c-0.3,0-0.6,0-1,0
	c-11,0-18-2.4-18-4v-4.1c3.8,2.4,12.4,3.1,18,3.1s14.2-0.7,18-3.1v4.1c0,0,0,0,0,0C333.6,39.9,326.3,41.2,323.8,43.7z M340.8,18.7
	c0,1.6-7,4-18,4s-18-2.4-18-4v-4.2c3.5,2.2,10.9,3.2,18,3.2s14.5-1,18-3.2V18.7z M322.8,24.7c5.6,0,14.2-0.7,18-3.1v4.1
	c0,1.6-7,4-18,4s-18-2.4-18-4v-4.1C308.7,23.9,317.2,24.7,322.8,24.7z M322.8,31.7c5.6,0,14.2-0.7,18-3.1v4.1c0,1.6-7,4-18,4
	s-18-2.4-18-4v-4.1C308.7,30.9,317.2,31.7,322.8,31.7z M322.8,7.7c11.6,0,18,2.6,18,4s-6.4,4-18,4s-18-2.6-18-4S311.2,7.7,322.8,7.7
	z M304.8,46.7v-4.1c3.8,2.4,12.4,3.1,18,3.1v5C311.8,50.7,304.8,48.3,304.8,46.7z M342.8,63.7c-11,0-18-2.4-18-4v-4.1
	c3.8,2.4,12.4,3.1,18,3.1s14.2-0.7,18-3.1v4.1C360.8,61.3,353.8,63.7,342.8,63.7z"/>
<g>
	<path class="st1" d="M469.9,50.5c-2.3-2.3-4.9-4.2-8.5-3.2l-9.2,3.1c0-0.1,0-0.1,0-0.2c0-2-1.4-4-4-4c-1.7,0-2.8,0-3.7,0
		c-1.3,0-2.1,0-3.9,0c-3.4-2.6-7.3-4-11.3-4h-7v-1c0-0.6-0.4-1-1-1h-10c-0.6,0-1,0.4-1,1v18c0,0.6,0.4,1,1,1h10c0.6,0,1-0.4,1-1
		v-0.8c2.5,0.8,4.6,1.6,6.5,2.2c6.4,2.2,10,3.5,13.4,3.5c4.2,0,8-2,16.4-6.4c3-1.5,6.6-3.5,11.1-5.7c0.3-0.1,0.5-0.4,0.5-0.7
		C470.2,51,470.1,50.7,469.9,50.5z M420.2,58.2h-8v-16h8V58.2z M457.6,56c-14.5,7.6-14.5,7.6-28.2,2.8c-2.1-0.7-4.4-1.6-7.2-2.5
		V44.2h7c3.7,0,7.2,1.3,10.4,3.8c0.2,0.1,0.4,0.2,0.6,0.2c2,0,2.9,0,4.3,0c0.9,0,2,0,3.7,0c1.5,0,2,1.1,2,2c0,0.9-0.5,2-2,2h-14
		c-0.6,0-1,0.4-1,1s0.4,1,1,1h14c1.4,0,2.4-0.6,3.1-1.4l10.7-3.5c1.9-0.6,3.5-0.1,5.5,1.7C463.5,52.9,460.2,54.6,457.6,56z"/>
	<path class="st1" d="M441.2,37.2c0.6,0,1-0.4,1-1v-6c0-0.6-0.4-1-1-1s-1,0.4-1,1v6C440.2,36.7,440.6,37.2,441.2,37.2z"/>
	<path class="st1" d="M453.2,19.2c0.6,0,1-0.4,1-1v-6c0-0.6-0.4-1-1-1s-1,0.4-1,1v6C452.2,18.7,452.6,19.2,453.2,19.2z"/>
	<path class="st1" d="M441.2,41.2c4.4,0,8-3.6,8-8s-3.6-8-8-8s-8,3.6-8,8S436.8,41.2,441.2,41.2z M441.2,27.2c3.3,0,6,2.7,6,6
		s-2.7,6-6,6s-6-2.7-6-6S437.9,27.2,441.2,27.2z"/>
	<path class="st1" d="M453.2,23.2c4.4,0,8-3.6,8-8s-3.6-8-8-8s-8,3.6-8,8S448.8,23.2,453.2,23.2z M453.2,9.2c3.3,0,6,2.7,6,6
		s-2.7,6-6,6s-6-2.7-6-6S449.9,9.2,453.2,9.2z"/>
</g>
<g>
	<path class="st1" d="M530.8,32.7c-4.6,0-14,1-14,4v5v5v5v5v5c0,3,9.4,4,14,4s14-1,14-4v-5v-5v-5v-5v-5
		C544.8,33.6,535.4,32.7,530.8,32.7z M542.8,56.5c-0.8,0.8-5.7,2.2-12,2.2c-6.3,0-11.2-1.4-12-2.2v-2.7c3,1.4,8.7,1.9,12,1.9
		s9-0.5,12-1.9V56.5z M542.8,51.5c-0.8,0.8-5.7,2.2-12,2.2c-6.3,0-11.2-1.4-12-2.2v-2.7c3,1.4,8.7,1.9,12,1.9s9-0.5,12-1.9V51.5z
		 M542.8,46.5c-0.8,0.8-5.7,2.2-12,2.2c-6.3,0-11.2-1.4-12-2.2v-2.7c3,1.4,8.7,1.9,12,1.9s9-0.5,12-1.9V46.5z M542.8,41.5
		c-0.8,0.8-5.7,2.2-12,2.2c-6.3,0-11.2-1.4-12-2.2v-2.7c3,1.4,8.7,1.9,12,1.9s9-0.5,12-1.9V41.5z M530.8,34.7c5.9,0,10.6,1.2,11.8,2
		c-1.2,0.8-5.9,2-11.8,2c-5.9,0-10.6-1.2-11.8-2C520.2,35.9,524.9,34.7,530.8,34.7z M530.8,63.7c-6.3,0-11.2-1.4-12-2.2v-2.7
		c3,1.4,8.7,1.9,12,1.9s9-0.5,12-1.9v2.7C542.1,62.3,537.2,63.7,530.8,63.7z"/>
	<path class="st1" d="M514.8,5.7v23c0,0.6,0.4,1,1,1s1-0.4,1-1v-21h56v34h-20c-0.6,0-1,0.4-1,1s0.4,1,1,1h22v-38H514.8z"/>
	<path class="st1" d="M544.8,16.7c-4.4,0-8,3.6-8,8c0,4.4,3.6,8,8,8c4.4,0,8-3.6,8-8C552.8,20.3,549.2,16.7,544.8,16.7z M544.8,30.7
		c-3.3,0-6-2.7-6-6c0-3.3,2.7-6,6-6c3.3,0,6,2.7,6,6C550.8,28,548.1,30.7,544.8,30.7z"/>
	<path class="st1" d="M564.8,30.7c0-1.7-1.3-3-3-3s-3,1.3-3,3c0,1.7,1.3,3,3,3S564.8,32.3,564.8,30.7z M560.8,30.7c0-0.6,0.4-1,1-1
		s1,0.4,1,1c0,0.6-0.4,1-1,1S560.8,31.2,560.8,30.7z"/>
	<path class="st1" d="M524.8,18.7c0,1.7,1.3,3,3,3s3-1.3,3-3c0-1.7-1.3-3-3-3S524.8,17,524.8,18.7z M528.8,18.7c0,0.6-0.4,1-1,1
		s-1-0.4-1-1c0-0.6,0.4-1,1-1S528.8,18.1,528.8,18.7z"/>
	<path class="st1" d="M551.8,38.7c0,0.6,0.4,1,1,1h12c3.4,0,6-2.6,6-6v-18c0-3.4-2.6-6-6-6h-40c-3.4,0-6,2.6-6,6v13c0,0.6,0.4,1,1,1
		s1-0.4,1-1v-13c0-2.2,1.8-4,4-4h40c2.2,0,4,1.8,4,4v18c0,2.2-1.8,4-4,4h-12C552.3,37.7,551.8,38.1,551.8,38.7z"/>
</g>
<g>
	<path class="st1" d="M639.4,33.2h11.1v-2c0-1.9-1.3-3.7-3-4.2l-6-1.5v-2c2.5-1.6,4.2-4.6,4.2-7.9c0-5.1-3.8-9.2-8.6-9.2
		s-8.6,4.1-8.6,9.2c0,3.3,1.6,6.1,4,7.8v2.2l-5.9,1.6c-1.8,0.5-3.1,2.3-3.1,4.2v2h13.3H639.4z M637.1,8.2c3,0,5.6,2.3,6.3,5.4
		c-0.4,0.2-1.1,0.3-1.8,0.2c-0.6-0.1-1.8-0.4-2.4-1.6c-0.1-0.3-0.4-0.5-0.7-0.5c-0.3,0-0.6,0.1-0.9,0.3c-2,2-5.1,2.1-6.8,1.3
		C631.7,10.3,634.2,8.2,637.1,8.2z M630.5,15.4c0-0.1,0-0.1,0-0.2c2.3,0.8,5.3,0.6,7.6-1.1c0.8,0.9,1.9,1.4,3.2,1.6
		c0.3,0,0.6,0.1,0.9,0.1c0.5,0,1-0.1,1.4-0.2c-0.1,3.9-3,7.1-6.6,7.1C633.5,22.7,630.5,19.4,630.5,15.4z M625.5,31.2L625.5,31.2
		c0-1,0.8-2,1.7-2.3l7.3-1.9v-2.7c0.8,0.3,1.7,0.4,2.6,0.4c0.8,0,1.6-0.1,2.4-0.4v2.7l7.5,1.9c0.8,0.2,1.5,1.3,1.5,2.3h-9.1h-2.5
		H625.5z"/>
	<path class="st1" d="M679.5,26.9l-6-1.5v-2c2.5-1.6,4.2-4.6,4.2-7.9c0-5.1-3.8-9.2-8.6-9.2s-8.6,4.1-8.6,9.2c0,3.3,1.6,6.1,4,7.8
		v2.2l-5.9,1.6c-1.8,0.5-3.1,2.3-3.1,4.2v2h13.3h2.5h11.1v-2C682.5,29.2,681.2,27.4,679.5,26.9z M669.1,8.2c3,0,5.6,2.3,6.3,5.4
		c-0.4,0.2-1.1,0.3-1.8,0.2c-0.6-0.1-1.8-0.4-2.4-1.6c-0.1-0.3-0.4-0.5-0.7-0.5c-0.3,0-0.6,0.1-0.9,0.3c-2,2-5.1,2.1-6.8,1.3
		C663.7,10.3,666.2,8.2,669.1,8.2z M662.5,15.4c0-0.1,0-0.1,0-0.2c2.3,0.8,5.3,0.6,7.6-1.1c0.8,0.9,1.9,1.4,3.2,1.6
		c0.3,0,0.6,0.1,0.9,0.1c0.5,0,1-0.1,1.4-0.2c-0.1,3.9-3,7.1-6.6,7.1C665.5,22.7,662.5,19.4,662.5,15.4z M671.4,31.2h-2.5h-11.3v0
		c0-0.9,0.8-2,1.7-2.2l7.3-1.9v-2.7c0.8,0.3,1.7,0.4,2.6,0.4c0.8,0,1.6-0.1,2.4-0.4v2.7l7.5,1.9c0.8,0.2,1.5,1.3,1.5,2.3H671.4z"/>
	<path class="st1" d="M663,58.7l-5.7-1.6v-2.2c2.3-1.7,3.8-4.5,3.8-7.7c0-5.1-3.8-9.2-8.6-9.2s-8.6,4.1-8.6,9.2c0,3.2,1.5,6,3.8,7.7
		v2.2l-5.7,1.6c-1.8,0.5-3.1,2.3-3.1,4.2v2.3h12.3h2.5h12.3v-2.3C666.1,61.1,664.7,59.2,663,58.7z M652.5,39.9c3,0,5.5,2.2,6.3,5.3
		c-0.5,0.2-1.1,0.3-1.9,0.2c-0.6-0.1-1.7-0.4-2.3-1.5c-0.1-0.3-0.4-0.5-0.7-0.5c-0.3,0-0.6,0.1-0.9,0.3c-2,2-5.1,2.1-6.8,1.3
		C647.1,42.1,649.6,39.9,652.5,39.9z M645.9,47.2c0-0.1,0-0.1,0-0.2c2.3,0.8,5.3,0.6,7.6-1.1c0.8,0.8,1.8,1.4,3.1,1.6
		c0.3,0,0.6,0.1,0.8,0.1c0.5,0,1.1-0.1,1.6-0.2c0,4-3,7.2-6.6,7.2C648.9,54.4,645.9,51.2,645.9,47.2z M664.1,63.2h-10.3h-2.5h-10.3
		v-0.3c0-0.9,0.8-2,1.7-2.3l7.1-2v-2.7c0.9,0.3,1.8,0.5,2.8,0.5c1,0,1.9-0.2,2.8-0.5v2.7l7.1,2c0.9,0.3,1.7,1.3,1.7,2.3V63.2z"/>
	<path class="st1" d="M639.3,42l-6.3-6.3c-0.4-0.4-1-0.4-1.4,0s-0.4,1,0,1.4l6.3,6.3c0.2,0.2,0.5,0.3,0.7,0.3s0.5-0.1,0.7-0.3
		C639.7,43,639.7,42.4,639.3,42z"/>
	<path class="st1" d="M672,35.7l-6.3,6.3c-0.4,0.4-0.4,1,0,1.4c0.2,0.2,0.5,0.3,0.7,0.3s0.5-0.1,0.7-0.3l6.3-6.3
		c0.4-0.4,0.4-1,0-1.4S672.4,35.3,672,35.7z"/>
</g>
<g>
	<path class="st1" d="M726.2,0.4v70h27.6v-27h-5.1v-9.1h5.1c0,0,0-5.9,0-7.2c0-1.4,0-10.4,11.7-10.4c1.6,0,5.1,0,8.5,0
		c0,4,0,8,0,9.1c-2.6,0-5.1,0-6.3,0c-1.2,0-2.5,1.5-2.5,2.5c0,0.9,0,6.1,0,6.1s7.6,0,8.6,0c-0.3,4.8-1,9.1-1,9.1h-7.6v27h31v-70
		H726.2z"/>
</g>
<g>
	<path class="st1" d="M838.2,0.4v70h70v-70H838.2z M890.8,26.3c0,0.4,0,0.8,0,1.2c0,12-9.2,25.9-25.9,25.9c-5.1,0-9.9-1.5-14-4.1
		c0.7,0.1,1.4,0.1,2.2,0.1c4.3,0,8.2-1.5,11.3-3.9c-4-0.1-7.4-2.7-8.5-6.3c0.6,0.1,1.1,0.2,1.7,0.2c0.8,0,1.6-0.1,2.4-0.3
		c-4.2-0.8-7.3-4.5-7.3-8.9c0,0,0-0.1,0-0.1c1.2,0.7,2.6,1.1,4.1,1.1c-2.4-1.6-4.1-4.4-4.1-7.6c0-1.7,0.4-3.2,1.2-4.6
		c4.5,5.5,11.2,9.1,18.8,9.5c-0.2-0.7-0.2-1.4-0.2-2.1c0-5,4.1-9.1,9.1-9.1c2.6,0,5,1.1,6.7,2.9c2.1-0.4,4-1.2,5.8-2.2
		c-0.7,2.1-2.1,3.9-4,5c1.8-0.2,3.6-0.7,5.2-1.4C894.2,23.4,892.6,25,890.8,26.3z"/>
</g>
<g>
	<path class="st1" d="M966.8,56.3c-1.5-1.5-2.8-2.8-2.8-5.1c0-1.4,0.4-2.6,1-3.8c-0.6,0-1.3,0.1-1.9,0.1c-4.4,0-7.9-1.5-10.5-3.9
		v15.3c3.1-1.6,6.6-2.6,10.6-2.6C964.5,56.3,965.6,56.3,966.8,56.3z"/>
	<path class="st1" d="M974.3,33.4c-0.9-6.9-5.4-12.5-10.6-12.7c-5.2-0.2-8.8,5.1-7.9,12c0.9,6.9,5.9,11.7,11.1,11.9
		C972.2,44.7,975.2,40.3,974.3,33.4z"/>
	<path class="st1" d="M1022.7,0.4h-70v22.8c3.4-3.4,8.4-5.7,13.9-5.7c5.1,0,19.5,0,19.5,0l-4.4,4.6h-5.1c3.6,2.3,5.5,6.4,5.5,11
		c0,4.3-2.4,7.8-5.8,10.4c-3.3,2.6-3.9,3.7-3.9,5.8c0,1.9,3.9,4.6,5.7,6c6.3,4.7,7.6,7.7,7.6,13.6c0,0.5,0,1-0.1,1.5h37.1V0.4z
		 M1010.1,32h-9.1v8.8h-4.6V32h-8.8v-4.6h8.8v-9.1h4.6v9.1h9.1V32z"/>
	<path class="st1" d="M979.7,70.4c0-0.2,0-0.4,0-0.7c0-0.7-0.1-1.4-0.2-2.1c-0.9-3.4-4.3-5.2-8.5-8.2c-1.5-0.5-3.3-0.8-5.1-0.8
		c-5.7-0.1-10.9,2.6-13.1,6.3v5.4H979.7z"/>
</g>
<polygon class="st1" points="37.4,146.3 37.4,146.3 61.2,122.5 58.8,120 35,143.9 11.2,120 8.8,122.5 32.6,146.3 32.6,146.3 
	32.6,146.3 8.8,170.1 11.2,172.6 35,148.8 58.8,172.6 61.2,170.1 37.4,146.3 "/>
<g>
	<path class="st1" d="M153.2,122.5c-15.1-3.1-30.7-3.1-45.8,0c-4,0.8-7.1,4.6-7.1,8.5v3.3c0,3.3,2.7,6,6,6h8c3.3,0,6-2.7,6-6v-1.1
		c6.8-0.6,13.2-0.6,20,0v1.1c0,1.6,0.6,3.1,1.8,4.2c1.1,1.1,2.6,1.8,4.2,1.8l0-1v1h8c3.3,0,6-2.7,6-6v-3.3
		C160.3,127.1,157.2,123.4,153.2,122.5z M158.3,134.4c0,2.2-1.8,4-4,4h-8c-1.1,0-2.1-0.4-2.8-1.2s-1.2-1.8-1.2-2.8v-2
		c0-0.5-0.4-0.9-0.9-1c-3.8-0.4-7.4-0.6-11.1-0.6s-7.3,0.2-11.1,0.6c-0.5,0.1-0.9,0.5-0.9,1v2c0,1.1-0.4,2.1-1.2,2.8
		s-1.8,1.2-2.8,1.2h-8c-2.2,0-4-1.8-4-4v-3.3c0-3,2.5-6,5.5-6.6c14.8-3,30.2-3,45,0c3,0.6,5.5,3.6,5.5,6.6V134.4z"/>
	<path class="st1" d="M136.4,142.8v-4.2c0-0.6-0.4-1-1-1s-1,0.4-1,1v4.1c-0.1,0-0.2,0-0.3,0h-7.6c-0.1,0-0.1,0-0.2,0v-4.1
		c0-0.6-0.4-1-1-1s-1,0.4-1,1v4.2c-10.3,1.1-18,10-18,21v7.6c0,0.6,0.4,1,1,1h46c0.6,0,1-0.4,1-1v-7.6
		C154.3,152.8,146.6,144,136.4,142.8z M152.3,170.4h-44v-6.6c0-10.8,8-19.2,18.2-19.2h7.6c10.2,0,18.2,8.4,18.2,19.2V170.4z"/>
	<path class="st1" d="M130.3,148.4c-5.5,0-10,4.5-10,10s4.5,10,10,10s10-4.5,10-10S135.8,148.4,130.3,148.4z M130.3,166.4
		c-4.4,0-8-3.6-8-8s3.6-8,8-8s8,3.6,8,8S134.7,166.4,130.3,166.4z"/>
</g>
<g>
	<path class="st1" d="M241.7,119.2l16,10.7v12.5c0,0.6,0.4,1,1,1s1-0.4,1-1v-13c0-0.3-0.2-0.6-0.4-0.8l-18-12c0,0-0.1,0-0.1-0.1
		c0,0-0.1,0-0.1,0c-0.2-0.1-0.5-0.1-0.7,0c0,0-0.1,0-0.1,0c0,0-0.1,0-0.1,0.1l-17.4,11.6l-17.4-11.6c-0.3-0.2-0.7-0.2-1,0
		c-0.3,0.2-0.5,0.5-0.5,0.9v42c0,0.3,0.2,0.6,0.4,0.8l18,12c0,0,0.1,0,0.1,0.1c0,0,0.1,0,0.1,0c0.1,0,0.2,0.1,0.3,0.1
		c0.1,0,0.2,0,0.3-0.1c0,0,0.1,0,0.1,0c0,0,0.1,0,0.1-0.1l15-10c0.5-0.3,0.6-0.9,0.3-1.4c-0.3-0.5-0.9-0.6-1.4-0.3l-13.4,9v-39.6
		l16-10.7v23.1c0,0.6,0.4,1,1,1s1-0.4,1-1V119.2z M205.7,119.2l16,10.7v39.6l-16-10.7V119.2z"/>
	<path class="st1" d="M252.7,152.3c-2.8,0-5,2.2-5,5s2.2,5,5,5s5-2.2,5-5S255.4,152.3,252.7,152.3z M252.7,160.3c-1.7,0-3-1.3-3-3
		s1.3-3,3-3s3,1.3,3,3S254.3,160.3,252.7,160.3z"/>
	<path class="st1" d="M252.7,146.3c-6.1,0-11,4.9-11,11c0,5.8,9.8,18.1,10.2,18.6c0.2,0.2,0.5,0.4,0.8,0.4s0.6-0.1,0.8-0.4
		c0.4-0.5,10.2-12.8,10.2-18.6C263.7,151.3,258.7,146.3,252.7,146.3z M252.7,173.7c-3.1-4-9-12.5-9-16.4c0-5,4-9,9-9c5,0,9,4,9,9
		C261.7,161.2,255.8,169.7,252.7,173.7z"/>
</g>
<g>
	<path class="st1" d="M332.8,117.3c-11,0-20,9-20,20s20,38,20,38s20-27,20-38S343.9,117.3,332.8,117.3z M332.8,145.3
		c-4.4,0-8-3.6-8-8c0-4.4,3.6-8,8-8s8,3.6,8,8C340.8,141.8,337.3,145.3,332.8,145.3z"/>
</g>
</svg>
