<?xml version="1.0" encoding="utf-8"?>
<!-- Generator: Adobe Illustrator 18.1.1, SVG Export Plug-In . SVG Version: 6.00 Build 0)  -->
<svg version="1.0" id="Layer_1" xmlns="http://www.w3.org/2000/svg" xmlns:xlink="http://www.w3.org/1999/xlink" x="0px" y="0px"
	 viewBox="0 0 70 70" style="enable-background:new 0 0 70 70;" xml:space="preserve">
<style type="text/css">
	.st0{fill:#EF4459;}
</style>
<path class="st0" d="M56.9,14.6c0,0.1,0.1,0.3,0.1,0.4c0,2.2-1.8,7.4-6.9,9.9c-5-1.3-10.1,2.5-8.8,2.5s2.5,5,2.5,5
	c1.3,1.3,3.8,0,3.8,0c3.2,3.2-5,8.8-5,10.1s3.2,1.9,1.3,3.8c-1.9,1.9-3.8,2.5-3.8,2.5c0,6.3-6.3,6.3-7.6,6.3s-3.8-5-3.8-6.3
	c0-1.3,1.3-2.5,1.3-3.8c0-1.3-2.5-3.8-2.5-3.8c0-5-3.8-3.8-7.6-3.8c-3.8,0-3.8-5-3.8-5s0-8.8,6.3-10.1c6.3-1.3,6.3,1.3,6.3,1.3
	c2.5,2.5,7.6,0,10.1,0c0,0,1.3-8.8-1.3-7.6c-2.5,1.3-4.8,0.3-5-2.5C32.1,9.6,43,7,45,7c0.3,0,0.6,0,0.9,0.1C42.5,5.7,38.8,5,35,5
	C18.5,5,5,18.5,5,35c0,16.5,13.5,30,30,30s30-13.5,30-30C65,27.1,61.9,19.9,56.9,14.6z"/>
</svg>
