<?xml version="1.0" encoding="utf-8"?>
<!-- Generator: Adobe Illustrator 18.1.1, SVG Export Plug-In . SVG Version: 6.00 Build 0)  -->
<svg version="1.0"   xmlns="http://www.w3.org/2000/svg" xmlns:xlink="http://www.w3.org/1999/xlink" x="0px" y="0px"
	 viewBox="0 0 70 70" style="enable-background:new 0 0 70 70;" xml:space="preserve">
<style type="text/css">
	.st0{fill:#EF4459;}
</style>
<g>
	<path class="st0" d="M29,57.1V56c0-1.5-1.5-3-3-3H12c-1.5,0-3,1.5-3,3v1.1c-2.2,0.5-4,2.6-4,4.9v2c0,0.6,0.4,1,1,1h26
		c0.6,0,1-0.4,1-1v-2C33,59.7,31.2,57.6,29,57.1z M11,56c0-0.4,0.6-1,1-1h14c0.4,0,1,0.6,1,1v1H11V56z M31,63H7v-1c0-1.5,1.5-3,3-3
		h18c1.5,0,3,1.5,3,3V63z"/>
	<path class="st0" d="M64.7,53.3L39.9,28.5l5.1-5.1l0.3,0.3c0.9,0.9,1.8,1.2,2.8,1.2c1.2,0,2.4-0.6,3.3-1.5c1.6-1.6,2.2-4.2,0.2-6.2
		l-11-11c-1.9-1.9-4.6-1.3-6.2,0.2c-1.6,1.6-2.2,4.2-0.2,6.2l0.3,0.3L23,24.5l-0.3-0.3c-1.9-1.9-4.6-1.3-6.2,0.2
		c-1.6,1.6-2.2,4.2-0.2,6.2l11,11c0.9,0.9,1.8,1.2,2.8,1.2c1.2,0,2.4-0.6,3.3-1.5c1.6-1.6,2.2-4.2,0.2-6.2L33.4,35l5.1-5.1
		l24.8,24.8c0.2,0.2,0.5,0.3,0.7,0.3s0.5-0.1,0.7-0.3C65.1,54.3,65.1,53.6,64.7,53.3z M36,7.9c0.7-0.7,2.1-1.5,3.3-0.2l11,11
		c1.2,1.2,0.4,2.7-0.2,3.3c-0.7,0.7-2.1,1.5-3.3,0.2l-1-1l-9-9l-1-1C34.5,10,35.3,8.6,36,7.9z M36,14.4l7.6,7.6l-5.8,5.8
		c0,0,0,0,0,0s0,0,0,0L32,33.5L24.4,26L36,14.4z M32,40c-0.7,0.7-2.1,1.5-3.3,0.2l-11-11c-1.2-1.2-0.4-2.7,0.2-3.3s2.1-1.5,3.3-0.2
		l1,1l9,9l1,1C33.5,37.9,32.7,39.3,32,40z"/>
</g>
</svg>
