<?xml version="1.0" encoding="utf-8"?>
<!-- Generator: Adobe Illustrator 18.1.1, SVG Export Plug-In . SVG Version: 6.00 Build 0)  -->
<svg version="1.0"   xmlns="http://www.w3.org/2000/svg" xmlns:xlink="http://www.w3.org/1999/xlink" x="0px" y="0px"
	 viewBox="0 0 70 70" style="enable-background:new 0 0 70 70;" xml:space="preserve">
<style type="text/css">
	.st0{fill:#EF4459;}
</style>
<g>
	<path class="st0" d="M64.7,49.8c-2.3-2.3-4.9-4.2-8.5-3.2L47,49.7c0-0.1,0-0.1,0-0.2c0-2-1.4-4-4-4c-1.7,0-2.8,0-3.7,0
		c-1.3,0-2.1,0-3.9,0c-3.4-2.6-7.3-4-11.3-4h-7v-1c0-0.6-0.4-1-1-1H6c-0.6,0-1,0.4-1,1v18c0,0.6,0.4,1,1,1h10c0.6,0,1-0.4,1-1v-0.8
		c2.5,0.8,4.6,1.6,6.5,2.2c6.4,2.2,10,3.5,13.4,3.5c4.2,0,8-2,16.4-6.4c3-1.5,6.6-3.5,11.1-5.7c0.3-0.1,0.5-0.4,0.5-0.7
		C65,50.4,64.9,50,64.7,49.8z M15,57.5H7v-16h8V57.5z M52.4,55.4c-14.5,7.6-14.5,7.6-28.2,2.8c-2.1-0.7-4.4-1.6-7.2-2.5V43.5h7
		c3.7,0,7.2,1.3,10.4,3.8c0.2,0.1,0.4,0.2,0.6,0.2c2,0,2.9,0,4.3,0c0.9,0,2,0,3.7,0c1.5,0,2,1.1,2,2c0,0.9-0.5,2-2,2H29
		c-0.6,0-1,0.4-1,1s0.4,1,1,1h14c1.4,0,2.4-0.6,3.1-1.4l10.7-3.5c1.9-0.6,3.5-0.1,5.5,1.7C58.4,52.2,55.1,54,52.4,55.4z"/>
	<path class="st0" d="M36,36.5c0.6,0,1-0.4,1-1v-6c0-0.6-0.4-1-1-1s-1,0.4-1,1v6C35,36.1,35.4,36.5,36,36.5z"/>
	<path class="st0" d="M48,18.5c0.6,0,1-0.4,1-1v-6c0-0.6-0.4-1-1-1s-1,0.4-1,1v6C47,18.1,47.4,18.5,48,18.5z"/>
	<path class="st0" d="M36,40.5c4.4,0,8-3.6,8-8s-3.6-8-8-8s-8,3.6-8,8S31.6,40.5,36,40.5z M36,26.5c3.3,0,6,2.7,6,6s-2.7,6-6,6
		s-6-2.7-6-6S32.7,26.5,36,26.5z"/>
	<path class="st0" d="M48,22.5c4.4,0,8-3.6,8-8s-3.6-8-8-8s-8,3.6-8,8S43.6,22.5,48,22.5z M48,8.5c3.3,0,6,2.7,6,6s-2.7,6-6,6
		s-6-2.7-6-6S44.7,8.5,48,8.5z"/>
</g>
</svg>
