<?xml version="1.0" encoding="utf-8"?>
<!-- Generator: Adobe Illustrator 18.1.1, SVG Export Plug-In . SVG Version: 6.00 Build 0)  -->
<svg version="1.0" id="Layer_1" xmlns="http://www.w3.org/2000/svg" xmlns:xlink="http://www.w3.org/1999/xlink" x="0px" y="0px"
	 viewBox="0 0 70 70" style="enable-background:new 0 0 70 70;" xml:space="preserve">
<style type="text/css">
	.st0{fill:#EF4459;}
</style>
<g>
	<path class="st0" d="M21,32c-4.6,0-14,1-14,4v5v5v5v5v5c0,3,9.4,4,14,4s14-1,14-4v-5v-5v-5v-5v-5C35,33,25.6,32,21,32z M33,55.8
		c-0.8,0.8-5.7,2.2-12,2.2c-6.3,0-11.2-1.4-12-2.2v-2.7c3,1.4,8.7,1.9,12,1.9s9-0.5,12-1.9V55.8z M33,50.8c-0.8,0.8-5.7,2.2-12,2.2
		c-6.3,0-11.2-1.4-12-2.2v-2.7c3,1.4,8.7,1.9,12,1.9s9-0.5,12-1.9V50.8z M33,45.8c-0.8,0.8-5.7,2.2-12,2.2c-6.3,0-11.2-1.4-12-2.2
		v-2.7c3,1.4,8.7,1.9,12,1.9s9-0.5,12-1.9V45.8z M33,40.8c-0.8,0.8-5.7,2.2-12,2.2c-6.3,0-11.2-1.4-12-2.2v-2.7
		c3,1.4,8.7,1.9,12,1.9s9-0.5,12-1.9V40.8z M21,34c5.9,0,10.6,1.2,11.8,2c-1.2,0.8-5.9,2-11.8,2c-5.9,0-10.6-1.2-11.8-2
		C10.4,35.2,15.1,34,21,34z M21,63c-6.3,0-11.2-1.4-12-2.2v-2.7c3,1.4,8.7,1.9,12,1.9s9-0.5,12-1.9v2.7C32.2,61.6,27.3,63,21,63z"/>
	<path class="st0" d="M5,5v23c0,0.6,0.4,1,1,1s1-0.4,1-1V7h56v34H43c-0.6,0-1,0.4-1,1s0.4,1,1,1h22V5H5z"/>
	<path class="st0" d="M35,16c-4.4,0-8,3.6-8,8c0,4.4,3.6,8,8,8c4.4,0,8-3.6,8-8C43,19.6,39.4,16,35,16z M35,30c-3.3,0-6-2.7-6-6
		c0-3.3,2.7-6,6-6c3.3,0,6,2.7,6,6C41,27.3,38.3,30,35,30z"/>
	<path class="st0" d="M55,30c0-1.7-1.3-3-3-3s-3,1.3-3,3c0,1.7,1.3,3,3,3S55,31.7,55,30z M51,30c0-0.6,0.4-1,1-1s1,0.4,1,1
		c0,0.6-0.4,1-1,1S51,30.6,51,30z"/>
	<path class="st0" d="M15,18c0,1.7,1.3,3,3,3s3-1.3,3-3c0-1.7-1.3-3-3-3S15,16.3,15,18z M19,18c0,0.6-0.4,1-1,1s-1-0.4-1-1
		c0-0.6,0.4-1,1-1S19,17.4,19,18z"/>
	<path class="st0" d="M42,38c0,0.6,0.4,1,1,1h12c3.4,0,6-2.6,6-6V15c0-3.4-2.6-6-6-6H15c-3.4,0-6,2.6-6,6v13c0,0.6,0.4,1,1,1
		s1-0.4,1-1V15c0-2.2,1.8-4,4-4h40c2.2,0,4,1.8,4,4v18c0,2.2-1.8,4-4,4H43C42.4,37,42,37.4,42,38z"/>
</g>
</svg>
