<?xml version="1.0" encoding="utf-8"?>
<!-- Generator: Adobe Illustrator 18.1.1, SVG Export Plug-In . SVG Version: 6.00 Build 0)  -->
<svg version="1.0"   xmlns="http://www.w3.org/2000/svg" xmlns:xlink="http://www.w3.org/1999/xlink" x="0px" y="0px"
	 viewBox="0 0 70 70" style="enable-background:new 0 0 70 70;" xml:space="preserve">
<style type="text/css">
	.st0{fill:#EF4459;}
</style>
<g>
	<path class="st0" d="M21.4,32.5h11.1v-2c0-1.9-1.3-3.7-3-4.2l-6-1.5v-2c2.5-1.6,4.2-4.6,4.2-7.9c0-5.1-3.8-9.2-8.6-9.2
		s-8.6,4.1-8.6,9.2c0,3.3,1.6,6.1,4,7.8v2.2l-5.9,1.6c-1.8,0.5-3.1,2.3-3.1,4.2v2h13.3H21.4z M19.1,7.5c3,0,5.6,2.3,6.3,5.4
		c-0.4,0.2-1.1,0.3-1.8,0.2c-0.6-0.1-1.8-0.4-2.4-1.6c-0.1-0.3-0.4-0.5-0.7-0.5c-0.3,0-0.6,0.1-0.9,0.3c-2,2-5.1,2.1-6.8,1.3
		C13.7,9.6,16.2,7.5,19.1,7.5z M12.5,14.7c0-0.1,0-0.1,0-0.2c2.3,0.8,5.3,0.6,7.6-1.1c0.8,0.9,1.9,1.4,3.2,1.6
		c0.3,0,0.6,0.1,0.9,0.1c0.5,0,1-0.1,1.4-0.2c-0.1,3.9-3,7.1-6.6,7.1C15.5,22,12.5,18.7,12.5,14.7z M7.5,30.5L7.5,30.5
		c0-1,0.8-2,1.7-2.3l7.3-1.9v-2.7c0.8,0.3,1.7,0.4,2.6,0.4c0.8,0,1.6-0.1,2.4-0.4v2.7l7.5,1.9c0.8,0.2,1.5,1.3,1.5,2.3h-9.1h-2.5
		H7.5z"/>
	<path class="st0" d="M61.5,26.3l-6-1.5v-2c2.5-1.6,4.2-4.6,4.2-7.9c0-5.1-3.8-9.2-8.6-9.2s-8.6,4.1-8.6,9.2c0,3.3,1.6,6.1,4,7.8
		v2.2l-5.9,1.6c-1.8,0.5-3.1,2.3-3.1,4.2v2h13.3h2.5h11.1v-2C64.5,28.6,63.2,26.8,61.5,26.3z M51.1,7.5c3,0,5.6,2.3,6.3,5.4
		c-0.4,0.2-1.1,0.3-1.8,0.2c-0.6-0.1-1.8-0.4-2.4-1.6c-0.1-0.3-0.4-0.5-0.7-0.5c-0.3,0-0.6,0.1-0.9,0.3c-2,2-5.1,2.1-6.8,1.3
		C45.7,9.6,48.2,7.5,51.1,7.5z M44.5,14.7c0-0.1,0-0.1,0-0.2c2.3,0.8,5.3,0.6,7.6-1.1c0.8,0.9,1.9,1.4,3.2,1.6
		c0.3,0,0.6,0.1,0.9,0.1c0.5,0,1-0.1,1.4-0.2c-0.1,3.9-3,7.1-6.6,7.1C47.5,22,44.5,18.7,44.5,14.7z M53.4,30.5h-2.5H39.5v0
		c0-0.9,0.8-2,1.7-2.2l7.3-1.9v-2.7c0.8,0.3,1.7,0.4,2.6,0.4c0.8,0,1.6-0.1,2.4-0.4v2.7l7.5,1.9c0.8,0.2,1.5,1.3,1.5,2.3H53.4z"/>
	<path class="st0" d="M45,58.1l-5.7-1.6v-2.2c2.3-1.7,3.8-4.5,3.8-7.7c0-5.1-3.8-9.2-8.6-9.2s-8.6,4.1-8.6,9.2c0,3.2,1.5,6,3.8,7.7
		v2.2L24,58.1c-1.8,0.5-3.1,2.3-3.1,4.2v2.3h12.3h2.5h12.3v-2.3C48.1,60.4,46.7,58.6,45,58.1z M34.5,39.3c3,0,5.5,2.2,6.3,5.3
		c-0.5,0.2-1.1,0.3-1.9,0.2c-0.6-0.1-1.7-0.4-2.3-1.5c-0.1-0.3-0.4-0.5-0.7-0.5c-0.3,0-0.6,0.1-0.9,0.3c-2,2-5.1,2.1-6.8,1.3
		C29.1,41.4,31.6,39.3,34.5,39.3z M27.9,46.5c0-0.1,0-0.1,0-0.2c2.3,0.8,5.3,0.6,7.6-1.1c0.8,0.8,1.8,1.4,3.1,1.6
		c0.3,0,0.6,0.1,0.8,0.1c0.5,0,1.1-0.1,1.6-0.2c0,4-3,7.2-6.6,7.2C30.9,53.8,27.9,50.5,27.9,46.5z M46.1,62.5H35.8h-2.5H22.9v-0.3
		c0-0.9,0.8-2,1.7-2.3l7.1-2v-2.7c0.9,0.3,1.8,0.5,2.8,0.5c1,0,1.9-0.2,2.8-0.5v2.7l7.1,2c0.9,0.3,1.7,1.3,1.7,2.3V62.5z"/>
	<path class="st0" d="M21.3,41.4L15,35.1c-0.4-0.4-1-0.4-1.4,0s-0.4,1,0,1.4l6.3,6.3c0.2,0.2,0.5,0.3,0.7,0.3s0.5-0.1,0.7-0.3
		C21.7,42.4,21.7,41.7,21.3,41.4z"/>
	<path class="st0" d="M54,35.1l-6.3,6.3c-0.4,0.4-0.4,1,0,1.4c0.2,0.2,0.5,0.3,0.7,0.3s0.5-0.1,0.7-0.3l6.3-6.3c0.4-0.4,0.4-1,0-1.4
		S54.4,34.7,54,35.1z"/>
</g>
</svg>
