<?xml version="1.0" encoding="utf-8"?>
<!-- Generator: Adobe Illustrator 18.1.1, SVG Export Plug-In . SVG Version: 6.00 Build 0)  -->
<svg version="1.0" id="Layer_1" xmlns="http://www.w3.org/2000/svg" xmlns:xlink="http://www.w3.org/1999/xlink" x="0px" y="0px"
	 viewBox="0 0 70 70" style="enable-background:new 0 0 70 70;" xml:space="preserve">
<style type="text/css">
	.st0{fill:#EF4459;}
</style>
<g>
	<path class="st0" d="M0-0.3v70h70v-70H0z M52.7,25.6c0,0.4,0,0.8,0,1.2c0,12-9.2,25.9-25.9,25.9c-5.1,0-9.9-1.5-14-4.1
		c0.7,0.1,1.4,0.1,2.2,0.1c4.3,0,8.2-1.5,11.3-3.9c-4-0.1-7.4-2.7-8.5-6.3c0.6,0.1,1.1,0.2,1.7,0.2c0.8,0,1.6-0.1,2.4-0.3
		c-4.2-0.8-7.3-4.5-7.3-8.9c0,0,0-0.1,0-0.1c1.2,0.7,2.6,1.1,4.1,1.1c-2.4-1.6-4.1-4.4-4.1-7.6c0-1.7,0.4-3.2,1.2-4.6
		c4.5,5.5,11.2,9.1,18.8,9.5c-0.2-0.7-0.2-1.4-0.2-2.1c0-5,4.1-9.1,9.1-9.1c2.6,0,5,1.1,6.7,2.9c2.1-0.4,4-1.2,5.8-2.2
		c-0.7,2.1-2.1,3.9-4,5c1.8-0.2,3.6-0.7,5.2-1.4C56,22.7,54.5,24.3,52.7,25.6z"/>
</g>
</svg>
