<?xml version="1.0" encoding="utf-8"?>
<!-- Generator: Adobe Illustrator 19.1.0, SVG Export Plug-In . SVG Version: 6.00 Build 0)  -->
<svg version="1.1" id="Layer_1" xmlns="http://www.w3.org/2000/svg" xmlns:xlink="http://www.w3.org/1999/xlink" x="0px" y="0px"
	 viewBox="0 0 70 70" style="enable-background:new 0 0 70 70;" xml:space="preserve">
<style type="text/css">
	.st0{fill:#FFFFFF;}
	.st1{fill:#EF4459;}
</style>
<path class="st0" d="M-781.2,13.9c0,0.1,0.1,0.3,0.1,0.4c0,2.2-1.8,7.4-6.9,9.9c-5-1.3-10.1,2.5-8.8,2.5c1.3,0,2.5,5,2.5,5
	c1.3,1.3,3.8,0,3.8,0c3.2,3.2-5,8.8-5,10.1s3.2,1.9,1.3,3.8c-1.9,1.9-3.8,2.5-3.8,2.5c0,6.3-6.3,6.3-7.6,6.3s-3.8-5-3.8-6.3
	c0-1.3,1.3-2.5,1.3-3.8c0-1.3-2.5-3.8-2.5-3.8c0-5-3.8-3.8-7.6-3.8c-3.8,0-3.8-5-3.8-5s0-8.8,6.3-10.1c6.3-1.3,6.3,1.3,6.3,1.3
	c2.5,2.5,7.6,0,10.1,0c0,0,1.3-8.8-1.3-7.6c-2.5,1.3-4.8,0.3-5-2.5c-0.4-3.9,10.5-6.6,12.5-6.6c0.3,0,0.6,0,0.9,0.1
	c-3.4-1.3-7-2.1-10.9-2.1c-16.5,0-30,13.5-30,30c0,16.5,13.5,30,30,30s30-13.5,30-30C-773.2,26.4-776.2,19.3-781.2,13.9z"/>
<g>
	<path class="st1" d="M-713.8,56.4v-1.1c0-1.5-1.5-3-3-3h-14c-1.5,0-3,1.5-3,3v1.1c-2.2,0.5-4,2.6-4,4.9v2c0,0.6,0.4,1,1,1h26
		c0.6,0,1-0.4,1-1v-2C-709.8,59.1-711.7,56.9-713.8,56.4z M-731.8,55.3c0-0.4,0.6-1,1-1h14c0.4,0,1,0.6,1,1v1h-16V55.3z
		 M-711.8,62.3h-24v-1c0-1.5,1.5-3,3-3h18c1.5,0,3,1.5,3,3V62.3z"/>
	<path class="st1" d="M-678.1,52.6l-24.8-24.8l5.1-5.1l0.3,0.3c0.9,0.9,1.8,1.2,2.8,1.2c1.2,0,2.4-0.6,3.3-1.5
		c1.6-1.6,2.2-4.2,0.2-6.2l-11-11c-1.9-1.9-4.6-1.3-6.2,0.2c-1.6,1.6-2.2,4.2-0.2,6.2l0.3,0.3l-11.6,11.6l-0.3-0.3
		c-1.9-1.9-4.6-1.3-6.2,0.2c-1.6,1.6-2.2,4.2-0.2,6.2l11,11c0.9,0.9,1.8,1.2,2.8,1.2c1.2,0,2.4-0.6,3.3-1.5c1.6-1.6,2.2-4.2,0.2-6.2
		l-0.3-0.3l5.1-5.1l24.8,24.8c0.2,0.2,0.5,0.3,0.7,0.3s0.5-0.1,0.7-0.3C-677.7,53.6-677.7,53-678.1,52.6z M-706.9,7.3
		c0.7-0.7,2.1-1.5,3.3-0.2l11,11c1.2,1.2,0.4,2.7-0.2,3.3c-0.7,0.7-2.1,1.5-3.3,0.2l-1-1l-9-9l-1-1C-708.3,9.4-707.5,7.9-706.9,7.3z
		 M-706.8,13.7l7.6,7.6l-5.8,5.8c0,0,0,0,0,0l0,0l-5.8,5.8l-7.6-7.6L-706.8,13.7z M-710.8,39.3c-0.7,0.7-2.1,1.5-3.3,0.2l-11-11
		c-1.2-1.2-0.4-2.7,0.2-3.3s2.1-1.5,3.3-0.2l1,1l9,9l1,1C-709.3,37.2-710.1,38.7-710.8,39.3z"/>
</g>
<g>
	<path class="st1" d="M-605.6,18.3c-0.6,0-1,0.5-0.9,1.1s0.5,1,1.1,0.9c4.2-0.3,8.8,1.1,12.3,3.8c0.2,0.1,0.4,0.2,0.6,0.2
		c0.3,0,0.6-0.1,0.8-0.4c0.3-0.4,0.2-1.1-0.2-1.4C-595.8,19.6-600.9,18-605.6,18.3z"/>
	<path class="st1" d="M-574.5,28.3c0-0.6-0.4-1-1-1s-1,0.4-1,1c0,1.9-1.3,3.5-3.1,3.9c-0.6-11.1-11.6-19.9-24.9-19.9
		c-1.9,0-3.8,0-5.7,0.4c-1.8-2.7-4.9-4.4-8.2-4.4c-1.7,0-3.4,0.5-4.9,1.3c-0.3,0.2-0.5,0.5-0.5,0.9c0,0.4,0.2,0.7,0.5,0.9
		c1.9,1.1,3.2,2.9,3.7,5c-5.1,3.3-8.7,8.4-9.8,13.9h-4.2c-0.6,0-1,0.4-1,1v10c0,0.6,0.4,1,1,1h6.4c2.4,5,6.8,8.6,12.6,10.5v6.5
		c0,0.6,0.4,1,1,1s1-0.4,1-1v-5.9c2.5,0.6,5.1,0.9,8,0.9c2.8,0,5.5-0.4,8-1.1v6.1c0,0.6,0.4,1,1,1s1-0.4,1-1v-6.8
		c8.5-3.1,14.5-10.1,14.9-18.3C-576.7,33.8-574.5,31.4-574.5,28.3z M-604.5,52.3c-10.2,0-17.9-4.2-21.1-11.4
		c-0.2-0.4-0.5-0.6-0.9-0.6h-6v-8h4c0.5,0,0.9-0.4,1-0.9c0.8-5.4,4.3-10.6,9.6-13.7c0.3-0.2,0.5-0.6,0.5-1c-0.3-2.4-1.5-4.5-3.3-6
		c0.8-0.3,1.6-0.4,2.4-0.4c2.8,0,5.4,1.5,6.8,4c0.2,0.4,0.7,0.6,1.1,0.5c1.9-0.4,3.9-0.5,6-0.5c12.7,0,23,8.5,23,18.9
		C-581.5,43.8-591.8,52.3-604.5,52.3z"/>
	<path class="st1" d="M-618.5,26.3c-1.7,0-3,1.3-3,3s1.3,3,3,3s3-1.3,3-3S-616.8,26.3-618.5,26.3z M-618.5,30.3c-0.6,0-1-0.4-1-1
		s0.4-1,1-1s1,0.4,1,1S-617.9,30.3-618.5,30.3z"/>
</g>
<path class="st1" d="M-495.3,39v-7v-7v-7v-7c0-4.1-10.4-6-20-6c-9.6,0-20,1.9-20,6v7v7v7v7v7c0,4.7,12.6,6,20,6v7c0,4.7,12.6,6,20,6
	s20-1.3,20-6v-7v-7C-475.3,40.9-485.7,39-495.3,39z M-477.3,52c0,1.6-7,4-18,4s-18-2.4-18-4v-4.2c3.5,2.2,10.9,3.2,18,3.2
	s14.5-1,18-3.2V52z M-477.3,45c0,1.4-6.4,4-18,4s-18-2.6-18-4s6.4-4,18-4S-477.3,43.6-477.3,45z M-514.4,43c-0.3,0-0.6,0-1,0
	c-11,0-18-2.4-18-4v-4.1c3.8,2.4,12.4,3.1,18,3.1c5.6,0,14.2-0.7,18-3.1V39c0,0,0,0,0,0C-504.6,39.2-511.8,40.5-514.4,43z
	 M-497.3,18c0,1.6-7,4-18,4c-11,0-18-2.4-18-4v-4.2c3.5,2.2,10.9,3.2,18,3.2c7.1,0,14.5-1,18-3.2V18z M-515.3,24
	c5.6,0,14.2-0.7,18-3.1V25c0,1.6-7,4-18,4c-11,0-18-2.4-18-4v-4.1C-529.5,23.3-520.9,24-515.3,24z M-515.3,31c5.6,0,14.2-0.7,18-3.1
	V32c0,1.6-7,4-18,4c-11,0-18-2.4-18-4v-4.1C-529.5,30.3-520.9,31-515.3,31z M-515.3,7c11.6,0,18,2.6,18,4s-6.4,4-18,4
	c-11.6,0-18-2.6-18-4S-527,7-515.3,7z M-533.3,46v-4.1c3.8,2.4,12.4,3.1,18,3.1v5C-526.3,50-533.3,47.6-533.3,46z M-495.3,63
	c-11,0-18-2.4-18-4v-4.1c3.8,2.4,12.4,3.1,18,3.1s14.2-0.7,18-3.1V59C-477.3,60.6-484.3,63-495.3,63z"/>
<g>
	<path class="st1" d="M-368.3,49.8c-2.3-2.3-4.9-4.2-8.5-3.2l-9.2,3.1c0-0.1,0-0.1,0-0.2c0-2-1.4-4-4-4c-1.7,0-2.8,0-3.7,0
		c-1.3,0-2.1,0-3.9,0c-3.4-2.6-7.3-4-11.3-4h-7v-1c0-0.6-0.4-1-1-1h-10c-0.6,0-1,0.4-1,1v18c0,0.6,0.4,1,1,1h10c0.6,0,1-0.4,1-1
		v-0.8c2.5,0.8,4.6,1.6,6.5,2.2c6.4,2.2,10,3.5,13.4,3.5c4.2,0,8-2,16.4-6.4c3-1.5,6.6-3.5,11.1-5.7c0.3-0.1,0.5-0.4,0.5-0.7
		C-368,50.4-368.1,50-368.3,49.8z M-418,57.5h-8v-16h8V57.5z M-380.6,55.4c-14.5,7.6-14.5,7.6-28.2,2.8c-2.1-0.7-4.4-1.6-7.2-2.5
		V43.5h7c3.7,0,7.2,1.3,10.4,3.8c0.2,0.1,0.4,0.2,0.6,0.2c2,0,2.9,0,4.3,0c0.9,0,2,0,3.7,0c1.5,0,2,1.1,2,2c0,0.9-0.5,2-2,2h-14
		c-0.6,0-1,0.4-1,1s0.4,1,1,1h14c1.4,0,2.4-0.6,3.1-1.4l10.7-3.5c1.9-0.6,3.5-0.1,5.5,1.7C-374.6,52.2-377.9,54-380.6,55.4z"/>
	<path class="st1" d="M-397,36.5c0.6,0,1-0.4,1-1v-6c0-0.6-0.4-1-1-1s-1,0.4-1,1v6C-398,36.1-397.6,36.5-397,36.5z"/>
	<path class="st1" d="M-385,18.5c0.6,0,1-0.4,1-1v-6c0-0.6-0.4-1-1-1s-1,0.4-1,1v6C-386,18.1-385.6,18.5-385,18.5z"/>
	<path class="st1" d="M-397,40.5c4.4,0,8-3.6,8-8s-3.6-8-8-8s-8,3.6-8,8S-401.4,40.5-397,40.5z M-397,26.5c3.3,0,6,2.7,6,6
		s-2.7,6-6,6s-6-2.7-6-6S-400.3,26.5-397,26.5z"/>
	<path class="st1" d="M-385,22.5c4.4,0,8-3.6,8-8s-3.6-8-8-8s-8,3.6-8,8S-389.4,22.5-385,22.5z M-385,8.5c3.3,0,6,2.7,6,6
		s-2.7,6-6,6s-6-2.7-6-6S-388.3,8.5-385,8.5z"/>
</g>
<g>
	<path class="st1" d="M-307.3,32c-4.6,0-14,1-14,4v5v5v5v5v5c0,3,9.4,4,14,4s14-1,14-4v-5v-5v-5v-5v-5C-293.3,33-302.8,32-307.3,32z
		 M-295.3,55.8c-0.8,0.8-5.7,2.2-12,2.2c-6.3,0-11.2-1.4-12-2.2v-2.7c3,1.4,8.7,1.9,12,1.9s9-0.5,12-1.9V55.8z M-295.3,50.8
		c-0.8,0.8-5.7,2.2-12,2.2c-6.3,0-11.2-1.4-12-2.2v-2.7c3,1.4,8.7,1.9,12,1.9s9-0.5,12-1.9V50.8z M-295.3,45.8
		c-0.8,0.8-5.7,2.2-12,2.2c-6.3,0-11.2-1.4-12-2.2v-2.7c3,1.4,8.7,1.9,12,1.9s9-0.5,12-1.9V45.8z M-295.3,40.8
		c-0.8,0.8-5.7,2.2-12,2.2c-6.3,0-11.2-1.4-12-2.2v-2.7c3,1.4,8.7,1.9,12,1.9s9-0.5,12-1.9V40.8z M-307.3,34c5.9,0,10.6,1.2,11.8,2
		c-1.2,0.8-5.9,2-11.8,2c-5.9,0-10.6-1.2-11.8-2C-318,35.2-313.3,34-307.3,34z M-307.3,63c-6.3,0-11.2-1.4-12-2.2v-2.7
		c3,1.4,8.7,1.9,12,1.9s9-0.5,12-1.9v2.7C-296.1,61.6-301,63-307.3,63z"/>
	<path class="st1" d="M-323.3,5v23c0,0.6,0.4,1,1,1s1-0.4,1-1V7h56v34h-20c-0.6,0-1,0.4-1,1s0.4,1,1,1h22V5H-323.3z"/>
	<path class="st1" d="M-293.3,16c-4.4,0-8,3.6-8,8c0,4.4,3.6,8,8,8c4.4,0,8-3.6,8-8C-285.3,19.6-288.9,16-293.3,16z M-293.3,30
		c-3.3,0-6-2.7-6-6c0-3.3,2.7-6,6-6c3.3,0,6,2.7,6,6C-287.3,27.3-290,30-293.3,30z"/>
	<path class="st1" d="M-273.3,30c0-1.7-1.3-3-3-3s-3,1.3-3,3c0,1.7,1.3,3,3,3S-273.3,31.7-273.3,30z M-277.3,30c0-0.6,0.4-1,1-1
		s1,0.4,1,1c0,0.6-0.4,1-1,1S-277.3,30.6-277.3,30z"/>
	<path class="st1" d="M-313.3,18c0,1.7,1.3,3,3,3s3-1.3,3-3c0-1.7-1.3-3-3-3S-313.3,16.3-313.3,18z M-309.3,18c0,0.6-0.4,1-1,1
		s-1-0.4-1-1c0-0.6,0.4-1,1-1S-309.3,17.4-309.3,18z"/>
	<path class="st1" d="M-286.3,38c0,0.6,0.4,1,1,1h12c3.4,0,6-2.6,6-6V15c0-3.4-2.6-6-6-6h-40c-3.4,0-6,2.6-6,6v13c0,0.6,0.4,1,1,1
		s1-0.4,1-1V15c0-2.2,1.8-4,4-4h40c2.2,0,4,1.8,4,4v18c0,2.2-1.8,4-4,4h-12C-285.9,37-286.3,37.4-286.3,38z"/>
</g>
<g>
	<path class="st1" d="M-198.8,32.5h11.1v-2c0-1.9-1.3-3.7-3-4.2l-6-1.5v-2c2.5-1.6,4.2-4.6,4.2-7.9c0-5.1-3.8-9.2-8.6-9.2
		s-8.6,4.1-8.6,9.2c0,3.3,1.6,6.1,4,7.8v2.2l-5.9,1.6c-1.8,0.5-3.1,2.3-3.1,4.2v2h13.3H-198.8z M-201.1,7.5c3,0,5.6,2.3,6.3,5.4
		c-0.4,0.2-1.1,0.3-1.8,0.2c-0.6-0.1-1.8-0.4-2.4-1.6c-0.1-0.3-0.4-0.5-0.7-0.5c-0.3,0-0.6,0.1-0.9,0.3c-2,2-5.1,2.1-6.8,1.3
		C-206.5,9.6-204,7.5-201.1,7.5z M-207.6,14.7c0-0.1,0-0.1,0-0.2c2.3,0.8,5.3,0.6,7.6-1.1c0.8,0.9,1.9,1.4,3.2,1.6
		c0.3,0,0.6,0.1,0.9,0.1c0.5,0,1-0.1,1.4-0.2c-0.1,3.9-3,7.1-6.6,7.1C-204.7,22-207.6,18.7-207.6,14.7z M-212.7,30.5L-212.7,30.5
		c0-1,0.8-2,1.7-2.3l7.3-1.9v-2.7c0.8,0.3,1.7,0.4,2.6,0.4c0.8,0,1.6-0.1,2.4-0.4v2.7l7.5,1.9c0.8,0.2,1.5,1.3,1.5,2.3h-9.1h-2.5
		H-212.7z"/>
	<path class="st1" d="M-158.6,26.3l-6-1.5v-2c2.5-1.6,4.2-4.6,4.2-7.9c0-5.1-3.8-9.2-8.6-9.2s-8.6,4.1-8.6,9.2c0,3.3,1.6,6.1,4,7.8
		v2.2l-5.9,1.6c-1.8,0.5-3.1,2.3-3.1,4.2v2h13.3h2.5h11.1v-2C-155.7,28.6-156.9,26.8-158.6,26.3z M-169.1,7.5c3,0,5.6,2.3,6.3,5.4
		c-0.4,0.2-1.1,0.3-1.8,0.2c-0.6-0.1-1.8-0.4-2.4-1.6c-0.1-0.3-0.4-0.5-0.7-0.5c-0.3,0-0.6,0.1-0.9,0.3c-2,2-5.1,2.1-6.8,1.3
		C-174.5,9.6-172,7.5-169.1,7.5z M-175.6,14.7c0-0.1,0-0.1,0-0.2c2.3,0.8,5.3,0.6,7.6-1.1c0.8,0.9,1.9,1.4,3.2,1.6
		c0.3,0,0.6,0.1,0.9,0.1c0.5,0,1-0.1,1.4-0.2c-0.1,3.9-3,7.1-6.6,7.1C-172.7,22-175.6,18.7-175.6,14.7z M-166.8,30.5h-2.5h-11.3v0
		c0-0.9,0.8-2,1.7-2.2l7.3-1.9v-2.7c0.8,0.3,1.7,0.4,2.6,0.4c0.8,0,1.6-0.1,2.4-0.4v2.7l7.5,1.9c0.8,0.2,1.5,1.3,1.5,2.3H-166.8z"/>
	<path class="st1" d="M-175.2,58.1l-5.7-1.6v-2.2c2.3-1.7,3.8-4.5,3.8-7.7c0-5.1-3.8-9.2-8.6-9.2s-8.6,4.1-8.6,9.2
		c0,3.2,1.5,6,3.8,7.7v2.2l-5.7,1.6c-1.8,0.5-3.1,2.3-3.1,4.2v2.3h12.3h2.5h12.3v-2.3C-172.1,60.4-173.4,58.6-175.2,58.1z
		 M-185.7,39.3c3,0,5.5,2.2,6.3,5.3c-0.5,0.2-1.1,0.3-1.9,0.2c-0.6-0.1-1.7-0.4-2.3-1.5c-0.1-0.3-0.4-0.5-0.7-0.5
		c-0.3,0-0.6,0.1-0.9,0.3c-2,2-5.1,2.1-6.8,1.3C-191.1,41.4-188.6,39.3-185.7,39.3z M-192.2,46.5c0-0.1,0-0.1,0-0.2
		c2.3,0.8,5.3,0.6,7.6-1.1c0.8,0.8,1.8,1.4,3.1,1.6c0.3,0,0.6,0.1,0.8,0.1c0.5,0,1.1-0.1,1.6-0.2c0,4-3,7.2-6.6,7.2
		C-189.3,53.8-192.2,50.5-192.2,46.5z M-174.1,62.5h-10.3h-2.5h-10.3v-0.3c0-0.9,0.8-2,1.7-2.3l7.1-2v-2.7c0.9,0.3,1.8,0.5,2.8,0.5
		c1,0,1.9-0.2,2.8-0.5v2.7l7.1,2c0.9,0.3,1.7,1.3,1.7,2.3V62.5z"/>
	<path class="st1" d="M-198.8,41.4l-6.3-6.3c-0.4-0.4-1-0.4-1.4,0s-0.4,1,0,1.4l6.3,6.3c0.2,0.2,0.5,0.3,0.7,0.3s0.5-0.1,0.7-0.3
		C-198.4,42.4-198.4,41.7-198.8,41.4z"/>
	<path class="st1" d="M-166.2,35.1l-6.3,6.3c-0.4,0.4-0.4,1,0,1.4c0.2,0.2,0.5,0.3,0.7,0.3s0.5-0.1,0.7-0.3l6.3-6.3
		c0.4-0.4,0.4-1,0-1.4S-165.8,34.7-166.2,35.1z"/>
</g>
<g>
	<path class="st0" d="M-112-0.3v70h27.6v-27h-5.1v-9.1h5.1c0,0,0-5.9,0-7.2c0-1.4,0-10.4,11.7-10.4c1.6,0,5.1,0,8.5,0c0,4,0,8,0,9.1
		c-2.6,0-5.1,0-6.3,0c-1.2,0-2.5,1.5-2.5,2.5c0,0.9,0,6.1,0,6.1s7.6,0,8.6,0c-0.3,4.8-1,9.1-1,9.1H-73v27h31v-70H-112z"/>
</g>
<g>
	<path class="st0" d="M0-0.3v70h70v-70H0z M52.7,25.6c0,0.4,0,0.8,0,1.2c0,12-9.2,25.9-25.9,25.9c-5.1,0-9.9-1.5-14-4.1
		c0.7,0.1,1.4,0.1,2.2,0.1c4.3,0,8.2-1.5,11.3-3.9c-4-0.1-7.4-2.7-8.5-6.3c0.6,0.1,1.1,0.2,1.7,0.2c0.8,0,1.6-0.1,2.4-0.3
		c-4.2-0.8-7.3-4.5-7.3-8.9c0,0,0-0.1,0-0.1c1.2,0.7,2.6,1.1,4.1,1.1c-2.4-1.6-4.1-4.4-4.1-7.6c0-1.7,0.4-3.2,1.2-4.6
		c4.5,5.5,11.2,9.1,18.8,9.5c-0.2-0.7-0.2-1.4-0.2-2.1c0-5,4.1-9.1,9.1-9.1c2.6,0,5,1.1,6.7,2.9c2.1-0.4,4-1.2,5.8-2.2
		c-0.7,2.1-2.1,3.9-4,5c1.8-0.2,3.6-0.7,5.2-1.4C56,22.7,54.5,24.3,52.7,25.6z"/>
</g>
<g>
	<path class="st0" d="M128.6,55.6c-1.5-1.5-2.8-2.8-2.8-5.1c0-1.4,0.4-2.6,1-3.8c-0.6,0-1.3,0.1-1.9,0.1c-4.4,0-7.9-1.5-10.5-3.9
		v15.3c3.1-1.6,6.6-2.6,10.6-2.6C126.3,55.7,127.5,55.6,128.6,55.6z"/>
	<path class="st0" d="M136.1,32.7c-0.9-6.9-5.4-12.5-10.6-12.7c-5.2-0.2-8.8,5.1-7.9,12c0.9,6.9,5.9,11.7,11.1,11.9
		C134,44,137,39.6,136.1,32.7z"/>
	<path class="st0" d="M184.5-0.3h-70v22.8c3.4-3.4,8.4-5.7,13.9-5.7c5.1,0,19.5,0,19.5,0l-4.4,4.6h-5.1c3.6,2.3,5.5,6.4,5.5,11
		c0,4.3-2.4,7.8-5.8,10.4c-3.3,2.6-3.9,3.7-3.9,5.8c0,1.9,3.9,4.6,5.7,6c6.3,4.7,7.6,7.7,7.6,13.6c0,0.5,0,1-0.1,1.5h37.1V-0.3z
		 M172,31.3h-9.1v8.8h-4.6v-8.8h-8.8v-4.6h8.8v-9.1h4.6v9.1h9.1V31.3z"/>
	<path class="st0" d="M141.5,69.7c0-0.2,0-0.4,0-0.7c0-0.7-0.1-1.4-0.2-2.1c-0.9-3.4-4.3-5.2-8.5-8.2c-1.5-0.5-3.3-0.8-5.1-0.8
		c-5.7-0.1-10.9,2.6-13.1,6.3v5.4H141.5z"/>
</g>
<polygon class="st1" points="-800.7,145.7 -800.7,145.7 -776.9,121.9 -779.3,119.4 -803.2,143.2 -827,119.4 -829.4,121.9 
	-805.6,145.7 -805.6,145.7 -805.6,145.7 -829.4,169.5 -827,172 -803.2,148.1 -779.3,172 -776.9,169.5 -800.7,145.7 "/>
<g>
	<path class="st1" d="M-684.9,121.9c-15.1-3.1-30.7-3.1-45.8,0c-4,0.8-7.1,4.6-7.1,8.5v3.3c0,3.3,2.7,6,6,6h8c3.3,0,6-2.7,6-6v-1.1
		c6.8-0.6,13.2-0.6,20,0v1.1c0,1.6,0.6,3.1,1.8,4.2c1.1,1.1,2.6,1.8,4.2,1.8l0-1v1h8c3.3,0,6-2.7,6-6v-3.3
		C-677.8,126.4-681,122.7-684.9,121.9z M-679.8,133.8c0,2.2-1.8,4-4,4h-8c-1.1,0-2.1-0.4-2.8-1.2s-1.2-1.8-1.2-2.8v-2
		c0-0.5-0.4-0.9-0.9-1c-3.8-0.4-7.4-0.6-11.1-0.6s-7.3,0.2-11.1,0.6c-0.5,0.1-0.9,0.5-0.9,1v2c0,1.1-0.4,2.1-1.2,2.8
		s-1.8,1.2-2.8,1.2h-8c-2.2,0-4-1.8-4-4v-3.3c0-3,2.5-6,5.5-6.6c14.8-3,30.2-3,45,0c3,0.6,5.5,3.6,5.5,6.6V133.8z"/>
	<path class="st1" d="M-701.8,142.2V138c0-0.6-0.4-1-1-1s-1,0.4-1,1v4.1c-0.1,0-0.2,0-0.3,0h-7.6c-0.1,0-0.1,0-0.2,0V138
		c0-0.6-0.4-1-1-1s-1,0.4-1,1v4.2c-10.3,1.1-18,10-18,21v7.6c0,0.6,0.4,1,1,1h46c0.6,0,1-0.4,1-1v-7.6
		C-683.8,152.1-691.6,143.3-701.8,142.2z M-685.8,169.8h-44v-6.6c0-10.8,8-19.2,18.2-19.2h7.6c10.2,0,18.2,8.4,18.2,19.2V169.8z"/>
	<path class="st1" d="M-707.8,147.8c-5.5,0-10,4.5-10,10s4.5,10,10,10s10-4.5,10-10S-702.3,147.8-707.8,147.8z M-707.8,165.8
		c-4.4,0-8-3.6-8-8s3.6-8,8-8s8,3.6,8,8S-703.4,165.8-707.8,165.8z"/>
</g>
<g>
	<path class="st1" d="M-596.5,118.5l16,10.7v12.5c0,0.6,0.4,1,1,1s1-0.4,1-1v-13c0-0.3-0.2-0.6-0.4-0.8l-18-12c0,0-0.1,0-0.1-0.1
		c0,0-0.1,0-0.1,0c-0.2-0.1-0.5-0.1-0.7,0c0,0-0.1,0-0.1,0c0,0-0.1,0-0.1,0.1l-17.4,11.6l-17.4-11.6c-0.3-0.2-0.7-0.2-1,0
		c-0.3,0.2-0.5,0.5-0.5,0.9v42c0,0.3,0.2,0.6,0.4,0.8l18,12c0,0,0.1,0,0.1,0.1c0,0,0.1,0,0.1,0c0.1,0,0.2,0.1,0.3,0.1
		c0.1,0,0.2,0,0.3-0.1c0,0,0.1,0,0.1,0c0,0,0.1,0,0.1-0.1l15-10c0.5-0.3,0.6-0.9,0.3-1.4c-0.3-0.5-0.9-0.6-1.4-0.3l-13.4,9v-39.6
		l16-10.7v23.1c0,0.6,0.4,1,1,1s1-0.4,1-1V118.5z M-632.5,118.5l16,10.7v39.6l-16-10.7V118.5z"/>
	<path class="st1" d="M-585.5,151.7c-2.8,0-5,2.2-5,5s2.2,5,5,5s5-2.2,5-5S-582.7,151.7-585.5,151.7z M-585.5,159.7
		c-1.7,0-3-1.3-3-3s1.3-3,3-3s3,1.3,3,3S-583.8,159.7-585.5,159.7z"/>
	<path class="st1" d="M-585.5,145.7c-6.1,0-11,4.9-11,11c0,5.8,9.8,18.1,10.2,18.6c0.2,0.2,0.5,0.4,0.8,0.4s0.6-0.1,0.8-0.4
		c0.4-0.5,10.2-12.8,10.2-18.6C-574.5,150.6-579.4,145.7-585.5,145.7z M-585.5,173c-3.1-4-9-12.5-9-16.4c0-5,4-9,9-9s9,4,9,9
		C-576.5,160.5-582.4,169-585.5,173z"/>
</g>
<g>
	<path class="st1" d="M-505.3,116.7c-11,0-20,9-20,20s20,38,20,38s20-27,20-38S-494.3,116.7-505.3,116.7z M-505.3,144.7
		c-4.4,0-8-3.6-8-8c0-4.4,3.6-8,8-8s8,3.6,8,8C-497.3,141.1-500.9,144.7-505.3,144.7z"/>
</g>
</svg>
