<?xml version="1.0" encoding="utf-8"?>
<!-- Generator: Adobe Illustrator 19.1.0, SVG Export Plug-In . SVG Version: 6.00 Build 0)  -->
<svg version="1.1" id="Layer_1" xmlns="http://www.w3.org/2000/svg" xmlns:xlink="http://www.w3.org/1999/xlink" x="0px" y="0px"
	 viewBox="0 0 1900 346.5" style="enable-background:new 0 0 1900 346.5;" xml:space="preserve">
<style type="text/css">
	.st0{fill:#24A0C4;}
	.st1{filter:url(#Adobe_OpacityMaskFilter);}
	.st2{filter:url(#Adobe_OpacityMaskFilter_1_);}
	.st3{mask:url(#SVGID_1_);fill:url(#SVGID_2_);}
	.st4{opacity:0.5;fill:url(#SVGID_3_);}
	.st5{filter:url(#Adobe_OpacityMaskFilter_2_);}
	.st6{filter:url(#Adobe_OpacityMaskFilter_3_);}
	.st7{mask:url(#SVGID_4_);fill:url(#SVGID_5_);}
	.st8{opacity:0.5;fill:url(#SVGID_6_);}
	.st9{filter:url(#Adobe_OpacityMaskFilter_4_);}
	.st10{filter:url(#Adobe_OpacityMaskFilter_5_);}
	.st11{mask:url(#SVGID_7_);fill:url(#SVGID_8_);}
	.st12{opacity:0.5;fill:url(#SVGID_9_);}
	.st13{filter:url(#Adobe_OpacityMaskFilter_6_);}
	.st14{filter:url(#Adobe_OpacityMaskFilter_7_);}
	.st15{mask:url(#SVGID_10_);fill:url(#SVGID_11_);}
	.st16{opacity:0.5;fill:url(#SVGID_12_);}
	.st17{filter:url(#Adobe_OpacityMaskFilter_8_);}
	.st18{filter:url(#Adobe_OpacityMaskFilter_9_);}
	.st19{mask:url(#SVGID_13_);fill:url(#SVGID_14_);}
	.st20{opacity:0.5;fill:url(#SVGID_15_);}
	.st21{filter:url(#Adobe_OpacityMaskFilter_10_);}
	.st22{filter:url(#Adobe_OpacityMaskFilter_11_);}
	.st23{mask:url(#SVGID_16_);fill:url(#SVGID_17_);}
	.st24{opacity:0.5;fill:url(#SVGID_18_);}
	.st25{filter:url(#Adobe_OpacityMaskFilter_12_);}
	.st26{filter:url(#Adobe_OpacityMaskFilter_13_);}
	.st27{mask:url(#SVGID_19_);fill:url(#SVGID_20_);}
	.st28{opacity:0.5;fill:url(#SVGID_21_);}
	.st29{filter:url(#Adobe_OpacityMaskFilter_14_);}
	.st30{filter:url(#Adobe_OpacityMaskFilter_15_);}
	.st31{mask:url(#SVGID_22_);fill:url(#SVGID_23_);}
	.st32{opacity:0.5;fill:url(#SVGID_24_);}
	.st33{fill:#EDEDED;}
	.st34{fill:#C6C6C6;}
	.st35{fill:#878787;}
	.st36{fill:#D3C2A9;}
	.st37{fill:#FCEA10;}
	.st38{fill:#E6007E;}
	.st39{fill:#B2B2B2;}
	.st40{fill:#F39200;}
	.st41{opacity:0.4;fill:#FFFFFF;}
	.st42{filter:url(#Adobe_OpacityMaskFilter_16_);}
	.st43{filter:url(#Adobe_OpacityMaskFilter_17_);}
	.st44{mask:url(#SVGID_25_);fill:url(#SVGID_26_);}
	.st45{opacity:0.5;fill:url(#SVGID_27_);}
	.st46{filter:url(#Adobe_OpacityMaskFilter_18_);}
	.st47{filter:url(#Adobe_OpacityMaskFilter_19_);}
	.st48{mask:url(#SVGID_28_);fill:url(#SVGID_29_);}
	.st49{opacity:0.4;fill:url(#SVGID_30_);}
	.st50{filter:url(#Adobe_OpacityMaskFilter_20_);}
	.st51{filter:url(#Adobe_OpacityMaskFilter_21_);}
	.st52{mask:url(#SVGID_31_);fill:url(#SVGID_32_);}
	.st53{opacity:0.5;fill:url(#SVGID_33_);}
	.st54{filter:url(#Adobe_OpacityMaskFilter_22_);}
	.st55{filter:url(#Adobe_OpacityMaskFilter_23_);}
	.st56{mask:url(#SVGID_34_);fill:url(#SVGID_35_);}
	.st57{opacity:0.5;fill:url(#SVGID_36_);}
	.st58{filter:url(#Adobe_OpacityMaskFilter_24_);}
	.st59{filter:url(#Adobe_OpacityMaskFilter_25_);}
	.st60{mask:url(#SVGID_37_);fill:url(#SVGID_38_);}
	.st61{opacity:0.5;fill:url(#SVGID_39_);}
	.st62{filter:url(#Adobe_OpacityMaskFilter_26_);}
	.st63{filter:url(#Adobe_OpacityMaskFilter_27_);}
	.st64{mask:url(#SVGID_40_);fill:url(#SVGID_41_);}
	.st65{opacity:0.5;fill:url(#SVGID_42_);}
	.st66{filter:url(#Adobe_OpacityMaskFilter_28_);}
	.st67{filter:url(#Adobe_OpacityMaskFilter_29_);}
	.st68{mask:url(#SVGID_43_);fill:url(#SVGID_44_);}
	.st69{opacity:0.5;fill:url(#SVGID_45_);}
	.st70{fill:#2D2E83;}
	.st71{fill:#FFFFFF;}
	.st72{fill:#36A9E1;}
	.st73{fill:#BE1622;}
	.st74{filter:url(#Adobe_OpacityMaskFilter_30_);}
	.st75{filter:url(#Adobe_OpacityMaskFilter_31_);}
	.st76{mask:url(#SVGID_46_);fill:url(#SVGID_47_);}
	.st77{opacity:0.5;fill:url(#SVGID_48_);}
	.st78{fill:#1D1D1B;}
	.st79{fill:#95C11F;}
	.st80{fill:#F9B233;}
	.st81{fill:#3C3C3B;}
	.st82{fill:#727270;}
	.st83{fill:#E30613;}
	.st84{fill:#F6F6F6;}
	.st85{fill:#683C11;}
	.st86{fill:#432918;}
	.st87{fill:#008D36;}
	.st88{filter:url(#Adobe_OpacityMaskFilter_32_);}
	.st89{filter:url(#Adobe_OpacityMaskFilter_33_);}
	.st90{mask:url(#SVGID_49_);fill:url(#SVGID_50_);}
	.st91{opacity:0.5;fill:url(#SVGID_51_);}
	.st92{fill:#FFB88E;}
	.st93{fill:#F26674;}
	.st94{fill:#AD4D5F;}
	.st95{filter:url(#Adobe_OpacityMaskFilter_34_);}
	.st96{filter:url(#Adobe_OpacityMaskFilter_35_);}
	.st97{mask:url(#SVGID_52_);fill:url(#SVGID_53_);}
	.st98{opacity:0.5;fill:url(#SVGID_54_);}
	.st99{fill:#662483;}
	.st100{fill:#E71D73;}
	.st101{fill:#CA9E67;}
	.st102{fill:#575756;}
	.st103{opacity:0.5;}
	.st104{fill:#2FAC66;}
	.st105{fill:#DDA183;}
	.st106{fill:#618D6C;}
	.st107{fill:#DADADA;}
</style>
<g>
	<rect x="-1.8" y="-497.6" class="st0" width="1901.8" height="972.3"/>
	<defs>
		<filter id="Adobe_OpacityMaskFilter" filterUnits="userSpaceOnUse" x="233.8" y="-7" width="724.6" height="258.9">
			<feFlood  style="flood-color:white;flood-opacity:1" result="back"/>
			<feBlend  in="SourceGraphic" in2="back" mode="normal"/>
		</filter>
	</defs>
	<mask maskUnits="userSpaceOnUse" x="233.8" y="-7" width="724.6" height="258.9" id="SVGID_1_">
		<g class="st1">
			<defs>
				<filter id="Adobe_OpacityMaskFilter_1_" filterUnits="userSpaceOnUse" x="233.8" y="-7" width="724.6" height="258.9">
					<feFlood  style="flood-color:white;flood-opacity:1" result="back"/>
					<feBlend  in="SourceGraphic" in2="back" mode="normal"/>
				</filter>
			</defs>
			<mask maskUnits="userSpaceOnUse" x="233.8" y="-7" width="724.6" height="258.9" id="SVGID_1_">
				<g class="st2">
				</g>
			</mask>
			<linearGradient id="SVGID_2_" gradientUnits="userSpaceOnUse" x1="1039.501" y1="362.5131" x2="-302.5185" y2="-389.0171">
				<stop  offset="0" style="stop-color:#000000"/>
				<stop  offset="1" style="stop-color:#FFFFFF"/>
			</linearGradient>
			<path class="st3" d="M817.9,23.4C762.9,4.4,705.8-5.7,655.1-7c0,0-432.5,133.9-421.1,139.9C499.2,272.7,843.6,282,937.7,198.7
				C988.7,153.4,943.9,67.2,817.9,23.4z"/>
		</g>
	</mask>
	<linearGradient id="SVGID_3_" gradientUnits="userSpaceOnUse" x1="1039.501" y1="362.5131" x2="-302.5185" y2="-389.0171">
		<stop  offset="0" style="stop-color:#1D1D1B"/>
		<stop  offset="1" style="stop-color:#000000"/>
	</linearGradient>
	<path class="st4" d="M817.9,23.4C762.9,4.4,705.8-5.7,655.1-7c0,0-432.5,133.9-421.1,139.9C499.2,272.7,843.6,282,937.7,198.7
		C988.7,153.4,943.9,67.2,817.9,23.4z"/>
	<defs>
		<filter id="Adobe_OpacityMaskFilter_2_" filterUnits="userSpaceOnUse" x="334.1" y="182.1" width="458.6" height="257">
			<feFlood  style="flood-color:white;flood-opacity:1" result="back"/>
			<feBlend  in="SourceGraphic" in2="back" mode="normal"/>
		</filter>
	</defs>
	<mask maskUnits="userSpaceOnUse" x="334.1" y="182.1" width="458.6" height="257" id="SVGID_4_">
		<g class="st5">
			<defs>
				<filter id="Adobe_OpacityMaskFilter_3_" filterUnits="userSpaceOnUse" x="334.1" y="182.1" width="458.6" height="257">
					<feFlood  style="flood-color:white;flood-opacity:1" result="back"/>
					<feBlend  in="SourceGraphic" in2="back" mode="normal"/>
				</filter>
			</defs>
			<mask maskUnits="userSpaceOnUse" x="334.1" y="182.1" width="458.6" height="257" id="SVGID_4_">
				<g class="st6">
				</g>
			</mask>
			<linearGradient id="SVGID_5_" gradientUnits="userSpaceOnUse" x1="859.017" y1="449.6374" x2="13.9135" y2="-23.6201">
				<stop  offset="0" style="stop-color:#000000"/>
				<stop  offset="1" style="stop-color:#FFFFFF"/>
			</linearGradient>
			<path class="st7" d="M334.3,336.5c173,88.5,367.5,154.2,442.1,47c37.2-53.4,10-143.5-72.2-201.3
				C696.9,177.1,324.1,331.3,334.3,336.5z"/>
		</g>
	</mask>
	<linearGradient id="SVGID_6_" gradientUnits="userSpaceOnUse" x1="859.017" y1="449.6374" x2="13.9135" y2="-23.6201">
		<stop  offset="0" style="stop-color:#1D1D1B"/>
		<stop  offset="1" style="stop-color:#000000"/>
	</linearGradient>
	<path class="st8" d="M334.3,336.5c173,88.5,367.5,154.2,442.1,47c37.2-53.4,10-143.5-72.2-201.3
		C696.9,177.1,324.1,331.3,334.3,336.5z"/>
	<defs>
		<filter id="Adobe_OpacityMaskFilter_4_" filterUnits="userSpaceOnUse" x="897.9" y="-10" width="96.5" height="92.1">
			<feFlood  style="flood-color:white;flood-opacity:1" result="back"/>
			<feBlend  in="SourceGraphic" in2="back" mode="normal"/>
		</filter>
	</defs>
	<mask maskUnits="userSpaceOnUse" x="897.9" y="-10" width="96.5" height="92.1" id="SVGID_7_">
		<g class="st9">
			<defs>
				<filter id="Adobe_OpacityMaskFilter_5_" filterUnits="userSpaceOnUse" x="897.9" y="-10" width="96.5" height="92.1">
					<feFlood  style="flood-color:white;flood-opacity:1" result="back"/>
					<feBlend  in="SourceGraphic" in2="back" mode="normal"/>
				</filter>
			</defs>
			<mask maskUnits="userSpaceOnUse" x="897.9" y="-10" width="96.5" height="92.1" id="SVGID_7_">
				<g class="st10">
				</g>
			</mask>
			<linearGradient id="SVGID_8_" gradientUnits="userSpaceOnUse" x1="1009.0937" y1="77.2916" x2="824.3435" y2="-26.1684">
				<stop  offset="0" style="stop-color:#000000"/>
				<stop  offset="1" style="stop-color:#FFFFFF"/>
			</linearGradient>
			<path class="st11" d="M963.8,0.5C952.1-6.1,940-9.5,929.3-10c0,0-31.7,76.3-31.4,76.5c28.2,13.1,75.4,29.2,93.2-3.7
				C1000.1,46.1,990.5,15.5,963.8,0.5z"/>
		</g>
	</mask>
	<linearGradient id="SVGID_9_" gradientUnits="userSpaceOnUse" x1="1009.0937" y1="77.2916" x2="824.3435" y2="-26.1684">
		<stop  offset="0" style="stop-color:#1D1D1B"/>
		<stop  offset="1" style="stop-color:#000000"/>
	</linearGradient>
	<path class="st12" d="M963.8,0.5C952.1-6.1,940-9.5,929.3-10c0,0-31.7,76.3-31.4,76.5c28.2,13.1,75.4,29.2,93.2-3.7
		C1000.1,46.1,990.5,15.5,963.8,0.5z"/>
	<defs>
		<filter id="Adobe_OpacityMaskFilter_6_" filterUnits="userSpaceOnUse" x="368.9" y="-299.1" width="215.7" height="157.9">
			<feFlood  style="flood-color:white;flood-opacity:1" result="back"/>
			<feBlend  in="SourceGraphic" in2="back" mode="normal"/>
		</filter>
	</defs>
	<mask maskUnits="userSpaceOnUse" x="368.9" y="-299.1" width="215.7" height="157.9" id="SVGID_10_">
		<g class="st13">
			<defs>
				<filter id="Adobe_OpacityMaskFilter_7_" filterUnits="userSpaceOnUse" x="368.9" y="-299.1" width="215.7" height="157.9">
					<feFlood  style="flood-color:white;flood-opacity:1" result="back"/>
					<feBlend  in="SourceGraphic" in2="back" mode="normal"/>
				</filter>
			</defs>
			<mask maskUnits="userSpaceOnUse" x="368.9" y="-299.1" width="215.7" height="157.9" id="SVGID_10_">
				<g class="st14">
				</g>
			</mask>
			<linearGradient id="SVGID_11_" gradientUnits="userSpaceOnUse" x1="608.772" y1="-138.7665" x2="238.8785" y2="-345.9067">
				<stop  offset="0" style="stop-color:#000000"/>
				<stop  offset="1" style="stop-color:#FFFFFF"/>
			</linearGradient>
			<path class="st15" d="M536.7-281.9c-19-10.7-38.8-16.4-56.4-17.1c0,0-111.9,128.5-111.4,128.7c70.2,35.4,173.7,44.3,208.4-5.6
				C594.9-201.4,580.3-257.3,536.7-281.9z"/>
		</g>
	</mask>
	<linearGradient id="SVGID_12_" gradientUnits="userSpaceOnUse" x1="608.772" y1="-138.7665" x2="238.8785" y2="-345.9067">
		<stop  offset="0" style="stop-color:#1D1D1B"/>
		<stop  offset="1" style="stop-color:#000000"/>
	</linearGradient>
	<path class="st16" d="M536.7-281.9c-19-10.7-38.8-16.4-56.4-17.1c0,0-111.9,128.5-111.4,128.7c70.2,35.4,173.7,44.3,208.4-5.6
		C594.9-201.4,580.3-257.3,536.7-281.9z"/>
	<defs>
		<filter id="Adobe_OpacityMaskFilter_8_" filterUnits="userSpaceOnUse" x="341.2" y="-270.6" width="149" height="165.1">
			<feFlood  style="flood-color:white;flood-opacity:1" result="back"/>
			<feBlend  in="SourceGraphic" in2="back" mode="normal"/>
		</filter>
	</defs>
	<mask maskUnits="userSpaceOnUse" x="341.2" y="-270.6" width="149" height="165.1" id="SVGID_13_">
		<g class="st17">
			<defs>
				<filter id="Adobe_OpacityMaskFilter_9_" filterUnits="userSpaceOnUse" x="341.2" y="-270.6" width="149" height="165.1">
					<feFlood  style="flood-color:white;flood-opacity:1" result="back"/>
					<feBlend  in="SourceGraphic" in2="back" mode="normal"/>
				</filter>
			</defs>
			<mask maskUnits="userSpaceOnUse" x="341.2" y="-270.6" width="149" height="165.1" id="SVGID_13_">
				<g class="st18">
				</g>
			</mask>
			<linearGradient id="SVGID_14_" gradientUnits="userSpaceOnUse" x1="514.1271" y1="-112.019" x2="172.4411" y2="-303.363">
				<stop  offset="0" style="stop-color:#000000"/>
				<stop  offset="1" style="stop-color:#FFFFFF"/>
			</linearGradient>
			<path class="st19" d="M436.8-250.5c-21.2-11-52.2-19.4-71.8-20.1c0,0-46.1,160-10,163.6c53.5,5.4,103.9-3.7,127-34.4
				C501.7-167.6,485.5-225.2,436.8-250.5z"/>
		</g>
	</mask>
	<linearGradient id="SVGID_15_" gradientUnits="userSpaceOnUse" x1="514.1271" y1="-112.019" x2="172.4411" y2="-303.363">
		<stop  offset="0" style="stop-color:#1D1D1B"/>
		<stop  offset="1" style="stop-color:#000000"/>
	</linearGradient>
	<path class="st20" d="M436.8-250.5c-21.2-11-52.2-19.4-71.8-20.1c0,0-46.1,160-10,163.6c53.5,5.4,103.9-3.7,127-34.4
		C501.7-167.6,485.5-225.2,436.8-250.5z"/>
	<defs>
		<filter id="Adobe_OpacityMaskFilter_10_" filterUnits="userSpaceOnUse" x="128.3" y="-333.4" width="99.4" height="92">
			<feFlood  style="flood-color:white;flood-opacity:1" result="back"/>
			<feBlend  in="SourceGraphic" in2="back" mode="normal"/>
		</filter>
	</defs>
	<mask maskUnits="userSpaceOnUse" x="128.3" y="-333.4" width="99.4" height="92" id="SVGID_16_">
		<g class="st21">
			<defs>
				<filter id="Adobe_OpacityMaskFilter_11_" filterUnits="userSpaceOnUse" x="128.3" y="-333.4" width="99.4" height="92">
					<feFlood  style="flood-color:white;flood-opacity:1" result="back"/>
					<feBlend  in="SourceGraphic" in2="back" mode="normal"/>
				</filter>
			</defs>
			<mask maskUnits="userSpaceOnUse" x="128.3" y="-333.4" width="99.4" height="92" id="SVGID_16_">
				<g class="st22">
				</g>
			</mask>
			<linearGradient id="SVGID_17_" gradientUnits="userSpaceOnUse" x1="241.7557" y1="-243.1947" x2="40.3993" y2="-355.9542">
				<stop  offset="0" style="stop-color:#000000"/>
				<stop  offset="1" style="stop-color:#FFFFFF"/>
			</linearGradient>
			<path class="st23" d="M200.1-322.5c-8.1-4.5-16.9-7.9-26.1-9.2c-3.7-0.6-7.5-0.8-11.2-1.4c-3.7-0.5-7.9-0.7-10.9,1.8
				c-3,2.5-4.3,6.1-5.8,9.5c-1.7,3.9-3.6,7.6-5.3,11.5c-2,4.5-3.7,8.7-5,13.5c-1.3,4.7-3.7,9-5.3,13.5c-1.4,3.8-1.3,6.6-0.9,10.5
				c0.4,3.5-0.7,6.2-1,9.4c-0.7,6.8,0.5,13.7,7.3,16.9c7,3.3,16.4,3.8,24.1,4.6c21.5,2.1,50,0.1,63.6-19.4
				C233.7-276.1,225.3-308.3,200.1-322.5z"/>
		</g>
	</mask>
	<linearGradient id="SVGID_18_" gradientUnits="userSpaceOnUse" x1="241.7557" y1="-243.1947" x2="40.3993" y2="-355.9542">
		<stop  offset="0" style="stop-color:#1D1D1B"/>
		<stop  offset="1" style="stop-color:#000000"/>
	</linearGradient>
	<path class="st24" d="M200.1-322.5c-8.1-4.5-16.9-7.9-26.1-9.2c-3.7-0.6-7.5-0.8-11.2-1.4c-3.7-0.5-7.9-0.7-10.9,1.8
		c-3,2.5-4.3,6.1-5.8,9.5c-1.7,3.9-3.6,7.6-5.3,11.5c-2,4.5-3.7,8.7-5,13.5c-1.3,4.7-3.7,9-5.3,13.5c-1.4,3.8-1.3,6.6-0.9,10.5
		c0.4,3.5-0.7,6.2-1,9.4c-0.7,6.8,0.5,13.7,7.3,16.9c7,3.3,16.4,3.8,24.1,4.6c21.5,2.1,50,0.1,63.6-19.4
		C233.7-276.1,225.3-308.3,200.1-322.5z"/>
	<defs>
		<filter id="Adobe_OpacityMaskFilter_12_" filterUnits="userSpaceOnUse" x="118.2" y="-212.7" width="223.5" height="184.2">
			<feFlood  style="flood-color:white;flood-opacity:1" result="back"/>
			<feBlend  in="SourceGraphic" in2="back" mode="normal"/>
		</filter>
	</defs>
	<mask maskUnits="userSpaceOnUse" x="118.2" y="-212.7" width="223.5" height="184.2" id="SVGID_19_">
		<g class="st25">
			<defs>
				<filter id="Adobe_OpacityMaskFilter_13_" filterUnits="userSpaceOnUse" x="118.2" y="-212.7" width="223.5" height="184.2">
					<feFlood  style="flood-color:white;flood-opacity:1" result="back"/>
					<feBlend  in="SourceGraphic" in2="back" mode="normal"/>
				</filter>
			</defs>
			<mask maskUnits="userSpaceOnUse" x="118.2" y="-212.7" width="223.5" height="184.2" id="SVGID_19_">
				<g class="st26">
				</g>
			</mask>
			<linearGradient id="SVGID_20_" gradientUnits="userSpaceOnUse" x1="383.756" y1="-16.2019" x2="-152.7729" y2="-316.6578">
				<stop  offset="0" style="stop-color:#000000"/>
				<stop  offset="1" style="stop-color:#FFFFFF"/>
			</linearGradient>
			<path class="st27" d="M293.7-169.3c-19-10.7-32.9-20.9-77.9-34.3c0,0-57.9-16.1-97.6-5.5c0,0,7.4,151.2,7.7,151.4
				c70.2,35.4,173.7,44.3,208.4-5.6C352-88.8,337.4-144.7,293.7-169.3z"/>
		</g>
	</mask>
	<linearGradient id="SVGID_21_" gradientUnits="userSpaceOnUse" x1="383.756" y1="-16.2019" x2="-152.7729" y2="-316.6578">
		<stop  offset="0" style="stop-color:#1D1D1B"/>
		<stop  offset="1" style="stop-color:#000000"/>
	</linearGradient>
	<path class="st28" d="M293.7-169.3c-19-10.7-32.9-20.9-77.9-34.3c0,0-57.9-16.1-97.6-5.5c0,0,7.4,151.2,7.7,151.4
		c70.2,35.4,173.7,44.3,208.4-5.6C352-88.8,337.4-144.7,293.7-169.3z"/>
	<defs>
		<filter id="Adobe_OpacityMaskFilter_14_" filterUnits="userSpaceOnUse" x="77.4" y="128.9" width="234.3" height="219.2">
			<feFlood  style="flood-color:white;flood-opacity:1" result="back"/>
			<feBlend  in="SourceGraphic" in2="back" mode="normal"/>
		</filter>
	</defs>
	<mask maskUnits="userSpaceOnUse" x="77.4" y="128.9" width="234.3" height="219.2" id="SVGID_22_">
		<g class="st29">
			<defs>
				<filter id="Adobe_OpacityMaskFilter_15_" filterUnits="userSpaceOnUse" x="77.4" y="128.9" width="234.3" height="219.2">
					<feFlood  style="flood-color:white;flood-opacity:1" result="back"/>
					<feBlend  in="SourceGraphic" in2="back" mode="normal"/>
				</filter>
			</defs>
			<mask maskUnits="userSpaceOnUse" x="77.4" y="128.9" width="234.3" height="219.2" id="SVGID_22_">
				<g class="st30">
				</g>
			</mask>
			<linearGradient id="SVGID_23_" gradientUnits="userSpaceOnUse" x1="363.3494" y1="353.8652" x2="-228.1803" y2="22.6089">
				<stop  offset="0" style="stop-color:#000000"/>
				<stop  offset="1" style="stop-color:#FFFFFF"/>
			</linearGradient>
			<path class="st31" d="M264,190.8c-88.6-67.1-169.1-61-186.6-61.8c0,0,8.6,180.6,9.1,180.8c78,46.1,183.4,56,218.1,0
				C322.3,281.2,306,222.6,264,190.8z"/>
		</g>
	</mask>
	<linearGradient id="SVGID_24_" gradientUnits="userSpaceOnUse" x1="363.3494" y1="353.8652" x2="-228.1803" y2="22.6089">
		<stop  offset="0" style="stop-color:#1D1D1B"/>
		<stop  offset="1" style="stop-color:#000000"/>
	</linearGradient>
	<path class="st32" d="M264,190.8c-88.6-67.1-169.1-61-186.6-61.8c0,0,8.6,180.6,9.1,180.8c78,46.1,183.4,56,218.1,0
		C322.3,281.2,306,222.6,264,190.8z"/>
	<g>
		<g>
			<polygon class="st33" points="343.3,-86.3 438.9,-141.1 364.8,-270.3 269.2,-215.6 			"/>
			<polygon class="st34" points="291.3,-186 378.5,-236 377.3,-238 290.1,-188 			"/>
			<polygon class="st35" points="285.7,-196.5 373,-246.4 371.8,-248.5 284.5,-198.5 			"/>
			<polygon class="st34" points="294.4,-180.5 381.7,-230.5 380.5,-232.6 293.2,-182.6 			"/>
			<polygon class="st34" points="297.6,-175.1 384.8,-225.1 383.6,-227.1 296.4,-177.1 			"/>
			<polygon class="st34" points="335.3,-189.4 388,-219.6 386.8,-221.6 334.1,-191.5 			"/>
			<polygon class="st34" points="303.9,-164.2 391.1,-214.1 389.9,-216.2 302.7,-166.2 			"/>
			<polygon class="st34" points="307,-158.7 394.3,-208.7 393.1,-210.7 305.8,-160.7 			"/>
			<polygon class="st34" points="310.2,-153.2 397.4,-203.2 396.2,-205.2 309,-155.3 			"/>
			<polygon class="st34" points="313.3,-147.8 400.6,-197.7 399.4,-199.8 312.1,-149.8 			"/>
			<polygon class="st34" points="316.5,-142.3 371.2,-173.6 370,-175.7 315.3,-144.3 			"/>
			<polygon class="st34" points="334.2,-145.2 406.9,-186.8 405.7,-188.9 333,-147.2 			"/>
			<polygon class="st34" points="322.8,-131.4 410,-181.3 408.8,-183.4 321.6,-133.4 			"/>
			<polygon class="st34" points="325.9,-125.9 413.2,-175.9 412,-177.9 324.8,-128 			"/>
			<polygon class="st34" points="329.1,-120.5 416.3,-170.4 415.2,-172.5 327.9,-122.5 			"/>
			<polygon class="st34" points="361.8,-131.9 419.5,-165 418.3,-167 360.6,-134 			"/>
			<polygon class="st34" points="335.4,-109.5 422.6,-159.5 421.5,-161.6 334.2,-111.6 			"/>
			<polygon class="st34" points="338.2,-104.6 416.7,-149.6 415.7,-151.3 337.3,-106.3 			"/>
			<polygon class="st34" points="341.7,-98.6 428.9,-148.6 427.8,-150.6 340.5,-100.6 			"/>
		</g>
		<polygon class="st36" points="365.2,-168.8 473.6,-148.8 500.5,-295.3 392.2,-315.3 		"/>
	</g>
	<g>
		<path class="st37" d="M134.9-246.6c8,3.1,15.4,0,18.5-7.9l23.1-59.2c2.8-7.2-1.8-15.8-10.3-19.1c-8.5-3.3-17.7-0.1-20.5,7.1
			l-19,48.8l2.6,1l19-48.8c2.3-5.9,9.9-8.6,17-5.8c7.1,2.7,10.9,9.8,8.6,15.8l-23.1,59.2c-1.9,4.9-6.9,9.6-14.7,6.8l0,0
			c-4.5-1.8-10.1-5.4-5.9-16.2l18-46.2c1.9-4.9,7-7.4,11.3-5.7c4.4,1.7,6.4,7,4.5,11.9l-14.5,37.3l2.6,1l14.5-37.3
			c2.4-6.2-0.4-13-6.2-15.3c-5.8-2.3-12.5,0.9-14.9,7l-18,46.2C124-256.6,126.5-250.1,134.9-246.6L134.9-246.6z"/>
	</g>
	<g>
		<path class="st38" d="M251.4-161.5c2.6,8.2,9.7,12,17.8,9.4l60.6-19.1c7.4-2.3,11.2-11.3,8.4-20c-2.7-8.7-11-13.9-18.4-11.5
			L269.9-187l0.8,2.7l49.9-15.8c6.1-1.9,12.9,2.4,15.2,9.6c2.3,7.2-0.8,14.7-6.9,16.6l-60.6,19.1c-5,1.6-11.8,0.6-14.5-7.2h0
			c-1.5-4.6-2.1-11.2,8.9-14.7l47.3-14.9c5-1.6,10.2,0.8,11.6,5.3c1.4,4.5-1.5,9.4-6.5,11L277-163.3l0.8,2.7l38.2-12
			c6.3-2,9.9-8.4,8-14.4c-1.9-6-8.5-9.2-14.8-7.2l-47.3,14.9C252.3-176.3,248.8-170.3,251.4-161.5L251.4-161.5z"/>
	</g>
	<g>
		<g>
			<polygon class="st39" points="838.9,40 922.3,76.4 956,-0.7 872.6,-37.1 			"/>
			<polygon class="st40" points="828,35.6 911.4,72 945.6,-6.3 862.2,-42.8 			"/>
			<g>
				<path class="st39" d="M854.5,16.2c0,18.9,15.3,34.1,34.2,34.1c18.9,0,34.2-15.3,34.2-34.1c0-18.9-15.3-34.2-34.2-34.2
					C869.8-18,854.5-2.7,854.5,16.2z M858.9,16.2c0-16.4,13.3-29.8,29.7-29.8c16.4,0,29.7,13.3,29.7,29.8
					c0,16.4-13.3,29.7-29.7,29.7C872.3,45.9,858.9,32.6,858.9,16.2z"/>
				<path class="st35" d="M858.9,16.2c0,16.4,13.3,29.7,29.7,29.7c16.4,0,29.7-13.3,29.7-29.7c0-16.4-13.3-29.8-29.7-29.8
					C872.3-13.5,858.9-0.2,858.9,16.2z M878.6,16.2c0-5.7,4.6-10.3,10.2-10.3c5.7,0,10.3,4.6,10.3,10.3c0,5.6-4.6,10.2-10.3,10.2
					C883.2,26.4,878.6,21.9,878.6,16.2z"/>
				<path class="st39" d="M878.6,16.2c0,5.6,4.6,10.2,10.2,10.2c5.7,0,10.3-4.6,10.3-10.2c0-5.7-4.6-10.3-10.3-10.3
					C883.2,6,878.6,10.5,878.6,16.2z M879.9,16.2c0-4.9,3.9-8.8,8.8-8.8c4.8,0,8.8,3.9,8.8,8.8c0,4.8-3.9,8.8-8.8,8.8
					C883.8,25,879.9,21,879.9,16.2z"/>
			</g>
		</g>
		<polygon class="st41" points="894.1,-28.9 893,63.8 879.3,57.6 876.8,-36.3 		"/>
		<polygon class="st41" points="870.7,-39.2 868,53.5 863.7,51.3 862.2,-42.8 		"/>
	</g>
	<defs>
		<filter id="Adobe_OpacityMaskFilter_16_" filterUnits="userSpaceOnUse" x="895.8" y="-130.1" width="135.7" height="139.7">
			<feFlood  style="flood-color:white;flood-opacity:1" result="back"/>
			<feBlend  in="SourceGraphic" in2="back" mode="normal"/>
		</filter>
	</defs>
	<mask maskUnits="userSpaceOnUse" x="895.8" y="-130.1" width="135.7" height="139.7" id="SVGID_25_">
		<g class="st42">
			<defs>
				<filter id="Adobe_OpacityMaskFilter_17_" filterUnits="userSpaceOnUse" x="895.8" y="-130.1" width="135.7" height="139.7">
					<feFlood  style="flood-color:white;flood-opacity:1" result="back"/>
					<feBlend  in="SourceGraphic" in2="back" mode="normal"/>
				</filter>
			</defs>
			<mask maskUnits="userSpaceOnUse" x="895.8" y="-130.1" width="135.7" height="139.7" id="SVGID_25_">
				<g class="st43">
				</g>
			</mask>
			<linearGradient id="SVGID_26_" gradientUnits="userSpaceOnUse" x1="1050.7089" y1="0.5775" x2="795.2549" y2="-142.4766">
				<stop  offset="0" style="stop-color:#000000"/>
				<stop  offset="1" style="stop-color:#FFFFFF"/>
			</linearGradient>
			<path class="st44" d="M995.6-107.6c-17.1-12.8-39.7-20.7-49.6-22.5c0,0-50.7,122.1-50.2,122.3c40.6,18.1,106.6,31.4,128.7-9.3
				C1039-43.7,1031.8-80.6,995.6-107.6z"/>
		</g>
	</mask>
	<linearGradient id="SVGID_27_" gradientUnits="userSpaceOnUse" x1="1050.7089" y1="0.5775" x2="795.2549" y2="-142.4766">
		<stop  offset="0" style="stop-color:#1D1D1B"/>
		<stop  offset="1" style="stop-color:#000000"/>
	</linearGradient>
	<path class="st45" d="M995.6-107.6c-17.1-12.8-39.7-20.7-49.6-22.5c0,0-50.7,122.1-50.2,122.3c40.6,18.1,106.6,31.4,128.7-9.3
		C1039-43.7,1031.8-80.6,995.6-107.6z"/>
	<defs>
		<filter id="Adobe_OpacityMaskFilter_18_" filterUnits="userSpaceOnUse" x="1387.2" y="328.1" width="219.7" height="96.7">
			<feFlood  style="flood-color:white;flood-opacity:1" result="back"/>
			<feBlend  in="SourceGraphic" in2="back" mode="normal"/>
		</filter>
	</defs>
	<mask maskUnits="userSpaceOnUse" x="1387.2" y="328.1" width="219.7" height="96.7" id="SVGID_28_">
		<g class="st46">
			<defs>
				<filter id="Adobe_OpacityMaskFilter_19_" filterUnits="userSpaceOnUse" x="1387.2" y="328.1" width="219.7" height="96.7">
					<feFlood  style="flood-color:white;flood-opacity:1" result="back"/>
					<feBlend  in="SourceGraphic" in2="back" mode="normal"/>
				</filter>
			</defs>
			<mask maskUnits="userSpaceOnUse" x="1387.2" y="328.1" width="219.7" height="96.7" id="SVGID_28_">
				<g class="st47">
				</g>
			</mask>
			<linearGradient id="SVGID_29_" gradientUnits="userSpaceOnUse" x1="1647.4048" y1="439.2522" x2="1188.9847" y2="182.5372">
				<stop  offset="0" style="stop-color:#000000"/>
				<stop  offset="1" style="stop-color:#FFFFFF"/>
			</linearGradient>
			<path class="st48" d="M1577.9,335.1c-3.7-2.8-7.9-6.3-12.5-6.8c-4.2-0.5-8.4,1-12.6,1.1c-5.5,0-11.2,0.1-16.5,0.4
				c-11.2,0.6-22,2.1-33,2c-12.1-0.1-24.4,0.3-36.6,0.8c-13,0.5-63.8-0.8-76.8-0.8c-6.7,0,1.6,19.8,3.5,27.1
				c2.9,11.1,77.7,44.5,92.6,51.3c34.2,15.7,97.3,24.6,114.9-3.3C1613.6,386.5,1606.6,356.4,1577.9,335.1z"/>
		</g>
	</mask>
	<linearGradient id="SVGID_30_" gradientUnits="userSpaceOnUse" x1="1647.4048" y1="439.2522" x2="1188.9847" y2="182.5372">
		<stop  offset="0" style="stop-color:#1D1D1B"/>
		<stop  offset="1" style="stop-color:#000000"/>
	</linearGradient>
	<path class="st49" d="M1577.9,335.1c-3.7-2.8-7.9-6.3-12.5-6.8c-4.2-0.5-8.4,1-12.6,1.1c-5.5,0-11.2,0.1-16.5,0.4
		c-11.2,0.6-22,2.1-33,2c-12.1-0.1-24.4,0.3-36.6,0.8c-13,0.5-63.8-0.8-76.8-0.8c-6.7,0,1.6,19.8,3.5,27.1
		c2.9,11.1,77.7,44.5,92.6,51.3c34.2,15.7,97.3,24.6,114.9-3.3C1613.6,386.5,1606.6,356.4,1577.9,335.1z"/>
	<defs>
		<filter id="Adobe_OpacityMaskFilter_20_" filterUnits="userSpaceOnUse" x="1173.2" y="183.6" width="263.7" height="159.2">
			<feFlood  style="flood-color:white;flood-opacity:1" result="back"/>
			<feBlend  in="SourceGraphic" in2="back" mode="normal"/>
		</filter>
	</defs>
	<mask maskUnits="userSpaceOnUse" x="1173.2" y="183.6" width="263.7" height="159.2" id="SVGID_31_">
		<g class="st50">
			<defs>
				<filter id="Adobe_OpacityMaskFilter_21_" filterUnits="userSpaceOnUse" x="1173.2" y="183.6" width="263.7" height="159.2">
					<feFlood  style="flood-color:white;flood-opacity:1" result="back"/>
					<feBlend  in="SourceGraphic" in2="back" mode="normal"/>
				</filter>
			</defs>
			<mask maskUnits="userSpaceOnUse" x="1173.2" y="183.6" width="263.7" height="159.2" id="SVGID_31_">
				<g class="st51">
				</g>
			</mask>
			<linearGradient id="SVGID_32_" gradientUnits="userSpaceOnUse" x1="1468.3461" y1="357.9259" x2="996.5729" y2="93.7332">
				<stop  offset="0" style="stop-color:#000000"/>
				<stop  offset="1" style="stop-color:#FFFFFF"/>
			</linearGradient>
			<path class="st52" d="M1392.7,209.4c-19.6-14.6-45.3-23.6-56.6-25.7c0,0-178,110.3-161.9,116.9c47,19.4,191.5,77.2,251.6,12.2
				C1449.3,287.3,1434.1,240.1,1392.7,209.4z"/>
		</g>
	</mask>
	<linearGradient id="SVGID_33_" gradientUnits="userSpaceOnUse" x1="1468.3461" y1="357.9259" x2="996.5729" y2="93.7332">
		<stop  offset="0" style="stop-color:#1D1D1B"/>
		<stop  offset="1" style="stop-color:#000000"/>
	</linearGradient>
	<path class="st53" d="M1392.7,209.4c-19.6-14.6-45.3-23.6-56.6-25.7c0,0-178,110.3-161.9,116.9c47,19.4,191.5,77.2,251.6,12.2
		C1449.3,287.3,1434.1,240.1,1392.7,209.4z"/>
	<defs>
		<filter id="Adobe_OpacityMaskFilter_22_" filterUnits="userSpaceOnUse" x="1651.7" y="18.2" width="224.6" height="201.8">
			<feFlood  style="flood-color:white;flood-opacity:1" result="back"/>
			<feBlend  in="SourceGraphic" in2="back" mode="normal"/>
		</filter>
	</defs>
	<mask maskUnits="userSpaceOnUse" x="1651.7" y="18.2" width="224.6" height="201.8" id="SVGID_34_">
		<g class="st54">
			<defs>
				<filter id="Adobe_OpacityMaskFilter_23_" filterUnits="userSpaceOnUse" x="1651.7" y="18.2" width="224.6" height="201.8">
					<feFlood  style="flood-color:white;flood-opacity:1" result="back"/>
					<feBlend  in="SourceGraphic" in2="back" mode="normal"/>
				</filter>
			</defs>
			<mask maskUnits="userSpaceOnUse" x="1651.7" y="18.2" width="224.6" height="201.8" id="SVGID_34_">
				<g class="st55">
				</g>
			</mask>
			<linearGradient id="SVGID_35_" gradientUnits="userSpaceOnUse" x1="1914.0709" y1="221.6843" x2="1403.9255" y2="-63.9969">
				<stop  offset="0" style="stop-color:#000000"/>
				<stop  offset="1" style="stop-color:#FFFFFF"/>
			</linearGradient>
			<path class="st56" d="M1821.2,53.3c-24.5-18.2-56.6-29.5-70.8-32.2c0,0-72.5-16.1-94.6,27.4c-2.6,5.1,5.7,25.3,2.1,30.6
				c-20.4,30,15,47.1,16.6,66.5c3.2,38-4.1,63.2,14.1,66.8c65,13,134.1,12.9,173.8-30C1891.8,150.7,1872.8,91.7,1821.2,53.3z"/>
		</g>
	</mask>
	<linearGradient id="SVGID_36_" gradientUnits="userSpaceOnUse" x1="1914.0709" y1="221.6843" x2="1403.9255" y2="-63.9969">
		<stop  offset="0" style="stop-color:#1D1D1B"/>
		<stop  offset="1" style="stop-color:#000000"/>
	</linearGradient>
	<path class="st57" d="M1821.2,53.3c-24.5-18.2-56.6-29.5-70.8-32.2c0,0-72.5-16.1-94.6,27.4c-2.6,5.1,5.7,25.3,2.1,30.6
		c-20.4,30,15,47.1,16.6,66.5c3.2,38-4.1,63.2,14.1,66.8c65,13,134.1,12.9,173.8-30C1891.8,150.7,1872.8,91.7,1821.2,53.3z"/>
	<defs>
		<filter id="Adobe_OpacityMaskFilter_24_" filterUnits="userSpaceOnUse" x="1087.7" y="325.8" width="230.8" height="139.3">
			<feFlood  style="flood-color:white;flood-opacity:1" result="back"/>
			<feBlend  in="SourceGraphic" in2="back" mode="normal"/>
		</filter>
	</defs>
	<mask maskUnits="userSpaceOnUse" x="1087.7" y="325.8" width="230.8" height="139.3" id="SVGID_37_">
		<g class="st58">
			<defs>
				<filter id="Adobe_OpacityMaskFilter_25_" filterUnits="userSpaceOnUse" x="1087.7" y="325.8" width="230.8" height="139.3">
					<feFlood  style="flood-color:white;flood-opacity:1" result="back"/>
					<feBlend  in="SourceGraphic" in2="back" mode="normal"/>
				</filter>
			</defs>
			<mask maskUnits="userSpaceOnUse" x="1087.7" y="325.8" width="230.8" height="139.3" id="SVGID_37_">
				<g class="st59">
				</g>
			</mask>
			<linearGradient id="SVGID_38_" gradientUnits="userSpaceOnUse" x1="1346.0809" y1="478.3305" x2="933.1212" y2="247.0733">
				<stop  offset="0" style="stop-color:#000000"/>
				<stop  offset="1" style="stop-color:#FFFFFF"/>
			</linearGradient>
			<path class="st60" d="M1279.9,348.3c-17.1-12.7-39.7-20.6-49.6-22.5c0,0-155.8,96.5-141.7,102.4c41.1,16.9,167.6,67.6,220.2,10.6
				C1329.4,416.5,1316.1,375.2,1279.9,348.3z"/>
		</g>
	</mask>
	<linearGradient id="SVGID_39_" gradientUnits="userSpaceOnUse" x1="1346.0809" y1="478.3305" x2="933.1212" y2="247.0733">
		<stop  offset="0" style="stop-color:#1D1D1B"/>
		<stop  offset="1" style="stop-color:#000000"/>
	</linearGradient>
	<path class="st61" d="M1279.9,348.3c-17.1-12.7-39.7-20.6-49.6-22.5c0,0-155.8,96.5-141.7,102.4c41.1,16.9,167.6,67.6,220.2,10.6
		C1329.4,416.5,1316.1,375.2,1279.9,348.3z"/>
	<defs>
		<filter id="Adobe_OpacityMaskFilter_26_" filterUnits="userSpaceOnUse" x="1250.6" y="396.5" width="132" height="78.2">
			<feFlood  style="flood-color:white;flood-opacity:1" result="back"/>
			<feBlend  in="SourceGraphic" in2="back" mode="normal"/>
		</filter>
	</defs>
	<mask maskUnits="userSpaceOnUse" x="1250.6" y="396.5" width="132" height="78.2" id="SVGID_40_">
		<g class="st62">
			<defs>
				<filter id="Adobe_OpacityMaskFilter_27_" filterUnits="userSpaceOnUse" x="1250.6" y="396.5" width="132" height="78.2">
					<feFlood  style="flood-color:white;flood-opacity:1" result="back"/>
					<feBlend  in="SourceGraphic" in2="back" mode="normal"/>
				</filter>
			</defs>
			<mask maskUnits="userSpaceOnUse" x="1250.6" y="396.5" width="132" height="78.2" id="SVGID_40_">
				<g class="st63">
				</g>
			</mask>
			<linearGradient id="SVGID_41_" gradientUnits="userSpaceOnUse" x1="1403.0037" y1="505.3706" x2="1137.2106" y2="356.5266">
				<stop  offset="0" style="stop-color:#000000"/>
				<stop  offset="1" style="stop-color:#FFFFFF"/>
			</linearGradient>
			<path class="st64" d="M1382.7,474.8h-132c0.7-3.5,1.4-7,2.1-10.6c1.4-7,2.8-14.1,4.6-21.1c1.3-4.8,2.6-9.7,4.3-14.3
				c1.1-3,2.4-5.8,4-8.6c0.4-0.8,0.9-1.5,1.4-2.3c0.8-1.3,1.7-2.9,2.5-4.4l0.1-0.2c1-1.7,2.1-3.3,3.6-4.5c3-2.2,6.8-2.8,10.1-4.8
				c1.9-1.1,9.7-7.9,12-7.5c2.1,0.4,4.9,1.1,8,2.1l0.1,0c0.4,0.1,0.8,0.3,1.2,0.4l0.1,0.1c3.9,1.2,8.4,2.8,13.1,4.9
				c8.9,3.8,18.6,8.8,27,15.1C1366.1,434.9,1379.5,455.8,1382.7,474.8z"/>
		</g>
	</mask>
	<linearGradient id="SVGID_42_" gradientUnits="userSpaceOnUse" x1="1403.0037" y1="505.3706" x2="1137.2106" y2="356.5266">
		<stop  offset="0" style="stop-color:#1D1D1B"/>
		<stop  offset="1" style="stop-color:#000000"/>
	</linearGradient>
	<path class="st65" d="M1382.7,474.8h-132c0.7-3.5,1.4-7,2.1-10.6c1.4-7,2.8-14.1,4.6-21.1c1.3-4.8,2.6-9.7,4.3-14.3
		c1.1-3,2.4-5.8,4-8.6c0.4-0.8,0.9-1.5,1.4-2.3c0.8-1.3,1.7-2.9,2.5-4.4l0.1-0.2c1-1.7,2.1-3.3,3.6-4.5c3-2.2,6.8-2.8,10.1-4.8
		c1.9-1.1,9.7-7.9,12-7.5c2.1,0.4,4.9,1.1,8,2.1l0.1,0c0.4,0.1,0.8,0.3,1.2,0.4l0.1,0.1c3.9,1.2,8.4,2.8,13.1,4.9
		c8.9,3.8,18.6,8.8,27,15.1C1366.1,434.9,1379.5,455.8,1382.7,474.8z"/>
	<defs>
		<filter id="Adobe_OpacityMaskFilter_28_" filterUnits="userSpaceOnUse" x="828.5" y="149.8" width="203.1" height="165.9">
			<feFlood  style="flood-color:white;flood-opacity:1" result="back"/>
			<feBlend  in="SourceGraphic" in2="back" mode="normal"/>
		</filter>
	</defs>
	<mask maskUnits="userSpaceOnUse" x="828.5" y="149.8" width="203.1" height="165.9" id="SVGID_43_">
		<g class="st66">
			<defs>
				<filter id="Adobe_OpacityMaskFilter_29_" filterUnits="userSpaceOnUse" x="828.5" y="149.8" width="203.1" height="165.9">
					<feFlood  style="flood-color:white;flood-opacity:1" result="back"/>
					<feBlend  in="SourceGraphic" in2="back" mode="normal"/>
				</filter>
			</defs>
			<mask maskUnits="userSpaceOnUse" x="828.5" y="149.8" width="203.1" height="165.9" id="SVGID_43_">
				<g class="st67">
				</g>
			</mask>
			<linearGradient id="SVGID_44_" gradientUnits="userSpaceOnUse" x1="1058.3967" y1="311.2642" x2="702.535" y2="111.9819">
				<stop  offset="0" style="stop-color:#000000"/>
				<stop  offset="1" style="stop-color:#FFFFFF"/>
			</linearGradient>
			<path class="st68" d="M988.8,176.7c-20.4-15.2-47.2-24.6-59-26.8c0,0-101.9,129.2-101.3,129.5c74.6,41.1,168.5,53.4,194.8,5
				C1040.5,252.7,1031.9,208.7,988.8,176.7z"/>
		</g>
	</mask>
	<linearGradient id="SVGID_45_" gradientUnits="userSpaceOnUse" x1="1058.3967" y1="311.2642" x2="702.535" y2="111.9819">
		<stop  offset="0" style="stop-color:#1D1D1B"/>
		<stop  offset="1" style="stop-color:#000000"/>
	</linearGradient>
	<path class="st69" d="M988.8,176.7c-20.4-15.2-47.2-24.6-59-26.8c0,0-101.9,129.2-101.3,129.5c74.6,41.1,168.5,53.4,194.8,5
		C1040.5,252.7,1031.9,208.7,988.8,176.7z"/>
	<g>
		<g>
			<polygon class="st39" points="867,-95.2 892.2,-7.7 973,-31 947.8,-118.4 			"/>
			<polygon class="st38" points="863.4,-106.4 888.6,-18.9 970.7,-42.6 945.5,-130 			"/>
			<g>
				<path class="st39" d="M895.3-98.3c-14.5,12-16.5,33.6-4.5,48.1c12,14.5,33.6,16.5,48.1,4.5c14.5-12.1,16.5-33.6,4.5-48.1
					C931.3-108.3,909.8-110.3,895.3-98.3z M898.1-94.9c12.7-10.5,31.4-8.7,41.9,3.9c10.5,12.6,8.7,31.4-3.9,41.9
					c-12.6,10.5-31.4,8.7-41.9-3.9C883.7-65.7,885.4-84.4,898.1-94.9z"/>
				<path class="st35" d="M898.1-94.9c-12.6,10.5-14.4,29.2-3.9,41.9c10.5,12.6,29.2,14.4,41.9,3.9c12.7-10.5,14.4-29.2,3.9-41.9
					C929.5-103.6,910.7-105.4,898.1-94.9z M910.6-79.8c4.4-3.6,10.8-3,14.4,1.3c3.6,4.4,3,10.8-1.4,14.5c-4.3,3.6-10.8,3-14.4-1.4
					C905.7-69.7,906.3-76.2,910.6-79.8z"/>
				<path class="st39" d="M910.6-79.8c-4.3,3.6-4.9,10.1-1.3,14.4c3.6,4.4,10.1,5,14.4,1.4c4.4-3.6,5-10.1,1.4-14.5
					C921.4-82.8,915-83.4,910.6-79.8z M911.5-78.7c3.7-3.1,9.3-2.6,12.4,1.1c3.1,3.7,2.6,9.3-1.2,12.4c-3.7,3.1-9.2,2.6-12.3-1.2
					C907.2-70.1,907.7-75.7,911.5-78.7z"/>
			</g>
		</g>
		<polygon class="st41" points="955.2,-96.7 883.2,-38.3 879.2,-52.8 949.9,-114.6 		"/>
		<polygon class="st41" points="948.2,-121.2 875.2,-64.1 874.1,-68.8 945.5,-130 		"/>
	</g>
	<g>
		<g>
			<polygon class="st70" points="118.2,-209.1 44.4,-70.9 229.3,27.8 303,-110.5 			"/>
			<polygon class="st71" points="153.2,-174.5 292,-100.5 237.1,2.4 98.3,-71.6 			"/>
			<path class="st72" d="M118.2-209.1L44.4-70.9l184.9,98.6c11.1-20.8,22.2-41.7,33.4-62.5c4.6-8.7,9.2-17.3,13.8-25.9
				c1.5-2.8,3.3-5.6,4.5-8.5c2.9-7.3-1.3-10.9-7.5-14.2c-6.9-3.7-45.8-24.5-57.2-31.5c-14.3-8.8,10.7-26.4,7.4-35.5
				c-1.1-3-6.6-5.9-9.3-7.4c-4.2-2.2-8.3-4.4-12.5-6.6c-17.6-9.4-35.2-18.8-52.9-28.2C138.8-198.1,128.5-203.6,118.2-209.1z"/>
		</g>
		<polygon class="st71" points="149.4,-145.5 108.2,-68.2 149.9,-45.9 191.2,-123.2 		"/>
	</g>
	<path class="st73" d="M18.4,237.7c-2.7,5.8-0.2,12.7,5.6,15.4l139.1,64.8c5.8,2.7,12.7,0.2,15.4-5.6l48.3-103.7
		c2.7-5.8,0.2-12.7-5.6-15.4L82,128.5c-5.8-2.7-12.7-0.2-15.4,5.6L18.4,237.7z"/>
	<g>
		<path class="st71" d="M274.7,284.2c3.3,0,6.6-0.4,9.9-1.4l57.9-6.3l-0.4-3.5l-58.2,6.3c-19.4,5.5-40-7.5-46.1-28.9l-16.7-58.6
			l-3.4,1l16.7,58.6C240.1,271.1,257,284.2,274.7,284.2z"/>
	</g>
	<g>
		<path class="st71" d="M237.4,261.7l3.4-1L224,202.1c-6.6-23.3-31-36.9-54.3-30.2l-58.6,16.7c-23.3,6.6-36.8,31-30.2,54.3l3.4-1
			c-6.1-21.4,6.3-43.8,27.8-49.9l58.6-16.7c21.4-6.1,43.8,6.3,49.9,27.8L237.4,261.7z"/>
	</g>
	<g>
		<path class="st71" d="M1248.5,223.7l-3.2-95.4c-0.5-14.1-8.2-27.1-21.5-36.6c-13.2-9.4-30.4-14.1-48.5-13.5l-95.8,3.5
			c-18.1,0.7-34.9,6.7-47.4,17c-12.6,10.4-19.3,24-18.7,38.1l2.7,73.4l3.5-0.1l-2.7-73.4c-0.5-13,5.7-25.5,17.5-35.2
			c11.9-9.8,28-15.6,45.3-16.2l95.8-3.6c17.3-0.6,33.8,3.9,46.4,12.8c12.4,8.8,19.5,20.8,20,33.9l3.2,94.4L1248.5,223.7z"/>
	</g>
	<defs>
		<filter id="Adobe_OpacityMaskFilter_30_" filterUnits="userSpaceOnUse" x="87.2" y="8.8" width="137.5" height="128.1">
			<feFlood  style="flood-color:white;flood-opacity:1" result="back"/>
			<feBlend  in="SourceGraphic" in2="back" mode="normal"/>
		</filter>
	</defs>
	<mask maskUnits="userSpaceOnUse" x="87.2" y="8.8" width="137.5" height="128.1" id="SVGID_46_">
		<g class="st74">
			<defs>
				<filter id="Adobe_OpacityMaskFilter_31_" filterUnits="userSpaceOnUse" x="87.2" y="8.8" width="137.5" height="128.1">
					<feFlood  style="flood-color:white;flood-opacity:1" result="back"/>
					<feBlend  in="SourceGraphic" in2="back" mode="normal"/>
				</filter>
			</defs>
			<mask maskUnits="userSpaceOnUse" x="87.2" y="8.8" width="137.5" height="128.1" id="SVGID_46_">
				<g class="st75">
				</g>
			</mask>
			<linearGradient id="SVGID_47_" gradientUnits="userSpaceOnUse" x1="252.0047" y1="134.4939" x2="-47.0579" y2="-32.981">
				<stop  offset="0" style="stop-color:#000000"/>
				<stop  offset="1" style="stop-color:#FFFFFF"/>
			</linearGradient>
			<path class="st76" d="M169.3,25.5c-18.6-10.5-38-16-55.1-16.7c0,0-27.4,95.8-26.9,96c42.7,24,107.6,51.9,132.5,12
				C235.7,91.1,211.9,49.6,169.3,25.5z"/>
		</g>
	</mask>
	<linearGradient id="SVGID_48_" gradientUnits="userSpaceOnUse" x1="252.0047" y1="134.4939" x2="-47.0579" y2="-32.981">
		<stop  offset="0" style="stop-color:#1D1D1B"/>
		<stop  offset="1" style="stop-color:#000000"/>
	</linearGradient>
	<path class="st77" d="M169.3,25.5c-18.6-10.5-38-16-55.1-16.7c0,0-27.4,95.8-26.9,96c42.7,24,107.6,51.9,132.5,12
		C235.7,91.1,211.9,49.6,169.3,25.5z"/>
	<g>
		<path class="st71" d="M836.7,376.3c7.6,1.9,15.8,2.9,24.3,2.5l95.8-3.5c18.1-0.7,34.9-6.7,47.4-17c12.6-10.4,19.3-23.9,18.7-38.1
			l-3.5-110.1l-3.5,0.1l3.5,110.2c0.5,13-5.7,25.5-17.5,35.2c-11.9,9.8-28,15.6-45.3,16.2l-95.8,3.6c-35.6,1.3-65.4-19.6-66.4-46.7
			l-1-30.4l-3.5,0.1l1,30.4C791.8,351.2,810.7,369.7,836.7,376.3z"/>
	</g>
	<g>
		<path class="st71" d="M789.9,303.5l3.2,1.6c1.2-8.2-7.2-203.4-7.8-211.4c-2.7-38-46-26.9-67.4-26.1L599.2,85l0.5,3.5l118.6-17.4
			c20.3-0.7,60-11.4,63.8,23.7C782.8,101.7,791.2,295,789.9,303.5z"/>
	</g>
	<g>
		<path class="st71" d="M1303.2,108.5c5-1.4,10.3-2.1,16-2.1l62.5,0.8c12,0.1,23.2,3.9,31.6,10.5c8.5,6.7,13.2,15.6,13,25l-0.6,47.9
			l-3.5-0.1l0.6-47.9c0.1-8.3-4-16.2-11.7-22.2c-7.8-6.1-18.2-9.6-29.4-9.7l-62.5-0.8c-22.9-0.3-41.7,13.6-41.9,30.9l-0.6,47.9
			l-3.5-0.1l0.6-47.9C1273.8,125.9,1286.1,113.2,1303.2,108.5z"/>
	</g>
	<g>
		<path class="st71" d="M1900,229.8l-433.4-0.7c-11.6,1.4-22.3-1.8-30.3-9c-6.9-6.2-10.7-14.6-10.6-23l0.6-47.9l-3.5,0l-0.6,47.9
			c-0.1,9.4,4.2,18.8,11.8,25.6c8.7,7.9,20.4,11.3,33.1,9.8l433,0.7V229.8z"/>
	</g>
	<g>
		<polygon class="st78" points="334.6,334.5 712,328.3 703.3,183.5 335.1,188.8 		"/>
		<polygon class="st35" points="347.9,215.3 379.3,214.7 378.6,202.7 348,203.1 		"/>
		<g>
			<polygon class="st35" points="388.8,214.6 405.3,214.4 404.9,202.3 388.8,202.5 			"/>
			<polygon class="st35" points="414.7,214.3 431.2,214 430.8,202 414.7,202.2 			"/>
			<polygon class="st35" points="440.6,214 457.1,213.7 456.7,201.7 440.6,201.9 			"/>
			<polygon class="st35" points="466.5,213.6 483,213.4 482.6,201.3 466.5,201.5 			"/>
			<polygon class="st35" points="492.4,213.3 508.9,213 508.5,201 492.5,201.2 			"/>
			<polygon class="st35" points="518.3,213 534.8,212.7 534.5,200.7 518.4,200.9 			"/>
			<polygon class="st35" points="544.2,212.7 560.7,212.4 560.4,200.3 544.3,200.5 			"/>
			<polygon class="st35" points="570.1,212.3 586.6,212.1 586.3,200 570.2,200.2 			"/>
			<polygon class="st35" points="596,212 612.6,211.7 612.2,199.7 596.1,199.9 			"/>
			<polygon class="st35" points="621.9,211.7 638.4,211.4 638.1,199.3 622,199.5 			"/>
			<polygon class="st35" points="647.8,211.3 664.4,211.1 664,199 647.9,199.2 			"/>
			<polygon class="st35" points="673.7,211 690.3,210.7 689.9,198.7 673.8,198.9 			"/>
		</g>
		<g>
			<polygon class="st35" points="348.9,240.5 365.4,240.2 365.1,228.2 348.9,228.4 			"/>
			<polygon class="st35" points="374,240.2 390.5,240 390.1,227.9 374,228.1 			"/>
			<polygon class="st35" points="399,240 415.6,239.7 415.2,227.7 399.1,227.9 			"/>
			<polygon class="st35" points="424.1,239.7 440.6,239.4 440.2,227.4 424.2,227.6 			"/>
			<polygon class="st35" points="449.2,239.4 465.7,239.2 465.3,227.1 449.2,227.3 			"/>
			<polygon class="st35" points="474.2,239.2 490.8,238.9 490.4,226.8 474.3,227.1 			"/>
			<polygon class="st35" points="499.3,238.9 515.8,238.6 515.5,226.6 499.3,226.8 			"/>
			<polygon class="st35" points="524.4,238.6 540.9,238.4 540.5,226.3 524.4,226.5 			"/>
			<polygon class="st35" points="549.4,238.4 566,238.1 565.6,226.1 549.5,226.3 			"/>
			<polygon class="st35" points="574.5,238.1 591,237.8 590.7,225.8 574.6,226 			"/>
			<polygon class="st35" points="599.6,237.8 616.1,237.6 615.7,225.5 599.6,225.7 			"/>
			<polygon class="st35" points="624.7,237.6 641.2,237.3 640.8,225.2 624.7,225.5 			"/>
			<polygon class="st35" points="649.7,237.3 666.2,237 665.9,225 649.8,225.2 			"/>
			<polygon class="st35" points="674.8,237.1 691.3,236.8 691,224.7 674.8,224.9 			"/>
		</g>
		<g>
			<polygon class="st35" points="348.5,257.2 365,256.9 364.7,244.9 348.6,245.1 			"/>
			<polygon class="st35" points="373.6,256.9 390.1,256.6 389.7,244.6 373.6,244.8 			"/>
			<polygon class="st35" points="398.6,256.6 415.2,256.4 414.8,244.3 398.7,244.5 			"/>
			<polygon class="st35" points="423.7,256.4 440.2,256.1 439.9,244.1 423.8,244.3 			"/>
			<polygon class="st35" points="448.8,256.1 465.3,255.8 464.9,243.8 448.8,244 			"/>
			<polygon class="st35" points="473.8,255.8 490.4,255.6 490,243.5 473.9,243.7 			"/>
			<polygon class="st35" points="498.9,255.6 515.4,255.3 515.1,243.2 499,243.5 			"/>
			<polygon class="st35" points="524,255.3 540.5,255.1 540.2,243 524,243.2 			"/>
			<polygon class="st35" points="549.1,255.1 565.6,254.8 565.2,242.7 549.1,243 			"/>
			<polygon class="st35" points="574.1,254.8 590.7,254.5 590.3,242.5 574.2,242.7 			"/>
			<polygon class="st35" points="599.2,254.5 615.7,254.2 615.4,242.2 599.2,242.4 			"/>
			<polygon class="st35" points="624.3,254.3 640.8,254 640.4,241.9 624.3,242.1 			"/>
			<polygon class="st35" points="649.3,254 665.9,253.7 665.5,241.7 649.4,241.9 			"/>
			<polygon class="st35" points="674.4,253.7 690.9,253.5 690.6,241.4 674.5,241.6 			"/>
		</g>
		<g>
			<polygon class="st35" points="348.8,274.3 365.3,274 364.9,262 348.8,262.2 			"/>
			<polygon class="st35" points="373.9,274 390.4,273.7 390,261.7 373.9,261.9 			"/>
			<polygon class="st35" points="398.9,273.7 415.4,273.5 415.1,261.4 399,261.6 			"/>
			<polygon class="st35" points="424,273.5 440.5,273.2 440.1,261.1 424,261.4 			"/>
			<polygon class="st35" points="449,273.2 465.6,272.9 465.2,260.9 449.1,261.1 			"/>
			<polygon class="st35" points="474.1,272.9 490.6,272.7 490.3,260.6 474.2,260.8 			"/>
			<polygon class="st35" points="499.2,272.7 515.7,272.4 515.4,260.3 499.2,260.6 			"/>
			<polygon class="st35" points="524.3,272.4 540.8,272.1 540.4,260.1 524.3,260.3 			"/>
			<polygon class="st35" points="549.3,272.1 565.9,271.9 565.5,259.8 549.4,260 			"/>
			<polygon class="st35" points="574.4,271.9 590.9,271.6 590.6,259.6 574.5,259.8 			"/>
			<polygon class="st35" points="599.5,271.6 616,271.3 615.6,259.3 599.5,259.5 			"/>
			<polygon class="st35" points="624.6,271.3 641.1,271.1 640.7,259 624.6,259.2 			"/>
		</g>
		<g>
			<polygon class="st35" points="348.5,291.9 365.1,291.6 364.7,279.5 348.6,279.8 			"/>
			<polygon class="st35" points="373.6,291.6 390.1,291.3 389.8,279.3 373.7,279.5 			"/>
			<polygon class="st35" points="398.7,291.4 415.2,291.1 414.8,279 398.7,279.3 			"/>
			<polygon class="st35" points="423.8,291.1 440.3,290.8 439.9,278.8 423.8,279 			"/>
			<polygon class="st35" points="448.8,290.8 465.3,290.5 465,278.5 448.9,278.7 			"/>
			<polygon class="st35" points="473.9,290.6 490.4,290.3 490,278.2 473.9,278.4 			"/>
			<polygon class="st35" points="499,290.3 515.5,290 515.1,278 499,278.2 			"/>
			<polygon class="st35" points="524,290 540.6,289.8 540.2,277.7 524.1,277.9 			"/>
			<polygon class="st35" points="549.1,289.8 565.6,289.5 565.3,277.4 549.1,277.7 			"/>
			<polygon class="st35" points="574.2,289.5 590.7,289.2 590.3,277.2 574.2,277.4 			"/>
			<polygon class="st35" points="599.2,289.2 615.8,288.9 615.4,276.9 599.3,277.1 			"/>
		</g>
		<g>
			<polygon class="st35" points="347.9,310.5 364.4,310.2 364,298.2 347.9,298.4 			"/>
			<polygon class="st35" points="373,310.2 389.5,310 389.1,297.9 373,298.1 			"/>
			<polygon class="st35" points="398,309.9 565,308.1 564.6,296.1 398.1,297.9 			"/>
			<polygon class="st35" points="573.5,308.1 590,307.8 589.7,295.8 573.5,296 			"/>
			<polygon class="st35" points="598.6,307.8 615.1,307.6 614.7,295.5 598.6,295.7 			"/>
		</g>
		<polygon class="st35" points="691.2,260.2 649.2,261.1 649.9,277 623.9,277.2 624.1,307.6 692.7,307.1 		"/>
		<path class="st79" d="M685.5,190.9c0.4,2.3-1.7,4.4-4.5,4.7c-2.9,0.3-5.5-1.4-5.8-3.7c-0.4-2.3,1.7-4.4,4.5-4.7
			C682.6,186.9,685.2,188.6,685.5,190.9z"/>
		<path class="st80" d="M669.5,191.3c0.4,2.3-1.7,4.5-4.5,4.7c-2.9,0.3-5.5-1.4-5.8-3.7c-0.4-2.3,1.7-4.5,4.5-4.7
			C666.6,187.3,669.2,189,669.5,191.3z"/>
		<path class="st80" d="M653.8,191.7c0.3,2.3-1.7,4.4-4.5,4.7c-2.9,0.3-5.5-1.4-5.8-3.7c-0.4-2.3,1.7-4.5,4.5-4.7
			C650.8,187.7,653.4,189.4,653.8,191.7z"/>
	</g>
	<polygon class="st71" points="327.9,284.6 334.9,284.3 335.4,265.8 328.2,266.3 	"/>
	<g>
		<path class="st81" d="M63.5,297.7l-4.9-32.9c-4.7-15.1,2.7-30.7,16.5-36.2l0-0.1c0.2,0,0.4-0.1,0.6-0.1c0.2-0.1,0.3-0.2,0.5-0.3
			l0,0.2c14.4-3.3,29.4,5.3,34.1,20.4l14.8,29.8c4.7,15.1-8.2,28.9-22.5,34.1l0,0.1c-0.2,0-0.4,0.1-0.6,0.1
			c-0.2,0.1-0.4,0.2-0.5,0.2l0,0C86.7,316.8,68.2,312.8,63.5,297.7z"/>
		<path class="st33" d="M87.4,260.1l-8.6-27.7c11.2-2.3,22.6,4.4,26.3,16l2.6,5.4L87.4,260.1z"/>
		<path class="st33" d="M83.5,261.3l-8.6-27.7c-10.5,4.4-16.1,16.5-12.5,28.1l0.9,5.9L83.5,261.3z"/>
	</g>
	<g>
		<path class="st82" d="M1169.6,292.6c0.1,4.2,3.6,7.5,7.7,7.4l161-4.3c4.1-0.1,7.4-3.6,7.3-7.8l-2.6-97.5c-0.1-4.2-3.5-7.4-7.7-7.4
			l-161,4.3c-4.1,0.1-7.4,3.6-7.3,7.8L1169.6,292.6z"/>
		<path class="st81" d="M1174.1,286.6c2.8-2.3,79.6-3.9,81.8-4c41.1-1.9,82.3-2.8,85.4-0.5c5.6,4.1,5.9,13.3-3,13.6
			c0,0-31.2,0.8-66,1.7c-3.9,0.5-8.4,0.8-13.5,0.9c-40.4,0.8-81.1,1.6-81.1,1.6C1168.8,300.2,1168.7,291,1174.1,286.6z"/>
		<g>
			<polygon class="st78" points="1333.3,201.5 1337.2,201.4 1336.8,186.1 1332.9,186.2 			"/>
			<polygon class="st78" points="1334,220.9 1337.9,220.8 1337.5,205.5 1333.6,205.6 			"/>
			<polygon class="st78" points="1334.8,240.3 1338.7,240.2 1338.3,224.9 1334.3,225 			"/>
			<polygon class="st78" points="1335.5,259.6 1339.4,259.5 1339,244.3 1335.1,244.3 			"/>
			<polygon class="st78" points="1336.3,279 1340.2,278.9 1339.7,263.6 1335.9,263.7 			"/>
		</g>
		<g>
			<polygon class="st78" points="1172.5,207.3 1176.4,207.2 1176,192.2 1172,192.2 			"/>
			<polygon class="st78" points="1173.2,226.4 1177.1,226.3 1176.7,211.3 1172.8,211.3 			"/>
			<polygon class="st78" points="1174,245.5 1177.9,245.4 1177.4,230.4 1173.5,230.4 			"/>
			<polygon class="st78" points="1174.7,264.6 1178.6,264.5 1178.2,249.5 1174.3,249.5 			"/>
			<polygon class="st78" points="1175.5,283.7 1179.4,283.6 1178.9,268.5 1175,268.6 			"/>
		</g>
		<g>
			<path class="st81" d="M1299,208c-1.2,7.4,3.9,14.4,11.3,15.6c7.4,1.2,14.4-3.8,15.6-11.3c1.2-7.5-3.9-14.5-11.3-15.6
				C1307.2,195.5,1300.3,200.5,1299,208z"/>
			<path class="st78" d="M1305.6,206.7c-0.6,3.9,2.1,7.7,6,8.3c3.9,0.7,7.7-2,8.3-6c0.7-4-2.1-7.7-6-8.3
				C1310,200,1306.3,202.7,1305.6,206.7z"/>
		</g>
		<path class="st37" d="M1318.3,289.5c0,1.4,3.2,2.5,7,2.4c3.8-0.1,6.9-1.3,6.9-2.7c0-1.4-3.1-2.5-7-2.4
			C1321.3,286.9,1318.2,288.1,1318.3,289.5z"/>
		<path class="st37" d="M1299.5,290.2c0,1.4,3.2,2.5,7,2.4c3.8-0.1,6.9-1.3,6.9-2.7c0-1.4-3.2-2.5-7-2.4
			C1302.5,287.5,1299.4,288.7,1299.5,290.2z"/>
		<path class="st37" d="M1280.7,290.8c0,1.4,3.1,2.5,6.9,2.4c3.8-0.1,6.9-1.3,6.9-2.7c0-1.4-3.2-2.5-7-2.5
			C1283.7,288.2,1280.6,289.3,1280.7,290.8z"/>
		<path class="st83" d="M1188.5,292.2c0,1.4,3.1,2.5,6.9,2.4c3.8-0.1,6.9-1.3,6.9-2.7c0-1.4-3.1-2.5-7-2.4
			C1191.5,289.6,1188.5,290.8,1188.5,292.2z"/>
		<polygon class="st84" points="1264.3,186.1 1286.8,185.8 1286.7,177.4 1264.1,177.7 		"/>
		<polygon class="st84" points="1233.1,186.1 1255.7,185.8 1255.6,177.4 1233,177.7 		"/>
		<polygon class="st78" points="1175.7,187.3 1198.3,187 1198.1,178.6 1175.6,178.9 		"/>
	</g>
	<g>
		<g>
			<g>
				<path class="st71" d="M75.1,23c-20,20.1-19.9,52.6,0.2,72.6c20.1,20,52.6,19.9,72.6-0.2c20-20.1,19.9-52.6-0.2-72.6
					C127.6,2.8,95.1,2.9,75.1,23z"/>
				<path class="st34" d="M77.8,26.1C59.4,44.6,59.5,74.3,78,92.6c18.4,18.3,48.2,18.2,66.5-0.2c18.3-18.4,18.2-48.2-0.2-66.5
					C125.9,7.6,96.1,7.7,77.8,26.1z"/>
				<path class="st85" d="M81,31.6c-16.5,16.6-16.4,43.5,0.1,60c16.6,16.5,43.5,16.4,60-0.2c16.5-16.6,16.4-43.4-0.2-60
					C124.4,14.9,97.5,15,81,31.6z"/>
				<path class="st86" d="M70.3,70c17.5,18.1,48.3,19.1,66.3,1l0.6-0.6c7-7,11.4-15.9,13.1-25.1c6.3,15.3,3.3,33.6-9.1,46.1
					c-16.5,16.6-43.3,16.7-60,0.2c-6.4-6.4-10.3-14.4-11.7-22.6C69.8,69.2,70,69.6,70.3,70z"/>
			</g>
		</g>
		
			<rect x="54.4" y="9.7" transform="matrix(-0.7092 -0.705 0.705 -0.7092 101.2005 73.9234)" class="st71" width="22.8" height="12.8"/>
	</g>
	<g>
		<rect x="828.5" y="150.3" class="st71" width="111.7" height="129.1"/>
		<rect x="836.2" y="159.9" class="st78" width="96.3" height="73.2"/>
		<g>
			<polygon class="st80" points="843.7,234.1 842.4,229.3 948.2,63.6 962.4,71.8 858.8,234.1 			"/>
			<polygon class="st73" points="853.9,234.1 958.9,69.8 962.4,71.8 858.8,234.1 			"/>
			<polygon class="st73" points="844.4,234.1 842.4,229.2 948.1,63.5 952.6,66.1 845.3,234.1 			"/>
		</g>
		<g>
			<polygon class="st87" points="852.6,234.1 987.4,91.4 999.8,102.2 875.1,234.1 			"/>
			<polygon class="st79" points="869.5,234.1 996.6,99.5 999.8,102.2 875.1,234.1 			"/>
			<polygon class="st79" points="852.4,234.1 987.2,91.3 991.2,94.7 859.4,234.1 			"/>
		</g>
	</g>
	<defs>
		<filter id="Adobe_OpacityMaskFilter_32_" filterUnits="userSpaceOnUse" x="400.4" y="220.9" width="196.9" height="253.9">
			<feFlood  style="flood-color:white;flood-opacity:1" result="back"/>
			<feBlend  in="SourceGraphic" in2="back" mode="normal"/>
		</filter>
	</defs>
	<mask maskUnits="userSpaceOnUse" x="400.4" y="220.9" width="196.9" height="253.9" id="SVGID_49_">
		<g class="st88">
			<defs>
				<filter id="Adobe_OpacityMaskFilter_33_" filterUnits="userSpaceOnUse" x="400.4" y="220.9" width="196.9" height="253.9">
					<feFlood  style="flood-color:white;flood-opacity:1" result="back"/>
					<feBlend  in="SourceGraphic" in2="back" mode="normal"/>
				</filter>
			</defs>
			<mask maskUnits="userSpaceOnUse" x="400.4" y="220.9" width="196.9" height="253.9" id="SVGID_49_">
				<g class="st89">
				</g>
			</mask>
			<linearGradient id="SVGID_50_" gradientUnits="userSpaceOnUse" x1="702.7694" y1="497.2527" x2="224.952" y2="229.6752">
				<stop  offset="0" style="stop-color:#000000"/>
				<stop  offset="1" style="stop-color:#FFFFFF"/>
			</linearGradient>
			<path class="st90" d="M595.6,449.8c-1.3,8.8-3.2,17.2-6,24.9H401.2c0-1-0.1-2.1-0.1-3.1c-1-20-1.2-38.9,0.6-57.7
				c0.2-2.5,0.5-4.9,0.8-7.4c1.6-13,4.2-26.1,8.2-39.4c4.5-14.9,9.3-29.7,14.5-44.2c3.2-8.8,7-17,11-25.1l0-0.1
				c1.3-2.6,2.5-5.2,3.9-7.8l0-0.1c1.1-2.2,2.2-4.5,3.3-6.8c5.4-11.1,9.3-23.2,13.1-35c1.4-4.4,5.6-29.1,13.9-27.2
				c0.6,0.1,1.3,0.5,2,0.9C543.1,271.8,608.7,358.3,595.6,449.8z"/>
		</g>
	</mask>
	<linearGradient id="SVGID_51_" gradientUnits="userSpaceOnUse" x1="702.7694" y1="497.2527" x2="224.952" y2="229.6752">
		<stop  offset="0" style="stop-color:#1D1D1B"/>
		<stop  offset="1" style="stop-color:#000000"/>
	</linearGradient>
	<path class="st91" d="M595.6,449.8c-1.3,8.8-3.2,17.2-6,24.9H401.2c0-1-0.1-2.1-0.1-3.1c-1-20-1.2-38.9,0.6-57.7
		c0.2-2.5,0.5-4.9,0.8-7.4c1.6-13,4.2-26.1,8.2-39.4c4.5-14.9,9.3-29.7,14.5-44.2c3.2-8.8,7-17,11-25.1l0-0.1
		c1.3-2.6,2.5-5.2,3.9-7.8l0-0.1c1.1-2.2,2.2-4.5,3.3-6.8c5.4-11.1,9.3-23.2,13.1-35c1.4-4.4,5.6-29.1,13.9-27.2
		c0.6,0.1,1.3,0.5,2,0.9C543.1,271.8,608.7,358.3,595.6,449.8z"/>
	<g>
		<g>
			<g>
				<path class="st92" d="M489.6,287.9c-18.7-10.9-27.3,21-27.3,21c-0.2,1.2-1.4,3.7-2.7,6.3c-0.2-6.6,0.6-13.2,1.6-19.8l13-61.5
					c1.5-6.8-1.2-13.1-7.1-14.4c-5.9-1.2-11.7,3.6-13.2,10.8l-16.5,71.4c-0.6-0.1-1,0-1.7-0.2L446,218c0.7-5.8-3.6-11.2-9.6-12
					l-0.3,0c-6-0.8-11.5,3.4-12.2,9.2l-9,77.1c-0.6,0.1-1.2,0.2-1.8,0.4l1.2-63.3c0.2-5.9-4.6-10.9-10.7-11.1l-0.3,0
					c-6.1-0.3-11.1,4.3-11.4,10.2l-0.1,68.5c-0.4,0.1-0.7,0.2-1.1,0.2l-4.9-37.1c-0.8-5.8-6.3-10-12.3-9.3l-0.4,0
					c-6,0.7-10.3,6-9.5,11.8l5.1,38.8c0,0.1-0.1,0.1-0.1,0.3c0.1,4.3,2,21.6,2.1,31.4c0,0.4,0.6,7.6,0.6,8.1
					c0.1,3.9,0.7,8.7,1.1,12.6c0.4,3.6,11.2,17.2,20.9,26.3c3.8,3.5-7.3,29-4.7,30.7c2.8,1.9,27.2,5.9,30.3,6.9
					c2.7,0.9,3.8-34,7.4-34.6c4.8-0.7,16.7-4.1,21.6-8c6.3-5,18.9-22.5,18.9-22.5c0-0.2,0-0.4,0-0.6c0.1,0,0.1-0.1,0.1-0.1l9.8-27.5
					c2.8-1.6,4.8-5.2,5.3-8.2c0.3-1.6-0.1-3.8-0.3-5.8L489.6,287.9z"/>
				<path class="st92" d="M467,219.5C467.1,219.5,467.1,219.5,467,219.5c0.1,0,0.1,0,0.2,0L467,219.5z"/>
			</g>
		</g>
		<polygon class="st93" points="441.9,413.8 430.8,474.8 359.6,474.8 372.9,401.2 389.2,404.2 402.5,406.6 417.7,409.4 417.7,409.4 
			421.1,410 		"/>
		<polygon class="st94" points="441.9,413.8 430.8,474.8 403.2,474.8 416,416.9 417.7,409.4 417.7,409.4 421.1,410 		"/>
	</g>
	<defs>
		<filter id="Adobe_OpacityMaskFilter_34_" filterUnits="userSpaceOnUse" x="576.8" y="221.8" width="217.6" height="253">
			<feFlood  style="flood-color:white;flood-opacity:1" result="back"/>
			<feBlend  in="SourceGraphic" in2="back" mode="normal"/>
		</filter>
	</defs>
	<mask maskUnits="userSpaceOnUse" x="576.8" y="221.8" width="217.6" height="253" id="SVGID_52_">
		<g class="st95">
			<defs>
				<filter id="Adobe_OpacityMaskFilter_35_" filterUnits="userSpaceOnUse" x="576.8" y="221.8" width="217.6" height="253">
					<feFlood  style="flood-color:white;flood-opacity:1" result="back"/>
					<feBlend  in="SourceGraphic" in2="back" mode="normal"/>
				</filter>
			</defs>
			<mask maskUnits="userSpaceOnUse" x="576.8" y="221.8" width="217.6" height="253" id="SVGID_52_">
				<g class="st96">
				</g>
			</mask>
			<linearGradient id="SVGID_53_" gradientUnits="userSpaceOnUse" x1="886.7869" y1="448.0713" x2="285.517" y2="111.3605">
				<stop  offset="0" style="stop-color:#000000"/>
				<stop  offset="1" style="stop-color:#FFFFFF"/>
			</linearGradient>
			<path class="st97" d="M787,474.8h-39.4l-65.1-84.2l-4.7-6l-101-130.7c4.3-1.6,8.4-3.2,12.5-4.8c2.3-0.9,4.5-1.7,6.7-2.6
				c7.5-2.8,14.5-5.5,21-7.9c1.9-0.7,3.7-1.4,5.4-2c7.7-2.8,14.7-5.3,20.7-7.4c3.9-1.3,7.5-2.5,10.6-3.5h0c6.3-2,10.9-3.3,13.6-3.7
				h0c1.3-0.2,2.1-0.2,2.4,0C770.9,293.2,812.9,398.9,787,474.8z"/>
		</g>
	</mask>
	<linearGradient id="SVGID_54_" gradientUnits="userSpaceOnUse" x1="886.7869" y1="448.0713" x2="285.517" y2="111.3605">
		<stop  offset="0" style="stop-color:#1D1D1B"/>
		<stop  offset="1" style="stop-color:#000000"/>
	</linearGradient>
	<path class="st98" d="M787,474.8h-39.4l-65.1-84.2l-4.7-6l-101-130.7c4.3-1.6,8.4-3.2,12.5-4.8c2.3-0.9,4.5-1.7,6.7-2.6
		c7.5-2.8,14.5-5.5,21-7.9c1.9-0.7,3.7-1.4,5.4-2c7.7-2.8,14.7-5.3,20.7-7.4c3.9-1.3,7.5-2.5,10.6-3.5h0c6.3-2,10.9-3.3,13.6-3.7h0
		c1.3-0.2,2.1-0.2,2.4,0C770.9,293.2,812.9,398.9,787,474.8z"/>
	<g>
		<g>
			<g>
				<path class="st92" d="M565.1,298.4c13.5-17,33,9.8,33,9.8c0.6,1.1,2.6,3,4.8,4.9c-2.2-6.2-5.4-12.1-8.7-17.9l-34.3-52.7
					c-3.8-5.8-3.6-12.6,1.4-16c5.1-3.3,12.2-0.9,16.2,5.3l41.2,60.6c0.5-0.3,0.9-0.4,1.5-0.8l-39.8-74.2c-2.8-5.2-0.7-11.7,4.6-14.7
					l0.3-0.2c5.3-2.9,12-1,14.7,4.1l36.3,68.6c0.6-0.1,1.2-0.2,1.8-0.3l-24-58.6c-2.3-5.4,0.3-11.8,5.9-14.2l0.3-0.2
					c5.6-2.4,11.9,0,14.3,5.4l24.9,63.8c0.4-0.1,0.7-0.1,1.1-0.2l-8.8-36.3c-1.4-5.7,2.2-11.6,8.1-13.2l0.4-0.1
					c5.9-1.5,11.7,1.8,13.2,7.6l9.2,38c0,0.1,0.1,0.1,0.2,0.2c1.5,4.1,6,20.8,9.4,30.1c0.2,0.4,2.2,7.3,2.4,7.8
					c1.3,3.7,2.5,8.4,3.5,12.2c0.9,3.6-4.2,20.1-10,32.1c-2.2,4.6,17.3,24.4,15.5,26.9c-1.9,2.7-23.3,15.3-25.7,17.4
					c-2.2,1.8-15.8-30.3-19.5-29.5c-4.8,1.1-17.1,2.2-23,0.3c-7.6-2.3-25.8-14.1-25.8-14.1c-0.1-0.2-0.1-0.4-0.2-0.6
					c-0.1,0-0.1,0-0.1,0l-19-22.1c-3.2-0.4-6.3-3.2-7.9-5.8c-0.9-1.4-1.2-3.6-1.8-5.5L565.1,298.4z"/>
				<path class="st92" d="M561.4,226.4C561.4,226.4,561.3,226.4,561.4,226.4c-0.1,0.1-0.1,0.1-0.2,0.1L561.4,226.4z"/>
			</g>
		</g>
		<polygon class="st93" points="775.3,474.8 701.1,474.8 698.9,470 655.1,398.4 673.1,387.4 673.1,387.4 676.1,385.6 677.9,384.5 
			700.8,370.4 714.9,361.8 758.7,433.4 		"/>
		<polygon class="st94" points="722.6,455.4 729.9,474.8 701.1,474.8 698.9,470 655.1,398.4 673.1,387.4 673.1,387.4 676.1,385.6 
			680.3,392 		"/>
	</g>
	<g>
		<g>
			<polygon class="st99" points="727.3,32.8 736.4,32.6 733.2,-95.8 728.3,-101 724.2,-95.2 			"/>
			<polygon class="st100" points="726.4,-97.9 729.6,32.7 727.3,32.8 724.2,-95.2 			"/>
			<polygon class="st100" points="733.3,-95.7 736.4,32.5 733.6,32.6 730.4,-98 			"/>
			<path class="st101" d="M726.4-98.1c0,1.5,1,2.7,2.1,2.7c1.1,0,2-1.3,2-2.8c0-1.6-1-2.8-2.1-2.7
				C727.2-100.9,726.3-99.6,726.4-98.1z"/>
			<path class="st101" d="M731.1-100.4l0.7,0c0.2,0.4,1.6,4.7,1.6,4.7c-0.2,0.2-0.5,0.3-0.8,0.3c-1.1,0-2.1-1.2-2.1-2.7
				C730.4-99.1,730.7-99.9,731.1-100.4z"/>
			<path class="st101" d="M725.5-100.2c0.5,0.5,0.8,1.3,0.8,2.2c0,1.5-0.9,2.8-2,2.8c-0.1,0-0.2,0-0.2,0L725.5-100.2z"/>
			<polygon class="st101" points="733.3,-95.7 728.4,-111.2 724.2,-95.2 728,-99.8 			"/>
			<polygon class="st78" points="729.7,-106.9 728.4,-111.2 727.2,-106.8 			"/>
		</g>
		<polygon class="st71" points="601.7,80.4 595,81.5 597.6,97.6 604.7,96.6 		"/>
		<path class="st39" d="M425.1,137c2.1,12.8,10.5,22,18.7,20.7l144.5-24c8.2-1.4,13.2-12.8,11-25.6L577.2-25.8
			c-2.1-12.8-10.5-22-18.7-20.7l-144.6,24c-8.2,1.4-13.1,12.8-11,25.6L425.1,137z"/>
		<polygon class="st39" points="783.4,-191.3 121.7,-73.6 122.2,-66.3 793.8,-180.6 		"/>
		<polygon class="st78" points="793.8,-180.6 121.6,-65.5 232.1,115.6 777.3,20.8 		"/>
		<polygon class="st71" points="774.3,-160.8 151.8,-54.6 246.4,97.5 755.9,12.2 		"/>
		<polygon class="st102" points="594.9,82.4 421.3,111.9 418.4,95.1 592.2,64.8 		"/>
		<polygon class="st39" points="775,21.2 778.4,39.1 234,132.8 232.1,115.6 		"/>
		<path class="st73" d="M516.9,77.8l-1.1-7.2c-0.1-0.5-0.3-0.9-0.4-0.9l-7.9,1.2c-0.2,0-0.2,0.5-0.1,0.9l1.1,6.9L516.9,77.8z"/>
		<g class="st103">
			<g>
				<path class="st35" d="M311.3-24.1c-42.4,7.5-84.8,14.9-127.2,22.3c-0.6-1-0.9-1.4-1.5-2.4c42.4-7.4,84.9-14.9,127.3-22.4
					C310.5-25.6,310.8-25.1,311.3-24.1z"/>
				<path class="st35" d="M314-19.3C271.7-11.8,229.4-4.4,187,2.9c-0.6-0.9-0.9-1.4-1.5-2.4c42.4-7.4,84.7-14.8,127.1-22.3
					C313.2-20.8,313.4-20.3,314-19.3z"/>
				<path class="st35" d="M316.6-14.5C274.4-7.1,232.2,0.2,189.9,7.6c-0.6-0.9-0.9-1.4-1.4-2.3C230.8-2.1,273-9.5,315.3-16.9
					C315.8-16,316.1-15.5,316.6-14.5z"/>
				<path class="st35" d="M319.2-9.8C277.1-2.4,235,4.9,192.8,12.2c-0.6-0.9-0.9-1.4-1.4-2.3c42.2-7.3,84.4-14.6,126.5-22
					C318.5-11.2,318.7-10.7,319.2-9.8z"/>
				<path class="st35" d="M306.5-2.4C269.6,4,232.6,10.3,195.7,16.7c-0.6-0.9-0.9-1.4-1.4-2.3c37-6.4,74-12.8,110.9-19.2
					C305.7-3.8,306-3.4,306.5-2.4z"/>
				<path class="st35" d="M324.4-0.4c-41.9,7.3-83.9,14.4-125.9,21.6c-0.6-0.9-0.9-1.4-1.4-2.3c42-7.2,84-14.4,126-21.7
					C323.6-1.8,323.9-1.3,324.4-0.4z"/>
				<path class="st35" d="M327,4.3c-41.9,7.2-83.7,14.3-125.6,21.4c-0.6-0.9-0.9-1.4-1.4-2.3C241.9,16.3,283.8,9.2,325.7,2
					C326.2,2.9,326.5,3.4,327,4.3z"/>
				<path class="st35" d="M329.6,9c-41.8,7.1-83.6,14.2-125.4,21.3c-0.6-0.9-0.9-1.4-1.4-2.3c41.8-7.1,83.7-14.2,125.5-21.3
					C328.8,7.6,329.1,8.1,329.6,9z"/>
				<path class="st35" d="M332.2,13.8c-41.7,7.1-83.4,14.1-125.1,21.1c-0.6-0.9-0.9-1.4-1.4-2.3c41.7-7,83.5-14.1,125.2-21.2
					C331.4,12.3,331.7,12.8,332.2,13.8z"/>
				<path class="st35" d="M334.8,18.5c-41.6,7-83.2,13.9-124.8,20.9c-0.6-0.9-0.9-1.4-1.5-2.3c41.6-7,83.3-13.9,124.9-21
					C334,17.1,334.3,17.6,334.8,18.5z"/>
				<path class="st35" d="M241.5,39.3c-11.2,1.9-16.8,2.8-28.5,4.7c-0.6-0.9-0.9-1.4-1.5-2.3c11.7-1.9,17.4-2.9,28.5-4.8
					C240.6,37.9,240.9,38.4,241.5,39.3z"/>
				<path class="st35" d="M340.2,28.2c-41.4,6.9-82.8,13.7-124.2,20.5c-0.6-1-0.9-1.4-1.5-2.4c41.5-6.9,82.9-13.7,124.4-20.6
					C339.4,26.8,339.6,27.2,340.2,28.2z"/>
				<path class="st35" d="M311.9,38.3c-31,5.1-61.9,10.2-92.9,15.3c-0.6-1-0.9-1.5-1.5-2.4c31-5.1,62-10.2,93-15.3
					C311,36.8,311.3,37.3,311.9,38.3z"/>
				<path class="st35" d="M345.7,38.3c-41.2,6.8-82.4,13.5-123.6,20.2c-0.6-1-0.9-1.5-1.6-2.5c41.3-6.7,82.5-13.5,123.8-20.3
					C344.9,36.7,345.1,37.3,345.7,38.3z"/>
				<path class="st35" d="M348.5,43.4c-41.1,6.7-82.2,13.4-123.3,20.1c-0.6-1-1-1.5-1.6-2.5c41.2-6.7,82.3-13.4,123.5-20.2
					C347.7,41.9,348,42.4,348.5,43.4z"/>
				<path class="st35" d="M351.5,48.7c-41,6.7-82,13.3-123,20c-0.7-1.1-1-1.6-1.6-2.6c41.1-6.7,82.1-13.4,123.1-20
					C350.6,47.1,350.9,47.6,351.5,48.7z"/>
				<path class="st35" d="M334,57.5c-34.1,5.5-68.1,11-102.2,16.6c-0.7-1.1-1-1.6-1.7-2.7c34.1-5.5,68.2-11.1,102.3-16.6
					C333,55.8,333.4,56.4,334,57.5z"/>
				<path class="st35" d="M357.5,59.7c-40.8,6.6-81.5,13.2-122.3,19.8c-0.7-1.1-1-1.7-1.7-2.8c40.8-6.6,81.6-13.2,122.5-19.9
					C356.6,58,356.9,58.6,357.5,59.7z"/>
				<path class="st35" d="M360.7,65.4c-40.6,6.6-81.3,13.2-121.9,19.8c-0.7-1.2-1.1-1.7-1.8-2.9c40.7-6.6,81.4-13.2,122.1-19.8
					C359.7,63.7,360.1,64.3,360.7,65.4z"/>
				<path class="st35" d="M254.6-66.1c-33.2,5.6-66.4,11.3-99.5,16.9c-0.7-1.2-1.1-1.9-1.9-3.1c33.2-5.5,66.4-11.1,99.6-16.8
					C253.5-67.9,253.9-67.3,254.6-66.1z"/>
				<path class="st35" d="M288.2-65.3c-43.2,7.5-86.4,14.9-129.5,22.2c-0.7-1.2-1.1-1.8-1.8-3c43.2-7.3,86.5-14.7,129.7-22.1
					C287.3-67.1,287.6-66.5,288.2-65.3z"/>
				<path class="st35" d="M291.5-59.6c-43.1,7.5-86.1,15-129.2,22.4c-0.7-1.2-1.1-1.7-1.8-2.9c43.1-7.4,86.3-14.8,129.4-22.3
					C290.5-61.3,290.8-60.8,291.5-59.6z"/>
				<path class="st35" d="M294.6-54.1c-43,7.6-85.9,15-128.9,22.5c-0.7-1.1-1-1.7-1.7-2.8c43-7.4,86-14.9,129.1-22.4
					C293.7-55.7,294-55.2,294.6-54.1z"/>
				<path class="st35" d="M297.6-48.6c-42.8,7.6-85.7,15.1-128.6,22.5c-0.7-1.1-1-1.6-1.7-2.7c42.9-7.4,85.8-14.9,128.7-22.5
					C296.7-50.3,297-49.7,297.6-48.6z"/>
				<path class="st35" d="M300.6-43.4c-42.8,7.6-85.5,15.1-128.3,22.5c-0.6-1.1-1-1.6-1.6-2.6c42.8-7.5,85.6-15,128.4-22.6
					C299.7-44.9,300-44.4,300.6-43.4z"/>
				<path class="st35" d="M303.5-38.2c-42.7,7.6-85.3,15.1-128,22.5c-0.6-1-0.9-1.5-1.6-2.6c42.7-7.5,85.4-15,128.1-22.5
					C302.6-39.7,302.9-39.2,303.5-38.2z"/>
				<path class="st35" d="M266.2-26c-33.7,6-51.1,9-87.7,15.4c-0.6-1-0.9-1.5-1.5-2.5c36.5-6.4,53.9-9.4,87.7-15.4
					C265.4-27.5,265.7-27,266.2-26z"/>
				<path class="st35" d="M309.1-28.2c-42.5,7.5-84.9,15-127.4,22.4c-0.6-1-0.9-1.5-1.5-2.4c42.5-7.4,85.1-14.9,127.6-22.5
					C308.2-29.7,308.5-29.2,309.1-28.2z"/>
				<g>
					<path class="st81" d="M380.7,75.9c-8.6-16.1-17.1-32.3-25.7-48.5c-18.3-34.7-37.3-70.5-56.3-105.6l2.8-1.5
						c19,35.1,38,70.9,56.3,105.6c8.5,16.2,17.1,32.3,25.7,48.5L380.7,75.9z"/>
				</g>
				<path class="st35" d="M380.3-93.2c-25.9,4.4-38.9,6.7-65.2,11.1c2.9,5.4,4.3,8,7,13.1c25.9-4.5,38.7-6.8,64-11.2
					C383.8-85.3,382.7-87.8,380.3-93.2z"/>
				<path class="st35" d="M451.2-105.4c-25.5,4.4-38.3,6.6-64.1,11.1c2.3,5.4,3.4,7.9,5.6,13c25.3-4.5,37.8-6.7,62.7-11.1
					C453.8-97.6,452.9-100.1,451.2-105.4z"/>
				<path class="st35" d="M521.4-117.8c-25.4,4.5-38,6.7-63.5,11.2c1.7,5.3,2.5,7.9,4,13c24.9-4.5,37.3-6.7,62.1-11.2
					C523-109.9,522.5-112.5,521.4-117.8z"/>
				<path class="st35" d="M591.5-130.2c-25.4,4.5-38.1,6.8-63.5,11.3c1,5.3,1.5,7.8,2.4,12.9c24.8-4.5,37.2-6.8,62.1-11.3
					C592.2-122.4,592-125,591.5-130.2z"/>
				<path class="st35" d="M662-142.9c-25.7,4.7-38.5,7-63.9,11.5c0.4,5.2,0.6,7.8,0.9,12.9c25-4.6,37.5-6.9,62.9-11.6
					C662-135.3,662-137.8,662-142.9z"/>
				<path class="st35" d="M733.6-156.1c-26.2,4.8-39.1,7.2-64.8,11.9c0,5.1-0.1,7.7-0.2,12.8c25.4-4.7,38.2-7.1,64.3-12.1
					C733.2-148.5,733.3-151,733.6-156.1z"/>
				<path class="st80" d="M543.3-101.9c-72.8,13.3-145.6,26.4-218.5,39.3c-0.8-1.4-1.1-2.2-1.9-3.6c73.3-12.9,146.6-26,219.9-39.3
					C543-104.1,543.1-103.3,543.3-101.9z"/>
				<path class="st35" d="M605.6-107.5c-71.4,13.3-142.9,26.4-214.4,39.3c-0.6-1.4-0.9-2.1-1.5-3.6c72-12.9,143.9-26,215.8-39.4
					C605.5-109.7,605.5-108.9,605.6-107.5z"/>
				<path class="st35" d="M616.6-43.8C534.9-29.1,453.1-14.7,371.2-0.5c-0.6-1.2-0.9-1.9-1.5-3.1c82.4-14.3,164.7-28.9,247.1-43.8
					C616.7-46,616.7-45.2,616.6-43.8z"/>
				<path class="st35" d="M620.1-37.9c-62.6,11.1-125.1,22.2-187.8,33c-0.5-1.3-0.7-1.9-1.1-3.2c63.1-10.9,126.1-22.1,189.1-33.4
					C620.2-40.1,620.1-39.4,620.1-37.9z"/>
				<path class="st35" d="M606.2-29.6C544.5-18.7,482.7-8,420.9,2.6c-0.5-1.3-0.7-1.9-1.2-3.2c62.3-10.7,124.5-21.6,186.7-32.6
					C606.3-31.8,606.3-31.1,606.2-29.6z"/>
				<path class="st35" d="M541-88.1c-60,11.1-120,22-180.1,32.8c-0.6-1.4-1-2.1-1.6-3.5c60.5-10.8,120.9-21.8,181.3-33
					C540.7-90.2,540.8-89.5,541-88.1z"/>
				<path class="st80" d="M517.7-78.9C457.8-67.9,397.9-57,338-46.3c-0.7-1.3-1-2-1.7-3.4c60.3-10.8,120.6-21.7,180.9-32.8
					C517.3-81,517.5-80.3,517.7-78.9z"/>
				<path class="st80" d="M467-51.1c-37.7,6.9-75.5,13.7-113.2,20.4c-0.6-1.3-0.9-1.9-1.6-3.2c38-6.8,76-13.7,113.9-20.6
					C466.5-53.1,466.7-52.4,467-51.1z"/>
				<path class="st80" d="M493.5,9.2c-41.3,6.9-82.6,13.8-123.9,20.6c-0.7-1.3-1-2-1.7-3.3c41.6-6.9,83.2-13.8,124.8-20.9
					C493,7.1,493.2,7.8,493.5,9.2z"/>
				<path class="st104" d="M461.4-22.4C425.2-16,389-9.7,352.8-3.4c-0.6-1.2-0.9-1.9-1.6-3.1c36.5-6.4,72.9-12.8,109.3-19.2
					C460.9-24.4,461.1-23.7,461.4-22.4z"/>
				<path class="st72" d="M499.2-44.8c-36.4,6.6-72.8,13.1-109.2,19.6c-0.5-1.3-0.8-1.9-1.4-3.2c36.7-6.6,73.3-13.2,109.9-19.8
					C498.8-46.9,498.9-46.2,499.2-44.8z"/>
				<path class="st72" d="M523.8,17.5c-45,7.5-90,14.9-135,22.3c-0.7-1.4-1-2.1-1.7-3.4c45.4-7.5,90.8-14.9,136.1-22.5
					C523.4,15.3,523.6,16,523.8,17.5z"/>
				<path class="st72" d="M447,45.7c-25.8,4.2-39.1,6.4-68,11.1c-0.8-1.5-1.1-2.2-1.9-3.6c29.1-4.7,42.4-6.9,68.5-11.2
					C446.1,43.5,446.4,44.2,447,45.7z"/>
				<path class="st104" d="M509.9-16.1C462.6-7.8,415.3,0.3,368.1,8.3c-0.6-1.2-0.9-1.9-1.5-3.1c47.6-8.2,95.2-16.4,142.8-24.7
					C509.5-18.1,509.6-17.4,509.9-16.1z"/>
				<path class="st104" d="M484.4-81.1c-47.6,8.7-95.2,17.3-142.8,25.8c-0.7-1.4-1-2.1-1.8-3.5c47.9-8.6,95.8-17.2,143.7-25.9
					C483.9-83.2,484.1-82.5,484.4-81.1z"/>
				<path class="st35" d="M545.7-69.6C487.8-58.8,429.9-48.3,372-37.8c-0.6-1.3-0.9-1.9-1.5-3.2c58.3-10.5,116.6-21.2,174.9-32
					C545.5-71.7,545.6-71,545.7-69.6z"/>
				<path class="st35" d="M544.3-56.6C487.7-46.2,431.2-36,374.5-25.9c-0.6-1.3-0.9-1.9-1.4-3.2c57-10.2,114-20.6,170.9-31
					C544.1-58.7,544.2-58,544.3-56.6z"/>
				<path class="st35" d="M600.3-59.1C545-49,489.6-38.9,434.2-29c-0.4-1.3-0.6-1.9-1.1-3.2c55.8-10,111.5-20.2,167.3-30.5
					C600.4-61.3,600.4-60.6,600.3-59.1z"/>
				<path class="st35" d="M544.2-10.1C492.5-1.2,440.8,7.6,389.1,16.2c-0.6-1.3-0.9-1.9-1.5-3.2c52.1-8.8,104.2-17.7,156.3-26.7
					C544-12.2,544-11.5,544.2-10.1z"/>
				<path class="st35" d="M533,6.5C482.4,15,431.9,23.4,381.3,31.7c-0.7-1.3-1-2-1.6-3.3c51-8.4,101.9-16.9,152.9-25.6
					C532.7,4.3,532.8,5,533,6.5z"/>
				<path class="st35" d="M604.5,0.4c-67.3,11.4-134.6,22.6-202,33.7c-0.6-1.4-0.9-2.1-1.6-3.4C468.8,19.5,536.6,8.1,604.5-3.4
					C604.5-1.9,604.5-1.1,604.5,0.4z"/>
				<path class="st35" d="M585.8,18c-65.6,11-131.3,21.7-197,32.5c-0.7-1.5-1.1-2.2-1.8-3.6c66.2-10.8,132.4-21.7,198.6-32.8
					C585.7,15.7,585.7,16.5,585.8,18z"/>
				<path class="st35" d="M477.4-28.4c-37.7,6.7-75.5,13.4-113.2,20c-0.6-1.2-0.9-1.9-1.5-3.1c38-6.7,76-13.4,114-20.2
					C476.9-30.4,477-29.8,477.4-28.4z"/>
				<path class="st35" d="M487.1-67.3C437-58.1,386.8-49,336.6-40c-0.7-1.3-1-2-1.7-3.3c50.5-9,101-18.2,151.5-27.5
					C486.7-69.4,486.8-68.7,487.1-67.3z"/>
				<path class="st105" d="M770-103.1c-19.8,3.7-45.9,9.5-65.7,13.2l7.9-48.1c20.9-3.9,41.8-7.9,62.7-11.8
					C773.4-131.4,772.3-122.1,770-103.1z"/>
				<path class="st35" d="M766.8-78.5C725.8-71,684.9-63.4,644-55.9c0.6-7.4,0.9-11.1,1.4-18.4c41.3-7.7,82.6-15.5,123.9-23.2
					C768.3-90,767.8-86.2,766.8-78.5z"/>
				<path class="st35" d="M763.6-54.3c-40.5,7.2-81,14.4-121.4,21.6c0.6-7.6,0.9-11.3,1.5-18.8c40.9-7.4,81.7-14.9,122.6-22.3
					C765.1-66.1,764.6-62.2,763.6-54.3z"/>
				<path class="st35" d="M760.4-29.7c-40,6.9-80,13.8-120,20.7c0.5-7.8,0.7-11.7,1.3-19.3c40.4-7.1,80.8-14.2,121.2-21.4
					C761.9-41.8,761.4-37.8,760.4-29.7z"/>
				<path class="st35" d="M757.6-4.5C718.1,2.2,678.7,9,639.3,15.6c0.3-8.2,0.5-12.2,0.9-20c39.9-6.8,79.8-13.7,119.7-20.5
					C758.9-16.8,758.4-12.7,757.6-4.5z"/>
			</g>
		</g>
	</g>
	<g>
		<g>
			<g>
				<g>
					<path class="st39" d="M1678.3,204.1c0.9,4.8,6.2,8.5,12.5,8.5c6.3,0,11.6-3.7,12.5-8.5H1678.3z"/>
				</g>
				<g>
					<path class="st37" d="M1661.4,118.8c8.3,6.8,13.5,15.5,15.3,25.7l-5.3,1c-1.7-9.1-6-16.5-13.4-22.5
						c-15.6-12.8-23.5-28-23.5-45.3c0-29.2,23.6-53.7,53.1-55.8v-0.1l5.4,0V22c29.6,1.9,53.3,26.5,53.3,55.8
						c0,17.2-7.9,32.4-23.5,45.3c-7.4,6-11.8,13.4-13.5,22.5l-5.3-1c1.9-10.3,7-18.9,15.3-25.7H1661.4z"/>
				</g>
				<g>
					<path class="st39" d="M1711,155.7c0,3.5-2.3,6.5-5,6.5h-31.5c-2.8,0-5-2.9-5-6.5l0,0c0-3.6,2.2-6.5,5-6.5h31.5
						C1708.7,149.2,1711,152.1,1711,155.7L1711,155.7z"/>
				</g>
				<g>
					<path class="st39" d="M1711,169.4c0,3.6-2.3,6.4-5,6.4h-31.5c-2.8,0-5-2.9-5-6.4l0,0c0-3.6,2.2-6.4,5-6.4h31.5
						C1708.7,162.9,1711,165.8,1711,169.4L1711,169.4z"/>
				</g>
				<g>
					<path class="st39" d="M1711,183c0,3.6-2.3,6.4-5,6.4h-31.5c-2.8,0-5-2.9-5-6.4l0,0c0-3.6,2.2-6.5,5-6.5h31.5
						C1708.7,176.6,1711,179.4,1711,183L1711,183z"/>
				</g>
				<g>
					<path class="st39" d="M1711,196.7c0,3.6-2.3,6.5-5,6.5h-31.5c-2.8,0-5-2.9-5-6.5l0,0c0-3.6,2.2-6.4,5-6.4h31.5
						C1708.7,190.3,1711,193.2,1711,196.7L1711,196.7z"/>
				</g>
				<g>
					<rect x="1602.5" y="75.8" class="st37" width="18.3" height="5.4"/>
				</g>
				<g>
					<rect x="1690.1" y="-4.1" class="st37" width="5.4" height="18.4"/>
				</g>
				<g>
					<polygon class="st37" points="1736.5,33.3 1749.2,20 1753.1,23.8 1740.4,37 					"/>
				</g>
				<g>
					<polygon class="st37" points="1646.5,31.7 1633.8,18.4 1629.9,22.2 1642.6,35.4 					"/>
				</g>
				<g>
					<polygon class="st37" points="1644.4,127.1 1631.7,140.4 1627.8,136.6 1640.5,123.4 					"/>
				</g>
				<g>
					<polygon class="st37" points="1734.4,128.7 1747.1,142 1751,138.2 1738.3,125 					"/>
				</g>
				<g>
					<rect x="1754.7" y="75.8" class="st37" width="18.4" height="5.4"/>
				</g>
			</g>
		</g>
		<g>
			<polygon class="st106" points="1689.3,148.3 1667.4,52.5 1671.3,51.6 1693.2,147.4 			"/>
		</g>
		<g>
			<polygon class="st106" points="1691.4,148.3 1687.5,147.4 1709.2,51.6 1713.1,52.5 			"/>
		</g>
		<g>
			<polygon class="st106" points="1700.3,70.2 1683.8,48.8 1678.1,58.2 1665.7,58.4 1665.7,56.8 1677.2,56.6 1683.6,46 1699.8,66.9 
				1703.5,56.2 1714.8,56.1 1714.8,57.7 1704.6,57.8 			"/>
		</g>
	</g>
	<g>
		<polygon class="st83" points="1188,393.4 1144.3,474.8 1123.4,474.8 1049.6,435.2 1055.8,423.6 1062.7,410.7 1079.7,379.1 
			1086.6,366.2 1088.9,361.8 1110.6,351.9 		"/>
		<polygon class="st81" points="1111.7,396.3 1087.8,440.7 1055.6,423.5 1079.5,379 		"/>
		<polygon class="st71" points="1183.9,394.9 1180.2,401.7 1174.6,398.7 1178.2,391.9 		"/>
		<polygon class="st71" points="1142.2,472.7 1141.1,474.8 1133.8,474.8 1136.6,469.7 		"/>
		<polygon class="st71" points="1179,404 1143.5,470.2 1096.3,444.9 1131.8,378.7 		"/>
		<polygon class="st34" points="1118.6,383.4 1094.7,427.8 1062.5,410.6 1086.4,366.1 		"/>
		<polygon class="st78" points="1112.3,385.5 1107.3,394.9 1083.2,381.9 1088.2,372.6 		"/>
	</g>
	<g>
		<polygon class="st72" points="1274.2,401.5 1186.3,453.6 1134.2,365.7 1205.8,323.2 1229.4,325.9 		"/>
		<polygon class="st81" points="1207.4,364.4 1164,390.2 1145.4,358.7 1188.8,333 		"/>
		<polygon class="st71" points="1269.9,400.7 1263.3,404.6 1260,399.1 1266.7,395.2 		"/>
		<polygon class="st71" points="1194,445.6 1187.4,449.6 1184.1,444.1 1190.8,440.1 		"/>
		<polygon class="st71" points="1261,405.9 1196.4,444.2 1169.1,398.1 1233.7,359.8 		"/>
		<polygon class="st34" points="1220,357 1176.6,382.7 1158,351.3 1201.4,325.6 		"/>
		<polygon class="st78" points="1213.6,355.6 1204.4,361 1190.5,337.5 1199.6,332 		"/>
	</g>
	<g>
		<path class="st86" d="M1331.8,413.1l-4.5-2.2l-9.2-4.7l-3.8-1.9l-11-5.6l-0.1,0l-20.9-10.6l-13-6.6l-10.1-5.1l-1.7-0.9l-6.8,13.3
			v0l-16.8,33.1v0l-2.5,4.9l-18.8,37l-1.4,2.8l16.1,8.2h94.4l20.4-40.2L1331.8,413.1z"/>
		<polygon class="st81" points="1297.9,436.6 1252.9,413.8 1269.5,381.2 1314.5,404.1 		"/>
		<polygon class="st71" points="1222.2,468.8 1215.3,465.3 1218.2,459.6 1225.1,463.1 		"/>
		<polygon class="st71" points="1315.9,456.3 1306.5,474.8 1233.9,474.8 1224.7,470.1 1227.3,464.9 1248.9,422.3 1261.6,428.8 
			1298.9,447.7 		"/>
		<polygon class="st34" points="1310.9,443.2 1266,420.4 1282.5,387.8 1327.5,410.7 		"/>
		<polygon class="st78" points="1308.7,437 1299.2,432.2 1311.6,407.8 1321.1,412.6 		"/>
	</g>
	<g>
		<path class="st107" d="M1550.1,353.4c1.2,0,2.1,0.9,2.2,2l0,0c0,1.2-0.9,2.1-2.1,2.2l-7.2,0.2c-1.1,0-2.1-0.9-2.2-2.1l0,0
			c0-1.2,0.9-2.1,2.1-2.2L1550.1,353.4z"/>
		<path class="st35" d="M1398.6,357.6c-3.4,0.4-5.3,0.8-5.3,1.2c0,0.4,2,0.7,5.4,1L1398.6,357.6z"/>
		<path class="st83" d="M1471.4,349.7c41.5-0.9,75.1-2.4,75.3,5.7c0.2,9.8-33.5,8.2-75,9.1c-41.5,0.9-75.2-1.6-75.3-5.7
			C1396.3,354.7,1429.8,350.6,1471.4,349.7z"/>
		<path class="st107" d="M1407.8,354.6c-7.3,1.3-11.5,2.7-11.4,4.2c0,1.5,4.3,2.7,11.6,3.7L1407.8,354.6z"/>
		<path class="st107" d="M1467.4,364.5c1.4,0,2.9-0.1,4.3-0.1c0.3,0,0.6,0,0.9,0l-0.3-14.8l-0.9,0c-1.5,0-2.9,0.1-4.3,0.1
			L1467.4,364.5z"/>
		<path class="st71" d="M1539.6,361.1c4.6-1.2,7.1-3.1,7.1-5.8c-0.1-2.2-2.7-3.7-7.3-4.7L1539.6,361.1z"/>
		<path class="st71" d="M1538.8,366.5c1.1,0,2,0.8,2,1.9l0,0c0,1.1-0.8,2-1.9,2l-59.6,1.4c-1.1,0-2-0.8-2-1.9l0,0c0-1.1,0.8-2,1.9-2
			L1538.8,366.5z"/>
		<polygon class="st71" points="1543.4,355.3 1536.9,368.5 1539.8,370.1 1546.3,356.8 		"/>
	</g>
	<g>
		<polygon class="st72" points="1389,338 1388.8,326.8 1547.2,323.8 1553.9,329.6 1546.9,335 		"/>
		<polygon class="st70" points="1550.2,332.1 1388.9,335.2 1389,338 1546.9,335 		"/>
		<polygon class="st70" points="1547.1,323.7 1388.8,326.7 1388.8,330.2 1550.1,327.1 		"/>
		<path class="st101" d="M1550.3,332.2c-1.9,0-3.4-1.1-3.5-2.5c0-1.4,1.5-2.6,3.4-2.6c1.9,0,3.5,1.1,3.5,2.5
			C1553.8,330.9,1552.3,332.1,1550.3,332.2z"/>
		<path class="st101" d="M1552.9,326.2l0-0.8c-0.6-0.2-5.9-1.7-5.9-1.7c-0.2,0.3-0.3,0.7-0.3,1c0,1.4,1.6,2.5,3.5,2.4
			C1551.4,327.1,1552.3,326.7,1552.9,326.2z"/>
		<path class="st101" d="M1553,333.1c-0.6-0.6-1.7-0.9-2.7-0.9c-1.9,0-3.4,1.2-3.4,2.6c0,0.1,0,0.2,0,0.3L1553,333.1z"/>
		<polygon class="st101" points="1547.1,323.7 1566.5,328.9 1546.9,335 1552.4,330.1 		"/>
		<polygon class="st78" points="1561.1,327.5 1566.5,328.9 1561.1,330.6 		"/>
	</g>
</g>
</svg>
