<?xml version="1.0" encoding="utf-8"?>
<!-- Generator: Adobe Illustrator 19.2.0, SVG Export Plug-In . SVG Version: 6.00 Build 0)  -->
<svg version="1.1"   xmlns="http://www.w3.org/2000/svg" xmlns:xlink="http://www.w3.org/1999/xlink" x="0px" y="0px"
	 viewBox="0 0 512 512" style="enable-background:new 0 0 512 512;" xml:space="preserve">
<style type="text/css">
	.st0{fill:#EF4459;}
</style>
<path class="st0" d="M256,7C118.5,7,7,118.5,7,256c0,137.5,111.5,249,249,249s249-111.5,249-249C505,118.5,393.5,7,256,7z
	 M256,485.1C129.7,485.1,26.9,382.3,26.9,256S129.7,26.9,256,26.9c126.3,0,229.1,102.8,229.1,229.1
	C485.1,382.3,382.3,485.1,256,485.1z"/>
<polygon class="st0" points="384.2,158.2 216.9,325.5 127.9,236.5 113.7,250.6 216.9,353.8 398.3,172.3 "/>
</svg>
