<?xml version="1.0" encoding="utf-8"?>
<!-- Generator: Adobe Illustrator 19.1.0, SVG Export Plug-In . SVG Version: 6.00 Build 0)  -->
<svg version="1.1"   xmlns="http://www.w3.org/2000/svg" xmlns:xlink="http://www.w3.org/1999/xlink" x="0px" y="0px"
	 viewBox="0 0 70 70" style="enable-background:new 0 0 70 70;" xml:space="preserve">
<style type="text/css">
	.st0{fill:#FFFFFF;}
	.st1{fill:#EF4459;}
	.st2{fill:#DB3975;}
	.st3{fill:#186891;}
	.st4{fill:#5D5A63;}
	.st5{fill:#605EA9;}
</style>
<path class="st0" d="M-348.2-96.8c0,0.1,0.1,0.3,0.1,0.4c0,2.2-1.8,7.4-6.9,9.9c-5-1.3-10.1,2.5-8.8,2.5s2.5,5,2.5,5
	c1.3,1.3,3.8,0,3.8,0c3.2,3.2-5,8.8-5,10.1s3.2,1.9,1.3,3.8c-1.9,1.9-3.8,2.5-3.8,2.5c0,6.3-6.3,6.3-7.6,6.3c-1.3,0-3.8-5-3.8-6.3
	c0-1.3,1.3-2.5,1.3-3.8c0-1.3-2.5-3.8-2.5-3.8c0-5-3.8-3.8-7.6-3.8c-3.8,0-3.8-5-3.8-5s0-8.8,6.3-10.1c6.3-1.3,6.3,1.3,6.3,1.3
	c2.5,2.5,7.6,0,10.1,0c0,0,1.3-8.8-1.3-7.6c-2.5,1.3-4.8,0.3-5-2.5c-0.4-3.9,10.5-6.6,12.5-6.6c0.3,0,0.6,0,0.9,0.1
	c-3.4-1.3-7-2.1-10.9-2.1c-16.5,0-30,13.5-30,30c0,16.5,13.5,30,30,30c16.5,0,30-13.5,30-30C-340.2-84.2-343.2-91.4-348.2-96.8z"/>
<g>
	<path class="st1" d="M-280.8-54.2v-1.1c0-1.5-1.5-3-3-3h-14c-1.5,0-3,1.5-3,3v1.1c-2.2,0.5-4,2.6-4,4.9v2c0,0.6,0.4,1,1,1h26
		c0.6,0,1-0.4,1-1v-2C-276.8-51.6-278.7-53.7-280.8-54.2z M-298.8-55.4c0-0.4,0.6-1,1-1h14c0.4,0,1,0.6,1,1v1h-16V-55.4z
		 M-278.8-48.4h-24v-1c0-1.5,1.5-3,3-3h18c1.5,0,3,1.5,3,3V-48.4z"/>
	<path class="st1" d="M-245.1-58.1l-24.8-24.8l5.1-5.1l0.3,0.3c0.9,0.9,1.8,1.2,2.8,1.2c1.2,0,2.4-0.6,3.3-1.5
		c1.6-1.6,2.2-4.2,0.2-6.2l-11-11c-1.9-1.9-4.6-1.3-6.2,0.2c-1.6,1.6-2.2,4.2-0.2,6.2l0.3,0.3l-11.6,11.6l-0.3-0.3
		c-1.9-1.9-4.6-1.3-6.2,0.2c-1.6,1.6-2.2,4.2-0.2,6.2l11,11c0.9,0.9,1.8,1.2,2.8,1.2c1.2,0,2.4-0.6,3.3-1.5c1.6-1.6,2.2-4.2,0.2-6.2
		l-0.3-0.3l5.1-5.1l24.8,24.8c0.2,0.2,0.5,0.3,0.7,0.3s0.5-0.1,0.7-0.3C-244.7-57.1-244.7-57.7-245.1-58.1z M-273.9-103.4
		c0.7-0.7,2.1-1.5,3.3-0.2l11,11c1.2,1.2,0.4,2.7-0.2,3.3c-0.7,0.7-2.1,1.5-3.3,0.2l-1-1l-9-9l-1-1
		C-275.3-101.3-274.5-102.7-273.9-103.4z M-273.8-97l7.6,7.6l-5.8,5.8c0,0,0,0,0,0l0,0l-5.8,5.8l-7.6-7.6L-273.8-97z M-277.8-71.3
		c-0.7,0.7-2.1,1.5-3.3,0.2l-11-11c-1.2-1.2-0.4-2.7,0.2-3.3s2.1-1.5,3.3-0.2l1,1l9,9l1,1C-276.3-73.4-277.1-72-277.8-71.3z"/>
</g>
<g>
	<path class="st1" d="M-172.6-92.3c-0.6,0-1,0.5-0.9,1.1s0.5,1,1.1,0.9c4.2-0.3,8.8,1.1,12.3,3.8c0.2,0.1,0.4,0.2,0.6,0.2
		c0.3,0,0.6-0.1,0.8-0.4c0.3-0.4,0.2-1.1-0.2-1.4C-162.8-91.1-167.9-92.6-172.6-92.3z"/>
	<path class="st1" d="M-141.5-82.3c0-0.6-0.4-1-1-1s-1,0.4-1,1c0,1.9-1.3,3.5-3.1,3.9c-0.6-11.1-11.6-19.9-24.9-19.9
		c-1.9,0-3.8,0-5.7,0.4c-1.8-2.7-4.9-4.4-8.2-4.4c-1.7,0-3.4,0.5-4.9,1.3c-0.3,0.2-0.5,0.5-0.5,0.9c0,0.4,0.2,0.7,0.5,0.9
		c1.9,1.1,3.2,2.9,3.7,5c-5.1,3.3-8.7,8.4-9.8,13.9h-4.2c-0.6,0-1,0.4-1,1v10c0,0.6,0.4,1,1,1h6.4c2.4,5,6.8,8.6,12.6,10.5v6.5
		c0,0.6,0.4,1,1,1s1-0.4,1-1v-5.9c2.5,0.6,5.1,0.9,8,0.9c2.8,0,5.5-0.4,8-1.1v6.1c0,0.6,0.4,1,1,1s1-0.4,1-1v-6.8
		c8.5-3.1,14.5-10.1,14.9-18.3C-143.7-76.8-141.5-79.3-141.5-82.3z M-171.5-58.3c-10.2,0-17.9-4.2-21.1-11.4
		c-0.2-0.4-0.5-0.6-0.9-0.6h-6v-8h4c0.5,0,0.9-0.4,1-0.9c0.8-5.4,4.3-10.6,9.6-13.7c0.3-0.2,0.5-0.6,0.5-1c-0.3-2.4-1.5-4.5-3.3-6
		c0.8-0.3,1.6-0.4,2.4-0.4c2.8,0,5.4,1.5,6.8,4c0.2,0.4,0.7,0.6,1.1,0.5c1.9-0.4,3.9-0.5,6-0.5c12.7,0,23,8.5,23,18.9
		C-148.5-66.9-158.8-58.3-171.5-58.3z"/>
	<path class="st1" d="M-185.5-84.3c-1.7,0-3,1.3-3,3s1.3,3,3,3s3-1.3,3-3S-183.8-84.3-185.5-84.3z M-185.5-80.3c-0.6,0-1-0.4-1-1
		s0.4-1,1-1s1,0.4,1,1S-184.9-80.3-185.5-80.3z"/>
</g>
<path class="st1" d="M-62.3-71.7v-7v-7v-7v-7c0-4.1-10.4-6-20-6s-20,1.9-20,6v7v7v7v7v7c0,4.7,12.6,6,20,6v7c0,4.7,12.6,6,20,6
	s20-1.3,20-6v-7v-7C-42.3-69.8-52.7-71.7-62.3-71.7z M-44.3-58.7c0,1.6-7,4-18,4s-18-2.4-18-4v-4.2c3.5,2.2,10.9,3.2,18,3.2
	s14.5-1,18-3.2V-58.7z M-44.3-65.7c0,1.4-6.4,4-18,4s-18-2.6-18-4s6.4-4,18-4S-44.3-67-44.3-65.7z M-81.4-67.7c-0.3,0-0.6,0-1,0
	c-11,0-18-2.4-18-4v-4.1c3.8,2.4,12.4,3.1,18,3.1s14.2-0.7,18-3.1v4.1c0,0,0,0,0,0C-71.6-71.4-78.8-70.2-81.4-67.7z M-64.3-92.7
	c0,1.6-7,4-18,4s-18-2.4-18-4v-4.2c3.5,2.2,10.9,3.2,18,3.2s14.5-1,18-3.2V-92.7z M-82.3-86.7c5.6,0,14.2-0.7,18-3.1v4.1
	c0,1.6-7,4-18,4s-18-2.4-18-4v-4.1C-96.5-87.4-87.9-86.7-82.3-86.7z M-82.3-79.7c5.6,0,14.2-0.7,18-3.1v4.1c0,1.6-7,4-18,4
	s-18-2.4-18-4v-4.1C-96.5-80.4-87.9-79.7-82.3-79.7z M-82.3-103.7c11.6,0,18,2.6,18,4s-6.4,4-18,4s-18-2.6-18-4
	S-94-103.7-82.3-103.7z M-100.3-64.7v-4.1c3.8,2.4,12.4,3.1,18,3.1v5C-93.3-60.7-100.3-63-100.3-64.7z M-62.3-47.7
	c-11,0-18-2.4-18-4v-4.1c3.8,2.4,12.4,3.1,18,3.1s14.2-0.7,18-3.1v4.1C-44.3-50-51.3-47.7-62.3-47.7z"/>
<g>
	<path class="st1" d="M64.7-60.9c-2.3-2.3-4.9-4.2-8.5-3.2L47-61c0-0.1,0-0.1,0-0.2c0-2-1.4-4-4-4c-1.7,0-2.8,0-3.7,0
		c-1.3,0-2.1,0-3.9,0c-3.4-2.6-7.3-4-11.3-4h-7v-1c0-0.6-0.4-1-1-1H6c-0.6,0-1,0.4-1,1v18c0,0.6,0.4,1,1,1h10c0.6,0,1-0.4,1-1v-0.8
		c2.5,0.8,4.6,1.6,6.5,2.2c6.4,2.2,10,3.5,13.4,3.5c4.2,0,8-2,16.4-6.4c3-1.5,6.6-3.5,11.1-5.7c0.3-0.1,0.5-0.4,0.5-0.7
		C65-60.3,64.9-60.6,64.7-60.9z M15-53.1H7v-16h8V-53.1z M52.4-55.3c-14.5,7.6-14.5,7.6-28.2,2.8c-2.1-0.7-4.4-1.6-7.2-2.5v-12.1h7
		c3.7,0,7.2,1.3,10.4,3.8c0.2,0.1,0.4,0.2,0.6,0.2c2,0,2.9,0,4.3,0c0.9,0,2,0,3.7,0c1.5,0,2,1.1,2,2c0,0.9-0.5,2-2,2H29
		c-0.6,0-1,0.4-1,1s0.4,1,1,1h14c1.4,0,2.4-0.6,3.1-1.4l10.7-3.5c1.9-0.6,3.5-0.1,5.5,1.7C58.4-58.4,55.1-56.7,52.4-55.3z"/>
	<path class="st1" d="M36-74.1c0.6,0,1-0.4,1-1v-6c0-0.6-0.4-1-1-1s-1,0.4-1,1v6C35-74.6,35.4-74.1,36-74.1z"/>
	<path class="st1" d="M48-92.1c0.6,0,1-0.4,1-1v-6c0-0.6-0.4-1-1-1s-1,0.4-1,1v6C47-92.6,47.4-92.1,48-92.1z"/>
	<path class="st1" d="M36-70.1c4.4,0,8-3.6,8-8s-3.6-8-8-8s-8,3.6-8,8S31.6-70.1,36-70.1z M36-84.1c3.3,0,6,2.7,6,6s-2.7,6-6,6
		s-6-2.7-6-6S32.7-84.1,36-84.1z"/>
	<path class="st1" d="M48-88.1c4.4,0,8-3.6,8-8s-3.6-8-8-8s-8,3.6-8,8S43.6-88.1,48-88.1z M48-102.1c3.3,0,6,2.7,6,6s-2.7,6-6,6
		s-6-2.7-6-6S44.7-102.1,48-102.1z"/>
</g>
<g>
	<path class="st1" d="M125.7-78.7c-4.6,0-14,1-14,4v5v5v5v5v5c0,3,9.4,4,14,4c4.6,0,14-1,14-4v-5v-5v-5v-5v-5
		C139.7-77.7,130.2-78.7,125.7-78.7z M137.7-54.8c-0.8,0.8-5.7,2.2-12,2.2c-6.3,0-11.2-1.4-12-2.2v-2.7c3,1.4,8.7,1.9,12,1.9
		c3.3,0,9-0.5,12-1.9V-54.8z M137.7-59.8c-0.8,0.8-5.7,2.2-12,2.2c-6.3,0-11.2-1.4-12-2.2v-2.7c3,1.4,8.7,1.9,12,1.9
		c3.3,0,9-0.5,12-1.9V-59.8z M137.7-64.8c-0.8,0.8-5.7,2.2-12,2.2c-6.3,0-11.2-1.4-12-2.2v-2.7c3,1.4,8.7,1.9,12,1.9
		c3.3,0,9-0.5,12-1.9V-64.8z M137.7-69.8c-0.8,0.8-5.7,2.2-12,2.2c-6.3,0-11.2-1.4-12-2.2v-2.7c3,1.4,8.7,1.9,12,1.9
		c3.3,0,9-0.5,12-1.9V-69.8z M125.7-76.7c5.9,0,10.6,1.2,11.8,2c-1.2,0.8-5.9,2-11.8,2c-5.9,0-10.6-1.2-11.8-2
		C115-75.5,119.7-76.7,125.7-76.7z M125.7-47.7c-6.3,0-11.2-1.4-12-2.2v-2.7c3,1.4,8.7,1.9,12,1.9c3.3,0,9-0.5,12-1.9v2.7
		C136.9-49,132-47.7,125.7-47.7z"/>
	<path class="st1" d="M109.7-105.7v23c0,0.6,0.4,1,1,1s1-0.4,1-1v-21h56v34h-20c-0.6,0-1,0.4-1,1s0.4,1,1,1h22v-38H109.7z"/>
	<path class="st1" d="M139.7-94.7c-4.4,0-8,3.6-8,8c0,4.4,3.6,8,8,8c4.4,0,8-3.6,8-8C147.7-91.1,144.1-94.7,139.7-94.7z M139.7-80.7
		c-3.3,0-6-2.7-6-6c0-3.3,2.7-6,6-6c3.3,0,6,2.7,6,6C145.7-83.4,143-80.7,139.7-80.7z"/>
	<path class="st1" d="M159.7-80.7c0-1.7-1.3-3-3-3s-3,1.3-3,3c0,1.7,1.3,3,3,3S159.7-79,159.7-80.7z M155.7-80.7c0-0.6,0.4-1,1-1
		s1,0.4,1,1c0,0.6-0.4,1-1,1S155.7-80.1,155.7-80.7z"/>
	<path class="st1" d="M119.7-92.7c0,1.7,1.3,3,3,3s3-1.3,3-3c0-1.7-1.3-3-3-3S119.7-94.3,119.7-92.7z M123.7-92.7c0,0.6-0.4,1-1,1
		s-1-0.4-1-1c0-0.6,0.4-1,1-1S123.7-93.2,123.7-92.7z"/>
	<path class="st1" d="M146.7-72.7c0,0.6,0.4,1,1,1h12c3.4,0,6-2.6,6-6v-18c0-3.4-2.6-6-6-6h-40c-3.4,0-6,2.6-6,6v13c0,0.6,0.4,1,1,1
		s1-0.4,1-1v-13c0-2.2,1.8-4,4-4h40c2.2,0,4,1.8,4,4v18c0,2.2-1.8,4-4,4h-12C147.1-73.7,146.7-73.2,146.7-72.7z"/>
</g>
<g>
	<path class="st1" d="M234.2-78.2h11.1v-2c0-1.9-1.3-3.7-3-4.2l-6-1.5v-2c2.5-1.6,4.2-4.6,4.2-7.9c0-5.1-3.8-9.2-8.6-9.2
		s-8.6,4.1-8.6,9.2c0,3.3,1.6,6.1,4,7.8v2.2l-5.9,1.6c-1.8,0.5-3.1,2.3-3.1,4.2v2h13.3H234.2z M231.9-103.2c3,0,5.6,2.3,6.3,5.4
		c-0.4,0.2-1.1,0.3-1.8,0.2c-0.6-0.1-1.8-0.4-2.4-1.6c-0.1-0.3-0.4-0.5-0.7-0.5c-0.3,0-0.6,0.1-0.9,0.3c-2,2-5.1,2.1-6.8,1.3
		C226.5-101,229-103.2,231.9-103.2z M225.4-95.9c0-0.1,0-0.1,0-0.2c2.3,0.8,5.3,0.6,7.6-1.1c0.8,0.9,1.9,1.4,3.2,1.6
		c0.3,0,0.6,0.1,0.9,0.1c0.5,0,1-0.1,1.4-0.2c-0.1,3.9-3,7.1-6.6,7.1C228.3-88.7,225.4-91.9,225.4-95.9z M220.3-80.2L220.3-80.2
		c0-1,0.8-2,1.7-2.3l7.3-1.9v-2.7c0.8,0.3,1.7,0.4,2.6,0.4c0.8,0,1.6-0.1,2.4-0.4v2.7l7.5,1.9c0.8,0.2,1.5,1.3,1.5,2.3h-9.1h-2.5
		H220.3z"/>
	<path class="st1" d="M274.4-84.4l-6-1.5v-2c2.5-1.6,4.2-4.6,4.2-7.9c0-5.1-3.8-9.2-8.6-9.2s-8.6,4.1-8.6,9.2c0,3.3,1.6,6.1,4,7.8
		v2.2l-5.9,1.6c-1.8,0.5-3.1,2.3-3.1,4.2v2h13.3h2.5h11.1v-2C277.3-82.1,276.1-83.9,274.4-84.4z M263.9-103.2c3,0,5.6,2.3,6.3,5.4
		c-0.4,0.2-1.1,0.3-1.8,0.2c-0.6-0.1-1.8-0.4-2.4-1.6c-0.1-0.3-0.4-0.5-0.7-0.5c-0.3,0-0.6,0.1-0.9,0.3c-2,2-5.1,2.1-6.8,1.3
		C258.5-101,261-103.2,263.9-103.2z M257.4-95.9c0-0.1,0-0.1,0-0.2c2.3,0.8,5.3,0.6,7.6-1.1c0.8,0.9,1.9,1.4,3.2,1.6
		c0.3,0,0.6,0.1,0.9,0.1c0.5,0,1-0.1,1.4-0.2c-0.1,3.9-3,7.1-6.6,7.1C260.3-88.7,257.4-91.9,257.4-95.9z M266.2-80.2h-2.5h-11.3v0
		c0-0.9,0.8-2,1.7-2.2l7.3-1.9v-2.7c0.8,0.3,1.7,0.4,2.6,0.4c0.8,0,1.6-0.1,2.4-0.4v2.7l7.5,1.9c0.8,0.2,1.5,1.3,1.5,2.3H266.2z"/>
	<path class="st1" d="M257.8-52.6l-5.7-1.6v-2.2c2.3-1.7,3.8-4.5,3.8-7.7c0-5.1-3.8-9.2-8.6-9.2s-8.6,4.1-8.6,9.2
		c0,3.2,1.5,6,3.8,7.7v2.2l-5.7,1.6c-1.8,0.5-3.1,2.3-3.1,4.2v2.3h12.3h2.5h12.3v-2.3C260.9-50.3,259.6-52.1,257.8-52.6z
		 M247.3-71.4c3,0,5.5,2.2,6.3,5.3c-0.5,0.2-1.1,0.3-1.9,0.2c-0.6-0.1-1.7-0.4-2.3-1.5c-0.1-0.3-0.4-0.5-0.7-0.5
		c-0.3,0-0.6,0.1-0.9,0.3c-2,2-5.1,2.1-6.8,1.3C241.9-69.3,244.4-71.4,247.3-71.4z M240.8-64.1c0-0.1,0-0.1,0-0.2
		c2.3,0.8,5.3,0.6,7.6-1.1c0.8,0.8,1.8,1.4,3.1,1.6c0.3,0,0.6,0.1,0.8,0.1c0.5,0,1.1-0.1,1.6-0.2c0,4-3,7.2-6.6,7.2
		C243.7-56.9,240.8-60.1,240.8-64.1z M258.9-48.2h-10.3h-2.5h-10.3v-0.3c0-0.9,0.8-2,1.7-2.3l7.1-2v-2.7c0.9,0.3,1.8,0.5,2.8,0.5
		c1,0,1.9-0.2,2.8-0.5v2.7l7.1,2c0.9,0.3,1.7,1.3,1.7,2.3V-48.2z"/>
	<path class="st1" d="M234.2-69.3l-6.3-6.3c-0.4-0.4-1-0.4-1.4,0s-0.4,1,0,1.4l6.3,6.3c0.2,0.2,0.5,0.3,0.7,0.3s0.5-0.1,0.7-0.3
		C234.6-68.3,234.6-68.9,234.2-69.3z"/>
	<path class="st1" d="M266.8-75.6l-6.3,6.3c-0.4,0.4-0.4,1,0,1.4c0.2,0.2,0.5,0.3,0.7,0.3s0.5-0.1,0.7-0.3l6.3-6.3
		c0.4-0.4,0.4-1,0-1.4S267.2-76,266.8-75.6z"/>
</g>
<g>
	<path class="st0" d="M321-111v70h27.6v-27h-5.1v-9.1h5.1c0,0,0-5.9,0-7.2c0-1.4,0-10.4,11.7-10.4c1.6,0,5.1,0,8.5,0c0,4,0,8,0,9.1
		c-2.6,0-5.1,0-6.3,0c-1.2,0-2.5,1.5-2.5,2.5c0,0.9,0,6.1,0,6.1s7.6,0,8.6,0c-0.3,4.8-1,9.1-1,9.1H360v27h31v-70H321z"/>
</g>
<g>
	<path class="st0" d="M433-111v70h70v-70H433z M485.7-85c0,0.4,0,0.8,0,1.2c0,12-9.2,25.9-25.9,25.9c-5.1,0-9.9-1.5-14-4.1
		c0.7,0.1,1.4,0.1,2.2,0.1c4.3,0,8.2-1.5,11.3-3.9c-4-0.1-7.4-2.7-8.5-6.3c0.6,0.1,1.1,0.2,1.7,0.2c0.8,0,1.6-0.1,2.4-0.3
		c-4.2-0.8-7.3-4.5-7.3-8.9c0,0,0-0.1,0-0.1c1.2,0.7,2.6,1.1,4.1,1.1c-2.4-1.6-4.1-4.4-4.1-7.6c0-1.7,0.4-3.2,1.2-4.6
		c4.5,5.5,11.2,9.1,18.8,9.5c-0.2-0.7-0.2-1.4-0.2-2.1c0-5,4.1-9.1,9.1-9.1c2.6,0,5,1.1,6.7,2.9c2.1-0.4,4-1.2,5.8-2.2
		c-0.7,2.1-2.1,3.9-4,5c1.8-0.2,3.6-0.7,5.2-1.4C489-87.9,487.5-86.3,485.7-85z"/>
</g>
<g>
	<path class="st0" d="M561.6-55c-1.5-1.5-2.8-2.8-2.8-5.1c0-1.4,0.4-2.6,1-3.8c-0.6,0-1.3,0.1-1.9,0.1c-4.4,0-7.9-1.5-10.5-3.9v15.3
		c3.1-1.6,6.6-2.6,10.6-2.6C559.3-55,560.5-55,561.6-55z"/>
	<path class="st0" d="M569.1-78c-0.9-6.9-5.4-12.5-10.6-12.7c-5.2-0.2-8.8,5.1-7.9,12c0.9,6.9,5.9,11.7,11.1,11.9
		C567-66.6,570-71.1,569.1-78z"/>
	<path class="st0" d="M617.5-111h-70v22.8c3.4-3.4,8.4-5.7,13.9-5.7c5.1,0,19.5,0,19.5,0l-4.4,4.6h-5.1c3.6,2.3,5.5,6.4,5.5,11
		c0,4.3-2.4,7.8-5.8,10.4c-3.3,2.6-3.9,3.7-3.9,5.8c0,1.9,3.9,4.6,5.7,6c6.3,4.7,7.6,7.7,7.6,13.6c0,0.5,0,1-0.1,1.5h37.1V-111z
		 M605-79.4h-9.1v8.8h-4.6v-8.8h-8.8v-4.6h8.8V-93h4.6v9.1h9.1V-79.4z"/>
	<path class="st0" d="M574.5-41c0-0.2,0-0.4,0-0.7c0-0.7-0.1-1.4-0.2-2.1c-0.9-3.4-4.3-5.2-8.5-8.2c-1.5-0.5-3.3-0.8-5.1-0.8
		c-5.7-0.1-10.9,2.6-13.1,6.3v5.4H574.5z"/>
</g>
<polygon class="st1" points="-367.7,35 -367.7,35 -343.9,11.2 -346.3,8.7 -370.2,32.6 -394,8.7 -396.4,11.2 -372.6,35 -372.6,35 
	-372.6,35 -396.4,58.8 -394,61.3 -370.2,37.4 -346.3,61.3 -343.9,58.8 -367.7,35 "/>
<g>
	<path class="st1" d="M-251.9,11.2c-15.1-3.1-30.7-3.1-45.8,0c-4,0.8-7.1,4.6-7.1,8.5v3.3c0,3.3,2.7,6,6,6h8c3.3,0,6-2.7,6-6V22
		c6.8-0.6,13.2-0.6,20,0v1.1c0,1.6,0.6,3.1,1.8,4.2c1.1,1.1,2.6,1.8,4.2,1.8l0-1v1h8c3.3,0,6-2.7,6-6v-3.3
		C-244.8,15.8-248,12-251.9,11.2z M-246.8,23.1c0,2.2-1.8,4-4,4h-8c-1.1,0-2.1-0.4-2.8-1.2s-1.2-1.8-1.2-2.8v-2c0-0.5-0.4-0.9-0.9-1
		c-3.8-0.4-7.4-0.6-11.1-0.6s-7.3,0.2-11.1,0.6c-0.5,0.1-0.9,0.5-0.9,1v2c0,1.1-0.4,2.1-1.2,2.8s-1.8,1.2-2.8,1.2h-8
		c-2.2,0-4-1.8-4-4v-3.3c0-3,2.5-6,5.5-6.6c14.8-3,30.2-3,45,0c3,0.6,5.5,3.6,5.5,6.6V23.1z"/>
	<path class="st1" d="M-268.8,31.5v-4.2c0-0.6-0.4-1-1-1s-1,0.4-1,1v4.1c-0.1,0-0.2,0-0.3,0h-7.6c-0.1,0-0.1,0-0.2,0v-4.1
		c0-0.6-0.4-1-1-1s-1,0.4-1,1v4.2c-10.3,1.1-18,10-18,21v7.6c0,0.6,0.4,1,1,1h46c0.6,0,1-0.4,1-1v-7.6
		C-250.8,41.5-258.6,32.6-268.8,31.5z M-252.8,59.1h-44v-6.6c0-10.8,8-19.2,18.2-19.2h7.6c10.2,0,18.2,8.4,18.2,19.2V59.1z"/>
	<path class="st1" d="M-274.8,37.1c-5.5,0-10,4.5-10,10s4.5,10,10,10s10-4.5,10-10S-269.3,37.1-274.8,37.1z M-274.8,55.1
		c-4.4,0-8-3.6-8-8s3.6-8,8-8s8,3.6,8,8S-270.4,55.1-274.8,55.1z"/>
</g>
<g>
	<path class="st1" d="M-163.5,7.9l16,10.7V31c0,0.6,0.4,1,1,1s1-0.4,1-1V18c0-0.3-0.2-0.6-0.4-0.8l-18-12c0,0-0.1,0-0.1-0.1
		c0,0-0.1,0-0.1,0c-0.2-0.1-0.5-0.1-0.7,0c0,0-0.1,0-0.1,0c0,0-0.1,0-0.1,0.1l-17.4,11.6l-17.4-11.6c-0.3-0.2-0.7-0.2-1,0
		c-0.3,0.2-0.5,0.5-0.5,0.9v42c0,0.3,0.2,0.6,0.4,0.8l18,12c0,0,0.1,0,0.1,0.1c0,0,0.1,0,0.1,0c0.1,0,0.2,0.1,0.3,0.1
		c0.1,0,0.2,0,0.3-0.1c0,0,0.1,0,0.1,0c0,0,0.1,0,0.1-0.1l15-10c0.5-0.3,0.6-0.9,0.3-1.4c-0.3-0.5-0.9-0.6-1.4-0.3l-13.4,9V18.5
		l16-10.7V31c0,0.6,0.4,1,1,1s1-0.4,1-1V7.9z M-199.5,7.9l16,10.7v39.6l-16-10.7V7.9z"/>
	<path class="st1" d="M-152.5,41c-2.8,0-5,2.2-5,5s2.2,5,5,5s5-2.2,5-5S-149.7,41-152.5,41z M-152.5,49c-1.7,0-3-1.3-3-3s1.3-3,3-3
		s3,1.3,3,3S-150.8,49-152.5,49z"/>
	<path class="st1" d="M-152.5,35c-6.1,0-11,4.9-11,11c0,5.8,9.8,18.1,10.2,18.6c0.2,0.2,0.5,0.4,0.8,0.4s0.6-0.1,0.8-0.4
		c0.4-0.5,10.2-12.8,10.2-18.6C-141.5,39.9-146.4,35-152.5,35z M-152.5,62.4c-3.1-4-9-12.5-9-16.4c0-5,4-9,9-9s9,4,9,9
		C-143.5,49.9-149.4,58.4-152.5,62.4z"/>
</g>
<g>
	<path class="st1" d="M-72.3,6c-11,0-20,9-20,20s20,38,20,38s20-27,20-38S-61.3,6-72.3,6z M-72.3,34c-4.4,0-8-3.6-8-8
		c0-4.4,3.6-8,8-8s8,3.6,8,8C-64.3,30.4-67.9,34-72.3,34z"/>
</g>
<polygon class="st2" points="96.8,165.3 96.8,165.2 96.7,165.2 96.8,165.3 "/>
<polygon class="st2" points="154.6,165.1 154.5,165 154.5,165 154.6,165.1 "/>
<polygon class="st3" points="96.8,165.1 96.8,165 96.7,165 96.8,165.1 "/>
<circle class="st4" cx="34.9" cy="34.9" r="34.3"/>
<circle class="st5" cx="34.9" cy="34.9" r="23.8"/>
<circle class="st0" cx="34.9" cy="34.9" r="13.1"/>
</svg>
