<?xml version="1.0" encoding="utf-8"?>
<!-- Generator: Adobe Illustrator 19.2.0, SVG Export Plug-In . SVG Version: 6.00 Build 0)  -->
<svg version="1.1"   xmlns="http://www.w3.org/2000/svg" xmlns:xlink="http://www.w3.org/1999/xlink" x="0px" y="0px"
	 viewBox="0 0 20 20" style="enable-background:new 0 0 20 20;" xml:space="preserve">
<style type="text/css">
	.st0{fill:#ff4056;}
</style>
<path class="st0" d="M9.1,7.3C8.9,6.4,8.5,6.2,7.9,6.2c-0.1,0-0.1,0-0.2,0C7.4,6.3,7.2,6.5,7.1,6.8C7,7.2,7,7.5,7.1,7.9
	c0.2,0.7,0.7,1.2,1.2,1.2c0.1,0,0.1,0,0.2,0C9,8.9,9.3,8.1,9.1,7.3z M10,0.4c-5.3,0-9.6,4.3-9.6,9.6s4.3,9.6,9.6,9.6
	c5.3,0,9.6-4.3,9.6-9.6S15.3,0.4,10,0.4z M9.4,14.1c-0.6,0.3-1.3,0.3-1.5,0.3c0,0-0.1,0-0.1,0c0,0,0,0,0,0c-0.4,0-2.3-0.1-2.3-1.9
	c0-1.7,2.1-1.9,2.8-1.9h0c-0.4-0.5-0.3-1-0.3-1c0,0-0.1,0-0.1,0c-0.2,0-0.7,0-1.1-0.3C6.2,9.1,6,8.5,6,7.8c0-2.1,2.3-2.2,2.3-2.2
	h2.3v0.1c0,0.3-0.5,0.3-0.8,0.4C9.7,6,9.5,6,9.5,6c0.6,0.3,0.7,0.8,0.7,1.5c0,0.8-0.3,1.3-0.7,1.6C9.2,9.4,9.1,9.5,9.1,9.7
	c0,0.2,0.2,0.4,0.5,0.6c0.4,0.4,1,0.9,1,1.8C10.6,13.1,10.2,13.7,9.4,14.1z M14.5,10H13v1.5h-1V10h-1.5V9h1.5V7.5h1V9h1.5V10z
	 M8.2,11.2c-0.1,0-0.1,0-0.2,0c-0.4,0-0.9,0.2-1.2,0.5c-0.3,0.3-0.4,0.6-0.4,0.9c0,0.7,0.8,1.1,1.7,1.1c0.9-0.1,1.5-0.6,1.5-1.3
	C9.7,11.7,9.1,11.2,8.2,11.2z"/>
</svg>
