<svg id="Layer_1" data-name="Layer 1" xmlns="http://www.w3.org/2000/svg" viewBox="0 0 62.36 62.36"><defs><style>.cls-1{fill:none;stroke:#ef4459;stroke-linecap:round;stroke-linejoin:round;stroke-width:2px;}</style></defs><title>ico</title><polyline class="cls-1" points="23.73 54.78 2.62 54.78 2.62 2.62 29.94 2.62 42.36 15.04 42.36 22.49"/><polyline class="cls-1" points="29.94 2.62 29.94 15.04 42.36 15.04"/><line class="cls-1" x1="36.15" y1="59.74" x2="56.02" y2="59.74"/><path class="cls-1" d="M54.78,47.33h-5V38.61a6.21,6.21,0,1,0-7.45,0v8.72h-5a5,5,0,0,0-5,5v2.48H59.74V52.29A5,5,0,0,0,54.78,47.33Z"/><path class="cls-1" d="M31.86,29.52c0,1.44-4.41,2.58-9.8,2.58s-9.8-1.14-9.8-2.58,4.41-2.58,9.8-2.58S31.86,28.09,31.86,29.52Z"/><path class="cls-1" d="M31.86,29.52v3.61c0,1.55-4.64,2.58-9.8,2.58s-9.8-1-9.8-2.58V29.52"/><path class="cls-1" d="M31.86,33.13v3.61c0,1.55-4.64,2.58-9.8,2.58s-9.8-1-9.8-2.58V33.13"/></svg>