<svg   data-name="Layer 1" xmlns="http://www.w3.org/2000/svg" viewBox="0 0 62.36 62.36"><defs><style>.cls-1{fill:none;stroke:#ef4459;stroke-miterlimit:10;stroke-width:2px;}</style></defs><title>ico</title><rect class="cls-1" x="14.51" y="1.69" width="33.33" height="58.97" rx="5.13" ry="5.13"/><line class="cls-1" x1="47.85" y1="50.41" x2="14.51" y2="50.41"/><line class="cls-1" x1="47.85" y1="11.95" x2="14.51" y2="11.95"/><line class="cls-1" x1="24.77" y1="6.82" x2="37.59" y2="6.82"/><path class="cls-1" d="M31.18,56.82a1.28,1.28,0,0,1-1.28-1.28h0a1.28,1.28,0,0,1,1.28-1.28h0a1.28,1.28,0,0,1,1.28,1.28h0a1.28,1.28,0,0,1-1.28,1.28Z"/><line class="cls-1" x1="22.21" y1="19.64" x2="40.16" y2="19.64"/><line class="cls-1" x1="22.21" y1="24.77" x2="40.16" y2="24.77"/><line class="cls-1" x1="22.21" y1="29.9" x2="40.16" y2="29.9"/><line class="cls-1" x1="22.21" y1="35.03" x2="40.16" y2="35.03"/><line class="cls-1" x1="22.21" y1="40.16" x2="32.46" y2="40.16"/></svg>