<svg   data-name="Layer 1" xmlns="http://www.w3.org/2000/svg" viewBox="0 0 62.36 62.36"><defs><style>.cls-1{fill:none;stroke:#ef4459;stroke-miterlimit:10;stroke-width:2px;}</style></defs><title>ico</title><path class="cls-1" d="M31.18,23a29,29,0,0,0-29,29h58A29,29,0,0,0,31.18,23Z"/><path class="cls-1" d="M56,29.29c-13.5-15.6-36.11-15.58-49.6,0"/><circle class="cls-1" cx="26.14" cy="14.16" r="3.78"/><circle class="cls-1" cx="36.23" cy="14.16" r="3.78"/><circle class="cls-1" cx="31.18" cy="38.36" r="8.5"/><path class="cls-1" d="M31.18,42.61a.84.84,0,1,0,.84.84.84.84,0,0,0-.84-.84Z"/><path class="cls-1" d="M28.63,35.81a2.55,2.55,0,1,1,2.55,2.55v2.55"/></svg>