<svg id="Layer_1" data-name="Layer 1" xmlns="http://www.w3.org/2000/svg" viewBox="0 0 62.36 62.36"><defs><style>.cls-1,.cls-2{fill:none;stroke:#ef4459;stroke-miterlimit:10;}.cls-1{stroke-width:2px;}</style></defs><title>icon</title><path class="cls-1" d="M16.94,41.89v5.29L6.87,50.8a5.63,5.63,0,0,0-3.93,5.38v4h38v-4a5.79,5.79,0,0,0-4.1-5.38l-9.9-3.62V41.41"/><ellipse class="cls-1" cx="21.61" cy="31.31" rx="9.95" ry="11.94"/><path class="cls-1" d="M31.53,30.26c-0.33,0-.63,0-1,0.06-3.39.65-5.57-.57-7.44-3.84-1.12,2.15-4.62,3.84-7.5,3.84a8.07,8.07,0,0,1-3.88-.9"/><path class="cls-1" d="M28.16,17.31C28.16,9,35.5,2.18,44.55,2.18S60.94,9,60.94,17.31a15.18,15.18,0,0,1-10.09,14c-1.26,1.16-8.66,7.46-9.92,8.73,0-1.26,0-6.31,0-7.74a17.31,17.31,0,0,1-3.83-1"/><polygon class="cls-2" points="51.94 17.18 49.94 17.18 49.94 19.18 51.94 19.18 51.94 17.18 51.94 17.18"/><polygon class="cls-2" points="45.94 17.18 43.94 17.18 43.94 19.18 45.94 19.18 45.94 17.18 45.94 17.18"/><polygon class="cls-2" points="39.94 17.18 37.94 17.18 37.94 19.18 39.94 19.18 39.94 17.18 39.94 17.18"/></svg>