<svg   data-name="Layer 1" xmlns="http://www.w3.org/2000/svg" viewBox="0 0 62.36 62.36"><defs><style>.cls-1{fill:none;stroke:#ef4459;stroke-linecap:round;stroke-linejoin:round;stroke-width:2px;}</style></defs><title>ico</title><rect class="cls-1" x="3.38" y="2.12" width="55.6" height="58.13"/><path class="cls-1" d="M21.07,9.7a2.53,2.53,0,0,1-2.53,2.53H13.49A2.53,2.53,0,0,1,11,9.7h0a2.54,2.54,0,0,1,2.53-2.53h5.05A2.53,2.53,0,0,1,21.07,9.7Z"/><path class="cls-1" d="M21.07,19.81a2.53,2.53,0,0,1-2.53,2.53H13.49A2.53,2.53,0,0,1,11,19.81h0a2.54,2.54,0,0,1,2.53-2.53h5.05a2.53,2.53,0,0,1,2.53,2.53Z"/><path class="cls-1" d="M21.07,52.66a2.53,2.53,0,0,1-2.53,2.53H13.49A2.53,2.53,0,0,1,11,52.66h0a2.54,2.54,0,0,1,2.53-2.53h5.05a2.53,2.53,0,0,1,2.53,2.53Z"/><path class="cls-1" d="M36.24,9.7a2.53,2.53,0,0,1-2.53,2.53H28.65A2.53,2.53,0,0,1,26.13,9.7h0a2.54,2.54,0,0,1,2.53-2.53h5.05A2.53,2.53,0,0,1,36.24,9.7Z"/><path class="cls-1" d="M51.4,29.92a2.53,2.53,0,0,1-2.53,2.53H43.82a2.53,2.53,0,0,1-2.53-2.53h0a2.54,2.54,0,0,1,2.53-2.53h5.05a2.54,2.54,0,0,1,2.53,2.53Z"/><path class="cls-1" d="M51.4,9.7a2.53,2.53,0,0,1-2.53,2.53H43.82A2.53,2.53,0,0,1,41.29,9.7h0a2.54,2.54,0,0,1,2.53-2.53h5.05A2.54,2.54,0,0,1,51.4,9.7Z"/><path class="cls-1" d="M51.4,19.81a2.53,2.53,0,0,1-2.53,2.53H43.82a2.53,2.53,0,0,1-2.53-2.53h0a2.54,2.54,0,0,1,2.53-2.53h5.05a2.54,2.54,0,0,1,2.53,2.53Z"/><path class="cls-1" d="M36.24,42.55a2.53,2.53,0,0,1-2.53,2.53H28.65a2.53,2.53,0,0,1-2.53-2.53h0A2.54,2.54,0,0,1,28.65,40h5.05a2.53,2.53,0,0,1,2.53,2.53Z"/><path class="cls-1" d="M36.24,52.66a2.53,2.53,0,0,1-2.53,2.53H28.65a2.53,2.53,0,0,1-2.53-2.53h0a2.54,2.54,0,0,1,2.53-2.53h5.05a2.53,2.53,0,0,1,2.53,2.53Z"/><line class="cls-1" x1="31.18" y1="55.19" x2="31.18" y2="60.24"/><line class="cls-1" x1="16.02" y1="55.19" x2="16.02" y2="60.24"/><line class="cls-1" x1="31.18" y1="45.08" x2="31.18" y2="50.14"/><line class="cls-1" x1="31.18" y1="12.23" x2="31.18" y2="40.03"/><line class="cls-1" x1="16.02" y1="22.34" x2="16.02" y2="50.14"/><line class="cls-1" x1="16.02" y1="12.23" x2="16.02" y2="17.28"/><line class="cls-1" x1="16.02" y1="2.12" x2="16.02" y2="7.17"/><line class="cls-1" x1="31.18" y1="2.12" x2="31.18" y2="7.17"/><line class="cls-1" x1="46.34" y1="22.34" x2="46.34" y2="27.39"/><line class="cls-1" x1="46.34" y1="32.44" x2="46.34" y2="60.24"/><line class="cls-1" x1="46.34" y1="12.23" x2="46.34" y2="17.28"/><line class="cls-1" x1="46.34" y1="2.12" x2="46.34" y2="7.17"/></svg>