<svg   data-name="Layer 1" xmlns="http://www.w3.org/2000/svg" viewBox="0 0 62.36 62.36"><defs><style>.cls-1{fill:none;stroke:#ef4459;stroke-linecap:round;stroke-linejoin:round;stroke-width:2px;}</style></defs><title>ico</title><path class="cls-1" d="M19.83,45.05H7.22a5,5,0,0,1-5-5V7.22a5,5,0,0,1,5-5H55.14a5,5,0,0,1,5,5v22.7"/><polyline class="cls-1" points="19.83 40.01 12.27 40.01 12.27 7.22 52.62 7.22 52.62 29.92"/><path class="cls-1" d="M56.4,22.36a1.26,1.26,0,1,0,1.26,1.26,1.26,1.26,0,0,0-1.26-1.26Z"/><path class="cls-1" d="M45.05,34.48V21c0-1.35-.55-2.45-1.89-2.45H39.51c-1.34,0-2,1.1-2,2.45V44.27l-4.34-5.19a2.62,2.62,0,0,0-2-.93l-2.52,0a2.46,2.46,0,0,0-2.17,3.62l9.42,17.09A2.42,2.42,0,0,0,38,60.18H54.1a2.44,2.44,0,0,0,2.25-1.51l3.83-16.85a2.39,2.39,0,0,0-1.49-2.45Z"/><path class="cls-1" d="M8.49,23.62a1.26,1.26,0,0,1-1.26,1.26h0A1.26,1.26,0,0,1,6,23.62H6a1.26,1.26,0,0,1,1.26-1.26h0a1.26,1.26,0,0,1,1.26,1.26Z"/></svg>