<svg id="contact" data-name="Layer 1" xmlns="http://www.w3.org/2000/svg" viewBox="0 0 62.36 62.36"><defs><style>.cls-1{fill:none;stroke:#ef4459;stroke-linecap:round;stroke-linejoin:round;stroke-width:2px;}</style></defs><title>icon</title><path class="cls-1" d="M30.18,37.31v18c-0.26,2.79-2.21,5-5,5h-18a5,5,0,0,1-5-5v-38a5,5,0,0,1,5-5h8"/><line class="cls-1" x1="14.18" y1="22.31" x2="2.18" y2="22.31"/><line class="cls-1" x1="30.18" y1="50.31" x2="2.18" y2="50.31"/><line class="cls-1" x1="12.18" y1="17.31" x2="14.18" y2="17.31"/><path class="cls-1" d="M60.18,20.31a4.16,4.16,0,0,1-4,4H42.31l-8.13,8v-8h-8a4.16,4.16,0,0,1-4-4v-14a4.17,4.17,0,0,1,4-4h30a4.17,4.17,0,0,1,4,4v14Z"/><path class="cls-1" d="M41.27,12.4a1.26,1.26,0,1,0,1.26,1.26,1.26,1.26,0,0,0-1.26-1.26h0Z"/><path class="cls-1" d="M47.57,12.4a1.26,1.26,0,1,0,1.26,1.26,1.26,1.26,0,0,0-1.26-1.26h0Z"/><path class="cls-1" d="M35,12.4a1.26,1.26,0,1,0,1.26,1.26A1.26,1.26,0,0,0,35,12.4h0Z"/><circle class="cls-1" cx="16.05" cy="55.27" r="1.26"/></svg>