<svg id="settlement" data-name="Layer 1" xmlns="http://www.w3.org/2000/svg" viewBox="0 0 62.36 62.36"><defs><style>.cls-1{fill:none;stroke:#ef4459;stroke-linecap:round;stroke-linejoin:round;stroke-width:2px;}</style></defs><title>icon</title><path class="cls-1" d="M40.18,7.5c0,2.79-8.55,5-19,5s-19-2.21-19-5,8.56-5,19-5S40.18,4.71,40.18,7.5Z"/><path class="cls-1" d="M40.18,7.5v7c0,3-9,5-19,5s-19-2-19-5v-7"/><path class="cls-1" d="M40.18,14.5v7c0,3-9,5-19,5s-19-2-19-5v-7"/><path class="cls-1" d="M40.18,21.5v7c0,3-9,5-19,5s-19-2-19-5v-7"/><path class="cls-1" d="M60.18,41.5c0,2.79-8.55,5-19,5s-19-2.21-19-5,8.56-5,19-5S60.18,38.71,60.18,41.5Z"/><path class="cls-1" d="M60.18,41.5v7c0,3-9,5-19,5s-19-2-19-5v-7"/><path class="cls-1" d="M60.18,48.5v7c0,3-9,5-19,5s-19-2-19-5v-7"/><path class="cls-1" d="M2.18,28.5v7c0,3,9,5,19,5l1.39,0"/><path class="cls-1" d="M39.81,36.51a1.72,1.72,0,0,0,.37-1v-7"/><path class="cls-1" d="M2.18,35.5v7c0,3,9,5,19,5h1"/></svg>