<svg id="getin" data-name="Layer 1" xmlns="http://www.w3.org/2000/svg" viewBox="0 0 62.36 62.36"><defs><style>.cls-1{fill:none;stroke:#ef4459;stroke-linecap:round;stroke-linejoin:round;stroke-width:2px;}</style></defs><title>icon</title><polyline class="cls-1" points="48.18 36.18 48.18 3.18 14.18 3.18 14.18 36.18"/><line class="cls-1" x1="22.35" y1="9.18" x2="24.88" y2="9.18"/><line class="cls-1" x1="27.4" y1="13.18" x2="40.01" y2="13.18"/><line class="cls-1" x1="22.35" y1="19.18" x2="40.01" y2="19.18"/><line class="cls-1" x1="22.35" y1="25.18" x2="40.01" y2="25.18"/><line class="cls-1" x1="22.35" y1="31.44" x2="40.01" y2="31.44"/><path class="cls-1" d="M60.18,59.18h-58v-18h20v3c0,2.77,1.23,5,4,5h11a5,5,0,0,0,5-5v-3h18v18Z"/><polyline class="cls-1" points="2.18 41.18 11.18 27.18 14.18 27.18"/><polyline class="cls-1" points="48.18 27.18 51.18 27.18 60.18 41.18"/></svg>