<svg id="ncr" data-name="Layer 1" xmlns="http://www.w3.org/2000/svg" viewBox="0 0 62.36 62.36"><defs></defs><title>icon</title><path class="cls-1" d="M46.91,17.42c4.59,0,7.09,2.4,7.09,5.52s-2.64,5.38-5.45,6l4.84,6A25.33,25.33,0,0,0,59,40H55.89a4.5,4.5,0,0,1-4-1.71S49,34.47,48,33s-3.43-4.74-3.43-4.74c2.74-.41,5.93-1.68,5.93-4.9,0-2.47-2.12-3.91-4.42-3.8a17.9,17.9,0,0,0-2.33.28V35.17c0,1.58-.2,4.08,1.54,4.69V40H38.76v-0.1c1.75-.62,1.51-3.15,1.51-4.69V22.25c0-1.58.24-4.08-1.51-4.73v-0.1h8.15Z"/><path class="cls-1" d="M30.06,16.32a14,14,0,0,0-3.95.55,11.71,11.71,0,0,0-2.79,1.22A11.06,11.06,0,0,0,18.07,27l5.77,7.29V33.66a10.3,10.3,0,0,1-1.91-6.07,8.79,8.79,0,0,1,1.91-5.71,7.31,7.31,0,0,1,2.5-1.94A8.35,8.35,0,0,1,30,19.16a11.9,11.9,0,0,1,6.34,2V17.18a27.34,27.34,0,0,0-6.23-.86"/><path class="cls-1" d="M37,35.51a13.82,13.82,0,0,1-7.3,2.16,9.7,9.7,0,0,1-6.41-2.75A40.08,40.08,0,0,1,20,31.28c-1.16-1.43-5.9-7.53-8.45-10.83-1-1.28-1.82-2.46-1.88-2.57a2.57,2.57,0,0,1-.19-0.45H4v0.1c1.78,1,1.78,2.4,1.78,4.32V35.51c0,1.92,0,3.29-1.82,4.35V40h6.53v-0.1c-1.82-1.06-1.78-2.43-1.78-4.35V22.25l9.19,11.66s0.6,0.75,1.71,2a11.77,11.77,0,0,0,5.85,4,16.19,16.19,0,0,0,4.8.62,12.16,12.16,0,0,0,5.17-1l1.75-4H37Z"/><path class="cls-1" d="M2,46.86V43H2.56L3.78,45a10.31,10.31,0,0,1,.68,1.24h0c0-.51-0.06-1-0.06-1.56V43H4.88v3.82H4.38L3.17,44.92a11,11,0,0,1-.71-1.28h0c0,0.48,0,.94,0,1.57v1.63H2Z"/><path class="cls-1" d="M7.16,45.46c-0.54,0-1.16.09-1.16,0.62a0.44,0.44,0,0,0,.47.48,0.69,0.69,0,0,0,.67-0.46,0.53,0.53,0,0,0,0-.16V45.46ZM7.65,46.2a4.53,4.53,0,0,0,0,.66H7.24l0-.35h0a1,1,0,0,1-.84.41,0.78,0.78,0,0,1-.84-0.79c0-.66.59-1,1.65-1V45.06a0.56,0.56,0,0,0-.62-0.64,1.34,1.34,0,0,0-.72.2l-0.11-.33a1.77,1.77,0,0,1,.91-0.24,1,1,0,0,1,1,1.12v1Z"/><path class="cls-1" d="M9,43.46v0.66H9.74V44.5H9V46c0,0.34.1,0.53,0.37,0.53a0.94,0.94,0,0,0,.29,0l0,0.38a1.37,1.37,0,0,1-.44.07,0.71,0.71,0,0,1-.54-0.21A1.07,1.07,0,0,1,8.54,46V44.5H8.11V44.12H8.54v-0.5Z"/><path class="cls-1" d="M10.3,44.12h0.5v2.74H10.3V44.12Zm0.24-.5a0.32,0.32,0,0,1,0-.64,0.31,0.31,0,0,1,.32.32,0.31,0.31,0,0,1-.32.32h0Z"/><path class="cls-1" d="M12.76,46.55a0.94,0.94,0,0,0,.83-1.07,0.93,0.93,0,0,0-.82-1,1.09,1.09,0,0,0,0,2.12h0Zm0,0.37a1.31,1.31,0,0,1-1.31-1.41,1.34,1.34,0,0,1,1.36-1.46,1.3,1.3,0,0,1,1.32,1.4,1.34,1.34,0,0,1-1.36,1.46h0Z"/><path class="cls-1" d="M14.73,44.86c0-.29,0-0.52,0-0.74h0.44l0,0.45h0a1,1,0,0,1,.91-0.51,1,1,0,0,1,1,1.17v1.64h-0.5V45.28a0.67,0.67,0,0,0-.63-0.82,0.72,0.72,0,0,0-.67.51,0.76,0.76,0,0,0,0,.23v1.65h-0.5v-2Z"/><path class="cls-1" d="M19.32,45.46c-0.54,0-1.16.09-1.16,0.62a0.44,0.44,0,0,0,.46.48,0.69,0.69,0,0,0,.67-0.46,0.51,0.51,0,0,0,0-.16V45.46Zm0.49,0.74a4.53,4.53,0,0,0,0,.66H19.4l0-.35h0a1,1,0,0,1-.84.41,0.78,0.78,0,0,1-.84-0.79c0-.66.59-1,1.65-1V45.06a0.56,0.56,0,0,0-.62-0.64,1.33,1.33,0,0,0-.72.2l-0.11-.33a1.76,1.76,0,0,1,.91-0.24,1,1,0,0,1,1,1.12v1Z"/><rect class="cls-1" x="20.61" y="42.84" width="0.5" height="4.02"/><path class="cls-1" d="M25.81,46.74a2.4,2.4,0,0,1-1,.18A1.78,1.78,0,0,1,22.93,45a1.9,1.9,0,0,1,2-2,2.07,2.07,0,0,1,.91.17l-0.12.4a1.75,1.75,0,0,0-.77-0.16A1.42,1.42,0,0,0,23.45,45a1.38,1.38,0,0,0,1.46,1.53,2,2,0,0,0,.81-0.16Z"/><path class="cls-1" d="M26.42,45c0-.32,0-0.6,0-0.86h0.44l0,0.54h0a0.83,0.83,0,0,1,.76-0.6l0.14,0v0.47H27.6a0.7,0.7,0,0,0-.67.63,1.76,1.76,0,0,0,0,.24v1.46h-0.5V45Z"/><path class="cls-1" d="M30,45.22a0.71,0.71,0,0,0-.69-0.81,0.82,0.82,0,0,0-.76.81H30Zm-1.46.36a0.87,0.87,0,0,0,.94,1,1.88,1.88,0,0,0,.76-0.14l0.09,0.35a2.22,2.22,0,0,1-.92.18A1.28,1.28,0,0,1,28,45.53,1.34,1.34,0,0,1,29.33,44a1.16,1.16,0,0,1,1.13,1.29,1.27,1.27,0,0,1,0,.24H28.52Z"/><path class="cls-1" d="M32.94,45.23a1,1,0,0,0,0-.22,0.73,0.73,0,0,0-.72-0.57,0.91,0.91,0,0,0-.82,1.05,0.88,0.88,0,0,0,.81,1,0.76,0.76,0,0,0,.73-0.6,0.9,0.9,0,0,0,0-.22V45.23Zm0.5-2.4v3.31c0,0.24,0,.52,0,0.71H33l0-.48h0a1,1,0,0,1-.93.54,1.25,1.25,0,0,1-1.18-1.39,1.31,1.31,0,0,1,1.23-1.47,0.91,0.91,0,0,1,.83.41h0V42.84h0.5Z"/><path class="cls-1" d="M34.27,44.12h0.5v2.74h-0.5V44.12Zm0.24-.5a0.32,0.32,0,0,1,0-.64,0.31,0.31,0,0,1,.32.32,0.31,0.31,0,0,1-.32.32h0Z"/><path class="cls-1" d="M36.19,43.46v0.66h0.71V44.5H36.19V46c0,0.34.1,0.53,0.37,0.53a0.94,0.94,0,0,0,.29,0l0,0.38a1.37,1.37,0,0,1-.44.07,0.71,0.71,0,0,1-.54-0.21A1.07,1.07,0,0,1,35.71,46V44.5H35.28V44.12h0.42v-0.5Z"/><path class="cls-1" d="M39.18,44.83h0.5a0.75,0.75,0,0,0,.86-0.72,0.73,0.73,0,0,0-.88-0.71,2.09,2.09,0,0,0-.49,0v1.39ZM38.69,43.1A5,5,0,0,1,39.63,43a1.57,1.57,0,0,1,1.11.32,1,1,0,0,1,.3.73,1,1,0,0,1-.72,1v0a1,1,0,0,1,.56.77,6.86,6.86,0,0,0,.29,1H40.66a4.83,4.83,0,0,1-.25-0.91,0.74,0.74,0,0,0-.77-0.74H39.18v1.65H38.69V43.1Z"/><path class="cls-1" d="M43.47,45.22a0.71,0.71,0,0,0-.68-0.81,0.82,0.82,0,0,0-.77.81h1.45ZM42,45.57a0.87,0.87,0,0,0,.94,1,1.88,1.88,0,0,0,.76-0.14l0.09,0.35a2.21,2.21,0,0,1-.92.18,1.28,1.28,0,0,1-1.35-1.38A1.34,1.34,0,0,1,42.83,44,1.16,1.16,0,0,1,44,45.34a1.34,1.34,0,0,1,0,.24H42Z"/><path class="cls-1" d="M46.42,45.19a0.69,0.69,0,0,0,0-.22,0.71,0.71,0,0,0-.7-0.53,0.9,0.9,0,0,0-.82,1,0.86,0.86,0,0,0,.81,1A0.72,0.72,0,0,0,46.38,46a0.88,0.88,0,0,0,0-.27V45.19Zm0.5,1.26a1.61,1.61,0,0,1-.39,1.26,1.51,1.51,0,0,1-1,.33,1.76,1.76,0,0,1-.91-0.23l0.12-.39a1.5,1.5,0,0,0,.81.22,0.83,0.83,0,0,0,.88-1v-0.3h0a1,1,0,0,1-.87.46,1.23,1.23,0,0,1-1.17-1.34,1.31,1.31,0,0,1,1.24-1.45,0.91,0.91,0,0,1,.86.47h0l0-.41h0.44c0,0.19,0,.41,0,0.75v1.59Z"/><path class="cls-1" d="M50,46.11c0,0.28,0,.53,0,0.75H49.61l0-.45h0a1,1,0,0,1-.91.51,1,1,0,0,1-.95-1.2v-1.6h0.5v1.51c0,0.52.16,0.88,0.61,0.88a0.71,0.71,0,0,0,.7-0.71V44.12H50v2Z"/><rect class="cls-1" x="50.86" y="42.84" width="0.5" height="4.02"/><path class="cls-1" d="M53.63,45.46c-0.54,0-1.16.09-1.16,0.62a0.44,0.44,0,0,0,.47.48,0.69,0.69,0,0,0,.67-0.46,0.53,0.53,0,0,0,0-.16V45.46Zm0.49,0.74a4.53,4.53,0,0,0,0,.66H53.71l0-.35h0a1,1,0,0,1-.84.41A0.78,0.78,0,0,1,52,46.13c0-.66.59-1,1.65-1V45.06A0.56,0.56,0,0,0,53,44.42a1.33,1.33,0,0,0-.72.2l-0.11-.33a1.77,1.77,0,0,1,.91-0.24,1,1,0,0,1,1,1.12v1Z"/><path class="cls-1" d="M55.5,43.46v0.66h0.71V44.5H55.5V46c0,0.34.1,0.53,0.37,0.53a1,1,0,0,0,.29,0l0,0.38a1.38,1.38,0,0,1-.44.07,0.71,0.71,0,0,1-.54-0.21A1.08,1.08,0,0,1,55,46V44.5H54.58V44.12H55v-0.5Z"/><path class="cls-1" d="M57.87,46.55a1,1,0,0,0,.83-1.07,0.86,0.86,0,1,0-.84,1.07h0Zm0,0.37a1.31,1.31,0,0,1-1.31-1.41,1.34,1.34,0,0,1,1.36-1.46,1.3,1.3,0,0,1,1.32,1.4,1.34,1.34,0,0,1-1.36,1.46h0Z"/><path class="cls-1" d="M59.85,45c0-.32,0-0.6,0-0.86h0.44l0,0.54h0a0.83,0.83,0,0,1,.77-0.6l0.14,0v0.47H61a0.7,0.7,0,0,0-.67.63,1.76,1.76,0,0,0,0,.24v1.46h-0.5V45Z"/></svg>