<?xml version="1.0" encoding="utf-8"?>
<svg version="1.1"   xmlns="http://www.w3.org/2000/svg" xmlns:xlink="http://www.w3.org/1999/xlink" x="0px" y="0px"
	 viewBox="-49 141 512 512" style="enable-background:new -49 141 512 512;" xml:space="preserve">
<style type="text/css">
	.st0{fill:#EF4459;}
</style>
<path id="quote-12-icon" class="st0" d="M195.6,376.9c0,40.9-25.8,68.5-63.4,76l-7.1-15.4c17.4-6.6,28.5-22.3,28.5-38.1h-29.4v-68.2
	h71.5C195.6,331.2,195.6,352.9,195.6,376.9z M296,376.9c0,40.9-25.8,68.5-63.4,76l-7.1-15.4c17.4-6.6,28.5-22.3,28.5-38.1h-29.4
	v-68.2H296C296,331.2,296,352.9,296,376.9z M1.9,587.6c16.7-33.1,35.2-78.6,34.2-110.4C13.7,450.2,1,415.3,1,379.8
	c0-100.2,97.2-173.4,206-173.4c108.1,0,206,72.7,206,173.4c0,104.9-115.6,202.9-274.1,163.9C110.1,561.5,46.6,579.5,1.9,587.6z
	 M207,246.5c-91.5,0-165.9,59.8-165.9,133.3c0,38.7,16.7,63,40.3,87.1c-4.8,35.7-16.3,66.7-16.3,66.7s34-9,72.6-31.6
	c147.8,39.2,235.2-46.1,235.2-122.2C372.9,306.3,298.5,246.5,207,246.5z"/>
</svg>
