<svg id="team" data-name="Layer 1" xmlns="http://www.w3.org/2000/svg" viewBox="0 0 62.36 62.36"><defs><style>.cls-1,.cls-2,.cls-3{fill:none;stroke:#ef4459;stroke-width:2px;}.cls-1,.cls-3{stroke-miterlimit:10;}.cls-2{stroke-linejoin:round;}.cls-3{stroke-linecap:round;}</style></defs><title>icon</title><path class="cls-1" d="M11.68,18.4v3.46L5.1,23.6a3.55,3.55,0,0,0-2.42,3.21v1H17.55"/><path class="cls-1" d="M18.68,18.49v3.37l6.79,1.74a3.41,3.41,0,0,1,2.21,3.26v1H15"/><ellipse class="cls-1" cx="15.29" cy="11.11" rx="7.57" ry="8.25"/><path class="cls-2" d="M22.78,9.67c-1.26,1.26-4.87,1.2-6.23-1.33A7.25,7.25,0,0,1,7.89,9.42"/><path class="cls-1" d="M43.68,18.38v3.48L37.1,23.6a3.55,3.55,0,0,0-2.42,3.21v1H49.55"/><path class="cls-1" d="M50.68,18.48v3.38l6.79,1.74a3.41,3.41,0,0,1,2.21,3.26v1H47"/><ellipse class="cls-1" cx="47.29" cy="11.11" rx="7.57" ry="8.25"/><path class="cls-2" d="M54.78,9.67c-1.26,1.26-4.87,1.2-6.23-1.33a7.25,7.25,0,0,1-8.66,1.08"/><path class="cls-1" d="M26.9,50v3.52l-6.4,1.83a3.55,3.55,0,0,0-2.42,3.21v1.26H31.94"/><path class="cls-1" d="M34.46,50v3.52l6.4,1.83a3.55,3.55,0,0,1,2.43,3.21v1.26H29.42"/><ellipse class="cls-1" cx="30.68" cy="42.89" rx="7.57" ry="8.25"/><path class="cls-2" d="M38.13,41.38a4.26,4.26,0,0,1-6.19-1.26,7.25,7.25,0,0,1-8.66,1.08"/><line class="cls-3" x1="10.51" y1="32.12" x2="16.81" y2="38.43"/><line class="cls-3" x1="50.85" y1="32.12" x2="44.55" y2="38.43"/></svg>