<?xml version="1.0" encoding="utf-8"?>
<!-- Generator: Adobe Illustrator 19.1.0, SVG Export Plug-In . SVG Version: 6.00 Build 0)  -->
<svg version="1.1" id="Layer_1" xmlns="http://www.w3.org/2000/svg" xmlns:xlink="http://www.w3.org/1999/xlink" x="0px" y="0px"
	 viewBox="-49 141 512 512" style="enable-background:new -49 141 512 512;" xml:space="preserve">
<style type="text/css">
	.st0{fill:#EF4459;}
</style>
<path id="puzzle-15" class="st0" d="M69.7,397c0-21.6-15.9-34.3-28.4-34.3c-11.2,0-15,6-19.6,10.6c-9.3,9.3-20.7,5.4-20.7-9.7V294
	h206v69.5c0,16,9.9,23.3,19,23.3c5.7,0,11.5-2.7,16.4-7.5c4.9-5.1,6.7-8,13.5-8c8.1,0,19.8,9.2,19.8,25.8s-11.7,25.8-19.8,25.8
	c-6.8,0-8.6-3-13.5-8c-4.8-4.8-10.7-7.5-16.4-7.5c-9.2,0-19,7.3-19,23.3V500h-69.5c-15.1,0-19,11.4-9.7,20.8
	c4.6,4.6,10.5,8.3,10.5,19.5c0,12.4-12.7,28.4-34.3,28.4c-21.7,0-34.3-15.9-34.3-28.4c0-11.2,6-15,10.5-19.5
	c9.4-9.3,5.4-20.8-9.7-20.8H1v-69.5c0-15.1,11.5-19,20.7-9.7c4.6,4.6,8.4,10.6,19.6,10.6C53.8,431.3,69.7,418.6,69.7,397z
	 M286.2,273.2c9.4,9.3,5.4,20.8-9.7,20.8h-52.4v69.5c0,9.1,2.3,7.6,7.8,1.9c4.2-4.5,10.6-11.3,23.9-11.3c17.8,0,36.9,17.2,36.9,42.9
	c0,25.7-19.1,42.9-36.9,42.9c-13.3,0-19.7-6.8-23.9-11.3c-5.4-5.7-7.8-7.3-7.8,1.9V500H413V294h-69.5c-15.1,0-19-11.4-9.7-20.8
	c4.6-4.6,10.6-8.3,10.6-19.5c0-12.4-12.7-28.4-34.3-28.4c-21.7,0-34.3,15.9-34.3,28.4C275.7,264.9,281.6,268.7,286.2,273.2z"/>
</svg>
