<svg id="debtman" data-name="Layer 1" xmlns="http://www.w3.org/2000/svg" viewBox="0 0 62.36 62.36"><defs><style>.cls-1,.cls-2{fill:none;stroke:#ef4459;stroke-linecap:round;stroke-width:2px;}.cls-1{stroke-linejoin:round;}.cls-2{stroke-miterlimit:10;}</style></defs><title>icon</title><path class="cls-1" d="M30.19,32.18c0,1.39-6,3-13,3s-13-1.61-13-3,6-3,13-3S30.19,30.79,30.19,32.18Z"/><path class="cls-1" d="M4.19,32.18v5c0,1.39,6,3,13,3s13-1.61,13-3v-5"/><path class="cls-1" d="M4.19,37.18v5c0,1.39,6,3,13,3s13-1.61,13-3v-5"/><path class="cls-1" d="M4.19,42.18v5c0,1.39,6,3,13,3s13-1.61,13-3v-5"/><path class="cls-1" d="M4.19,47.18v5c0,1.39,6,3,13,3s13-1.61,13-3v-5"/><path class="cls-1" d="M4.19,52.18v5c0,1.39,6,3,13,3s13-1.61,13-3v-5"/><polyline class="cls-2" points="2.19 24.18 2.19 2.18 60.19 2.18 60.19 38.18 39.19 38.18"/><circle class="cls-1" cx="31.19" cy="20.18" r="7"/><circle class="cls-1" cx="48.19" cy="26.18" r="2"/><circle class="cls-1" cx="14.19" cy="14.18" r="2"/><path class="cls-2" d="M6.19,24.18v-13a5,5,0,0,1,5-5h40a5,5,0,0,1,5,5v18a5,5,0,0,1-5,5h-12"/></svg>