<svg id="credit" data-name="Layer 1" xmlns="http://www.w3.org/2000/svg" viewBox="0 0 62.36 62.36"><defs><style>.cls-1{fill:none;stroke:#ef4459;stroke-linecap:round;stroke-linejoin:round;stroke-width:2px;}</style></defs><title>icon</title><polyline class="cls-1" points="54.18 41.18 45.18 51.18 40.18 46.18"/><circle class="cls-1" cx="47.18" cy="46.18" r="14"/><path class="cls-1" d="M27.14,54.18h-20c-2.77,0-4-1.23-4-4v-40h10"/><polyline class="cls-1" points="25.88 50.18 7.18 50.18 7.18 14.18 13.18 14.18"/><polyline class="cls-1" points="43.18 24.88 43.18 10.18 33.18 10.18"/><path class="cls-1" d="M28.4,6.18c0-2.09-1.26-4-5-4s-5,1.91-5,4H13.18v12h20v-12H28.4Z"/><polyline class="cls-1" points="33.18 14.18 39.18 14.18 39.18 25.18"/><line class="cls-1" x1="15.79" y1="24.18" x2="28.4" y2="24.18"/><line class="cls-1" x1="15.79" y1="30.18" x2="28.4" y2="30.18"/><line class="cls-1" x1="15.79" y1="36.18" x2="28.4" y2="36.18"/><line class="cls-1" x1="15.79" y1="42.18" x2="23.35" y2="42.18"/></svg>