<?xml version="1.0" encoding="utf-8"?>

<!-- License Agreement at http://iconmonstr.com/license/ -->

<!DOCTYPE svg PUBLIC "-//W3C//DTD SVG 1.1//EN" "http://www.w3.org/Graphics/SVG/1.1/DTD/svg11.dtd">
<svg version="1.1" xmlns="http://www.w3.org/2000/svg" xmlns:xlink="http://www.w3.org/1999/xlink" x="0px" y="0px"
	 width="512px" height="512px" viewBox="0 0 512 512" enable-background="new 0 0 512 512" xml:space="preserve">
<path id="quote-12-icon" d="M244.585,235.857c0,40.854-25.817,68.543-63.435,75.984l-7.127-15.406
	c17.42-6.566,28.469-22.28,28.469-38.115h-29.406v-68.16h71.499C244.585,190.16,244.585,211.918,244.585,235.857z M344.969,235.857
	c0,40.854-25.815,68.543-63.435,75.984l-7.127-15.406c17.419-6.566,28.471-22.28,28.471-38.115h-29.407v-68.16h71.498
	C344.969,190.16,344.969,211.918,344.969,235.857z M50.918,446.647C67.583,413.5,86.083,368,85.135,336.276
	C62.684,309.204,50,274.316,50,238.783c0-100.183,97.19-173.431,206-173.431c108.132,0,206,72.698,206,173.431
	c0,104.894-115.562,202.853-274.119,163.914C159.083,420.5,95.583,438.5,50.918,446.647z M256,105.469
	c-91.469,0-165.884,59.805-165.884,133.314c0,38.68,16.694,63.037,40.256,87.055c-4.789,35.662-16.289,66.662-16.289,66.662
	s34-9,72.629-31.56c147.805,39.194,235.171-46.094,235.171-122.157C421.883,165.273,347.468,105.469,256,105.469z"/>
</svg>
