<svg id="debtreview" data-name="Layer 1" xmlns="http://www.w3.org/2000/svg" viewBox="0 0 62.36 62.36"><defs><style>.cls-1{fill:none;stroke:#ef4459;stroke-linecap:round;stroke-linejoin:round;stroke-width:2px;}</style></defs><title>icon</title><path class="cls-1" d="M3,5.1l35.38,9.43a8.27,8.27,0,0,1,5.8,7.55V55.47a4.52,4.52,0,0,1-5.83,4.6L8,52.79a8,8,0,0,1-5.83-7.4V8.13a6,6,0,0,1,6-6h46a6,6,0,0,1,6,6v32a6,6,0,0,1-6,6h-10"/><line class="cls-1" x1="21.89" y1="10.13" x2="50.09" y2="10.13"/><circle class="cls-1" cx="35.17" cy="36.13" r="5"/><line class="cls-1" x1="44.17" y1="24.13" x2="50.09" y2="24.13"/></svg>