<?xml version="1.0" encoding="utf-8"?>

<!-- License Agreement at http://iconmonstr.com/license/ -->

<!DOCTYPE svg PUBLIC "-//W3C//DTD SVG 1.1//EN" "http://www.w3.org/Graphics/SVG/1.1/DTD/svg11.dtd">
<svg version="1.1" id="Layer_1" xmlns="http://www.w3.org/2000/svg" xmlns:xlink="http://www.w3.org/1999/xlink" x="0px" y="0px"
	 width="512px" height="512px" viewBox="0 0 512 512" style="enable-background:new 0 0 512 512;" xml:space="preserve">
<path id="handshake-1" d="M244.475,386.459c-3.177,4.326-8.064,6.605-13.026,6.605c-3.328,0-6.681-1.039-9.573-3.15
	c-7.192-5.299-8.743-15.373-3.47-22.566l18.491-24.994c5.289-7.158,15.39-8.719,22.582-3.404c7.217,5.23,8.775,15.357,3.453,22.531
	L244.475,386.459z M230.317,337.727c5.289-7.176,3.73-17.285-3.454-22.582c-7.225-5.297-17.309-3.723-22.606,3.471l-18.416,24.861
	c-5.298,7.209-3.722,17.334,3.47,22.615c7.167,5.264,17.292,3.738,22.582-3.471L230.317,337.727z M197.71,313.904
	c5.297-7.158,3.722-17.301-3.479-22.564c-7.175-5.266-17.292-3.723-22.557,3.453l-18.592,25.096
	c-5.281,7.191-3.596,17.082,3.596,22.381c7.234,5.297,17.167,3.939,22.456-3.252L197.71,313.904z M165.112,290.115
	c5.281-7.191,3.755-17.283-3.479-22.582c-7.192-5.297-17.292-3.738-22.573,3.453l-18.449,24.912
	c-5.281,7.176-3.722,17.301,3.47,22.564c7.2,5.266,17.301,3.756,22.582-3.453L165.112,290.115z M462,145.263
	c0,0-26.689,5.163-45.767,8.223c-36.849,5.901-71.147-7.142-109.203-26.806c-7.645-3.939-16.446-8.013-25.046-8.013
	c-7.912,0-15.674,3.596-22.188,10.972c-23.445,26.563-37.074,50.042-64.97,66.328c-13.755,8.03,2.397,33.193,31.936,22.85
	c15.071-5.281,29.808-15.356,46.454-28.784c13.093-10.553,20.938-9.002,32.271,2.322c21.24,21.257,92.773,91.843,92.773,91.843
	c22.599-13.947,41.576-22.531,63.738-30.746V145.263z M281.348,362.621c-2.716,7.879-10.611,17.184-16.362,24.979
	c5.097,4.041,10.428,5.734,15.122,5.734c12.305,0,20.418-11.535,9.32-22.633L281.348,362.621z M393.031,303.174
	c-18.373-18.105-81.24-80.116-99.613-98.079c-2.816-2.758-7.242-3.084-10.428-0.763c-10.964,7.963-35.741,25.49-50.553,30.687
	c-28.927,10.125-53.47-3.814-58.742-23.336c-3.302-12.204,1.593-24.191,12.473-30.544c17.309-10.109,28.441-23.604,42.154-40.562
	c-11.928-9.254-23.168-12.564-34.174-12.564c-29.279,0-56.948,23.445-91.609,21.14C78.969,147.585,50,142.22,50,142.22v108.708
	c25.331,5.507,42.146,7.955,67.3,20.595l7.93-10.713c6.253-8.507,16.295-13.587,26.856-13.587c14.928,0,27.845,9.917,31.953,23.831
	c16.329,0,28.608,10.326,32.59,23.805c14.174-0.537,28.164,8.902,32.573,23.771c20.109,0,34.626,15.793,34.023,34.434l20.051,20.068
	c6.303,6.32,16.529,6.303,22.833,0c6.319-6.32,6.319-16.547,0-22.85l-28.936-28.969c-3.772-3.756,1.944-9.49,5.717-5.701
	l34.887,34.887c6.304,6.32,16.529,6.32,22.833,0c6.32-6.32,6.32-16.547,0-22.85l-42.917-42.949c-3.788-3.756,1.929-9.49,5.7-5.701
	l46.354,46.354c6.32,6.32,16.546,6.32,22.85,0C398.697,319.234,398.765,309.512,393.031,303.174z"/>
</svg>
