<svg id="apply" data-name="Layer 1" xmlns="http://www.w3.org/2000/svg" viewBox="0 0 62.36 62.36"><defs><style>.cls-1{fill:none;stroke:#ef4459;stroke-linecap:round;stroke-linejoin:round;stroke-width:2px;}</style></defs><title>icon</title><path class="cls-1" d="M43.34,53.18H6.18a3,3,0,0,1-3-3v-44a3,3,0,0,1,3-3h36a3,3,0,0,1,3,3v36"/><polyline class="cls-1" points="39.18 37.43 39.18 9.18 9.18 9.18 9.18 45.18 39.18 45.18 39.18 44.85"/><path class="cls-1" d="M61.18,61.18l-8-10v-12c0-4.27-3.16-7.87-8-12"/><path class="cls-1" d="M47.18,44.18l-6-6a2.83,2.83,0,0,0-4,4l6,8v2c0,3,5,9,5,9"/><line class="cls-1" x1="20.18" y1="49.18" x2="28.18" y2="49.18"/><line class="cls-1" x1="15.18" y1="23.18" x2="33.18" y2="23.18"/><line class="cls-1" x1="15.18" y1="19.18" x2="33.18" y2="19.18"/><line class="cls-1" x1="15.18" y1="31.18" x2="33.18" y2="31.18"/><line class="cls-1" x1="15.18" y1="27.18" x2="33.18" y2="27.18"/><line class="cls-1" x1="15.18" y1="35.18" x2="33.18" y2="35.18"/><line class="cls-1" x1="15.18" y1="15.18" x2="25.18" y2="15.18"/><path class="cls-1" d="M31.18,48.18a1,1,0,1,0,1,1,1,1,0,0,0-1-1h0Z"/><path class="cls-1" d="M17.18,48.18a1,1,0,1,0,1,1,1,1,0,0,0-1-1h0Z"/></svg>