<svg id="vol" data-name="Layer 1" xmlns="http://www.w3.org/2000/svg" viewBox="0 0 62.36 62.36"><defs><style>.cls-1{fill:none;stroke:#ef4459;stroke-linecap:round;stroke-linejoin:round;stroke-width:2px;}</style></defs><title>icon</title><line class="cls-1" x1="21.18" y1="50.18" x2="11.18" y2="40.18"/><line class="cls-1" x1="11.18" y1="50.18" x2="21.18" y2="40.18"/><line class="cls-1" x1="16.18" y1="10.18" x2="16.18" y2="22.18"/><line class="cls-1" x1="22.18" y1="16.18" x2="10.18" y2="16.18"/><line class="cls-1" x1="38.18" y1="16.18" x2="51.18" y2="16.18"/><line class="cls-1" x1="39.18" y1="16.18" x2="51.18" y2="16.18"/><line class="cls-1" x1="39.18" y1="48.18" x2="51.18" y2="48.18"/><line class="cls-1" x1="39.18" y1="48.18" x2="51.18" y2="48.18"/><line class="cls-1" x1="39.18" y1="42.18" x2="51.18" y2="42.18"/><line class="cls-1" x1="30.18" y1="2.18" x2="30.18" y2="60.18"/><line class="cls-1" x1="2.18" y1="30.18" x2="60.18" y2="30.18"/><path class="cls-1" d="M9.75,2.18H52.62a7.57,7.57,0,0,1,7.57,7.57V52.62a7.56,7.56,0,0,1-7.56,7.56H9.75a7.57,7.57,0,0,1-7.57-7.57V9.75A7.56,7.56,0,0,1,9.75,2.18Z"/></svg>