<?xml version="1.0" encoding="utf-8"?>
<!-- Generator: Adobe Illustrator 19.1.0, SVG Export Plug-In . SVG Version: 6.00 Build 0)  -->
<svg version="1.1" id="Layer_1" xmlns="http://www.w3.org/2000/svg" xmlns:xlink="http://www.w3.org/1999/xlink" x="0px" y="0px"
	 viewBox="-49 141 512 512" style="enable-background:new -49 141 512 512;" xml:space="preserve">
<style type="text/css">
	.st0{fill:#EF4459;}
</style>
<path id="user-14-icon" class="st0" d="M413,500.4H333c0-87-43.5-45.6-43.5-121.9c0-27.5,18-42.5,41.1-42.5
	c34.2,0,58,32.6,25.6,93.7c-10.6,20,11.3,24.8,34.9,30.3C414.8,465.4,413,477.8,413,500.4z M22.8,459.9
	c23.6-5.4,45.5-10.2,34.9-30.3c-32.4-61-8.6-93.7,25.6-93.7c23.1,0,41.1,14.9,41.1,42.5c0,76.2-43.5,34.9-43.5,121.9H1
	C1,477.8-0.8,465.4,22.8,459.9z M283.1,449.5c-29.7-6.8-57.3-12.8-43.9-38.1c40.7-76.8,10.8-117.8-32.2-117.8
	c-43.8,0-73,42.6-32.2,117.8c13.8,25.4-14.9,31.4-43.9,38.1c-29.7,6.8-27.4,22.5-27.4,50.9h207C310.5,472,312.8,456.3,283.1,449.5z"
	/>
</svg>
