<svg id="aboutus" data-name="Layer 1" xmlns="http://www.w3.org/2000/svg" viewBox="0 0 62.36 62.36"><defs><style>.cls-1,.cls-2,.cls-3{fill:none;stroke:#ef4459;stroke-width:2px;}.cls-1,.cls-3{stroke-miterlimit:10;}.cls-2{stroke-linejoin:round;}.cls-3{stroke-linecap:round;}</style></defs><title>icon</title><path class="cls-1" d="M11.88,19.16v3.46L5.3,24.37a3.55,3.55,0,0,0-2.42,3.21v1H17.75"/><path class="cls-1" d="M18.88,19.25v3.37l6.79,1.74a3.41,3.41,0,0,1,2.21,3.26v1H15.23"/><ellipse class="cls-1" cx="15.49" cy="11.87" rx="7.57" ry="8.25"/><path class="cls-2" d="M23,10.43c-1.26,1.26-4.87,1.2-6.23-1.33a7.25,7.25,0,0,1-8.66,1.08"/><path class="cls-1" d="M43.88,19.15v3.48L37.3,24.37a3.55,3.55,0,0,0-2.42,3.21v1H49.75"/><path class="cls-1" d="M50.88,19.24v3.38l6.79,1.74a3.41,3.41,0,0,1,2.21,3.26v1H47.23"/><ellipse class="cls-1" cx="47.49" cy="11.87" rx="7.57" ry="8.25"/><path class="cls-2" d="M55,10.43c-1.26,1.26-4.87,1.2-6.23-1.33a7.25,7.25,0,0,1-8.66,1.08"/><path class="cls-1" d="M27.09,50.8v3.52l-6.4,1.83a3.55,3.55,0,0,0-2.42,3.21v1.26H32.14"/><path class="cls-1" d="M34.66,50.8v3.52l6.4,1.83a3.55,3.55,0,0,1,2.43,3.21v1.26H29.62"/><ellipse class="cls-1" cx="30.88" cy="43.65" rx="7.57" ry="8.25"/><path class="cls-2" d="M38.32,42.14a4.26,4.26,0,0,1-6.19-1.26A7.25,7.25,0,0,1,23.48,42"/><line class="cls-3" x1="10.7" y1="32.88" x2="17.01" y2="39.19"/><line class="cls-3" x1="51.05" y1="32.88" x2="44.75" y2="39.19"/></svg>