<svg id="debtconsolidation" data-name="Layer 1" xmlns="http://www.w3.org/2000/svg" viewBox="0 0 62.36 62.36"><defs><style>.cls-1{fill:none;stroke:#ef4459;stroke-linecap:round;stroke-linejoin:round;stroke-width:2px;}</style></defs><title>icon</title><path class="cls-1" d="M30.94,17.37a20.15,20.15,0,0,1,13,4"/><path class="cls-1" d="M60.94,26.37a5,5,0,0,1-5,5"/><path class="cls-1" d="M31.94,11.37a28.19,28.19,0,0,0-6.19.49,8.81,8.81,0,0,0-12.09-3.3A8.78,8.78,0,0,1,18,14.94a20.66,20.66,0,0,0-10,14.44h-5v10h7c3.55,8,11.95,12,22,12,13.23,0,24-8.93,24-20.08S45.17,11.37,31.94,11.37Z"/><line class="cls-1" x1="22.94" y1="50.17" x2="22.94" y2="57.37"/><line class="cls-1" x1="40.94" y1="49.92" x2="40.94" y2="57.37"/><circle class="cls-1" cx="17.94" cy="27.37" r="2"/></svg>