<svg id="debtcounselling" data-name="Layer 1" xmlns="http://www.w3.org/2000/svg" viewBox="0 0 62.36 62.36"><defs><style>.cls-1{fill:none;stroke:#ef4459;stroke-linecap:round;stroke-linejoin:round;stroke-width:2px;}</style></defs><title>icon</title><rect class="cls-1" x="2.18" y="36.04" width="10" height="18"/><path class="cls-1" d="M12.18,51.88c26.3,8.77,17.94,9.19,48-5.84-2.66-2.66-4.77-3.71-7.51-2.92L41.84,46.7"/><path class="cls-1" d="M12.18,38h8a17.46,17.46,0,0,1,11,4c3.34,0,3.6,0,8,0,4,0,4,6,0,6h-14"/><rect class="cls-1" x="14.34" y="3.26" width="37.44" height="23.4"/><polyline class="cls-1" points="54.9 6.38 54.9 29.78 17.46 29.78"/><polyline class="cls-1" points="58.02 9.5 58.02 32.9 20.58 32.9"/><line class="cls-1" x1="19.02" y1="21.98" x2="23.7" y2="21.98"/><line class="cls-1" x1="42.42" y1="7.94" x2="47.1" y2="7.94"/><circle class="cls-1" cx="33.06" cy="14.96" r="6.24"/></svg>