<?xml version="1.0" encoding="utf-8"?>
<!-- Generator: Adobe Illustrator 19.1.0, SVG Export Plug-In . SVG Version: 6.00 Build 0)  -->
<svg version="1.1" id="Layer_1" xmlns="http://www.w3.org/2000/svg" xmlns:xlink="http://www.w3.org/1999/xlink" x="0px" y="0px"
	 viewBox="-49 141 512 512" style="enable-background:new -49 141 512 512;" xml:space="preserve">
<style type="text/css">
	.st0{fill:#EF4459;}
</style>
<path id="handshake-1" class="st0" d="M195.5,527.5c-3.2,4.3-8.1,6.6-13,6.6c-3.3,0-6.7-1-9.6-3.1c-7.2-5.3-8.7-15.4-3.5-22.6
	l18.5-25c5.3-7.2,15.4-8.7,22.6-3.4c7.2,5.2,8.8,15.4,3.5,22.5L195.5,527.5z M181.3,478.7c5.3-7.2,3.7-17.3-3.5-22.6
	c-7.2-5.3-17.3-3.7-22.6,3.5l-18.4,24.9c-5.3,7.2-3.7,17.3,3.5,22.6c7.2,5.3,17.3,3.7,22.6-3.5L181.3,478.7z M148.7,454.9
	c5.3-7.2,3.7-17.3-3.5-22.6c-7.2-5.3-17.3-3.7-22.6,3.5l-18.6,25.1c-5.3,7.2-3.6,17.1,3.6,22.4c7.2,5.3,17.2,3.9,22.5-3.3
	L148.7,454.9z M116.1,431.1c5.3-7.2,3.8-17.3-3.5-22.6c-7.2-5.3-17.3-3.7-22.6,3.5l-18.4,24.9c-5.3,7.2-3.7,17.3,3.5,22.6
	c7.2,5.3,17.3,3.8,22.6-3.5L116.1,431.1z M413,286.3c0,0-26.7,5.2-45.8,8.2c-36.8,5.9-71.1-7.1-109.2-26.8c-7.6-3.9-16.4-8-25-8
	c-7.9,0-15.7,3.6-22.2,11c-23.4,26.6-37.1,50-65,66.3c-13.8,8,2.4,33.2,31.9,22.9c15.1-5.3,29.8-15.4,46.5-28.8
	c13.1-10.6,20.9-9,32.3,2.3c21.2,21.3,92.8,91.8,92.8,91.8c22.6-13.9,41.6-22.5,63.7-30.7L413,286.3L413,286.3z M232.3,503.6
	c-2.7,7.9-10.6,17.2-16.4,25c5.1,4,10.4,5.7,15.1,5.7c12.3,0,20.4-11.5,9.3-22.6L232.3,503.6z M344,444.2
	c-18.4-18.1-81.2-80.1-99.6-98.1c-2.8-2.8-7.2-3.1-10.4-0.8c-11,8-35.7,25.5-50.6,30.7c-28.9,10.1-53.5-3.8-58.7-23.3
	c-3.3-12.2,1.6-24.2,12.5-30.5c17.3-10.1,28.4-23.6,42.2-40.6c-11.9-9.3-23.2-12.6-34.2-12.6c-29.3,0-56.9,23.4-91.6,21.1
	C30,288.6,1,283.2,1,283.2v108.7c25.3,5.5,42.1,8,67.3,20.6l7.9-10.7c6.3-8.5,16.3-13.6,26.9-13.6c14.9,0,27.8,9.9,32,23.8
	c16.3,0,28.6,10.3,32.6,23.8c14.2-0.5,28.2,8.9,32.6,23.8c20.1,0,34.6,15.8,34,34.4l20.1,20.1c6.3,6.3,16.5,6.3,22.8,0
	c6.3-6.3,6.3-16.5,0-22.9l-28.9-29c-3.8-3.8,1.9-9.5,5.7-5.7l34.9,34.9c6.3,6.3,16.5,6.3,22.8,0c6.3-6.3,6.3-16.5,0-22.9l-42.9-42.9
	c-3.8-3.8,1.9-9.5,5.7-5.7l46.4,46.4c6.3,6.3,16.5,6.3,22.9,0C349.7,460.2,349.8,450.5,344,444.2z"/>
</svg>
