<svg xmlns="http://www.w3.org/2000/svg" xmlns:xlink="http://www.w3.org/1999/xlink" version="1.0" x="0px" y="0px" width="190.8px" height="57.3px" viewBox="0 0 190.8 57.3" xml:space="preserve" class="style0"><style>.style0{enable-background:	new 0 0 190.8 57.3;}</style><style type="text/css">.st0{fill:#FFFFFF;}</style><g><polygon class="st0" points="8,3.5 4.4,3.5 4.4,30.7 22.3,30.7 22.3,27.6 8,27.6"/><rect x="25.7" y="3.5" class="st0" width="3.6" height="27.1"/><path class="st0" d="M51.5 16.3L51.5 16.3c2.5-1.1 4-3.3 4-6.2c0-2.7-1.4-4.6-3.2-5.7c-1.6-1-4.8-1-7.2-1h-9.8v27.1h13.1 c5.4 0 8.2-3.8 8.2-7.8C56.7 19.5 54.9 17 51.5 16.3z M39 6.6h7.2c3.1 0 5.8 0.5 5.8 4.3c0 2.9-1.7 4.3-5.8 4.3H39V6.6z M48 27.6 h-9v-9.4h8.2c3 0 5.9 1 5.9 4.5C53.1 25.7 51.1 27.6 48 27.6z"/><polygon class="st0" points="65,18.2 79.1,18.2 79.1,15.2 65,15.2 65,6.6 80.1,6.6 80.1,3.5 61.4,3.5 61.4,30.7 80.2,30.7 80.2,27.6 65,27.6"/><path class="st0" d="M100.9 17.6L100.9 17.6c3.3-1 4.7-3.7 4.7-7c0-4.3-3.2-7.1-8.2-7.1H84.6v27.1h3.6V19.1H97 c3.5 0 4.1 2.2 4.5 4.9c0.5 2.7 0 5.6 1 6.7h4c-1.5-1.9-1.4-4.8-1.6-7.5C104.7 20.5 104 18.2 100.9 17.6z M95.7 16h-7.5V6.6h9 c3.4 0 4.8 2 4.8 4.6C102 15.2 99.1 16 95.7 16z"/><polygon class="st0" points="119.7,30.7 119.7,6.6 128.7,6.6 128.7,3.5 107,3.5 107,6.6 116.1,6.6 116.1,30.7"/><rect x="131.9" y="3.5" class="st0" width="3.6" height="27.1"/><polygon class="st0" points="145,8.9 145,8.9 159.2,30.7 163.2,30.7 163.2,3.5 159.7,3.5 159.7,25.5 159.7,25.5 145.4,3.5 141.5,3.5 141.5,30.7 145,30.7"/><polygon class="st0" points="172.6,27.6 172.6,18.2 186.7,18.2 186.7,15.2 172.6,15.2 172.6,6.6 187.7,6.6 187.7,3.5 169,3.5 169,30.7 187.9,30.7 187.9,27.6"/><path class="st0" d="M90.5 41.8c1 0 1.9 0.4 2.3 0.7l0.1-1.4c-0.6-0.3-1.6-0.4-2.3-0.4c-4.2 0-5.8 3.3-5.8 6.8c0 3.6 1.7 7 5.7 7 c1.1 0 1.9-0.3 2.3-0.4l-0.1-1.3c-0.7 0.3-1.3 0.6-2.3 0.6c-1.5 0-4.4-1.1-4.4-5.8C86.1 42.2 89.5 41.8 90.5 41.8z"/><path class="st0" d="M99.8 40.7c-4.8 0-4.8 5.7-4.8 6.9c0 1.2 0 6.9 4.8 6.9c4.8 0 4.8-5.7 4.8-6.9 C104.6 46.4 104.6 40.7 99.8 40.7z M99.8 53.3c-3.5 0-3.5-4.7-3.5-5.8c0-1.1 0-5.8 3.5-5.8c3.5 0 3.5 4.7 3.5 5.8 C103.3 48.6 103.3 53.3 99.8 53.3z"/><polygon class="st0" points="114.4,52.8 114.3,52.8 108.6,40.8 107.1,40.8 107.1,54.3 108.2,54.3 108.2,42.4 108.3,42.4 113.9,54.3 115.5,54.3 115.5,40.8 114.4,40.8"/><path class="st0" d="M121.1 46.5c-1.2-0.9-1.9-1.4-1.9-2.7c0-1.6 1.4-2 2.2-2c1 0 1.6 0.3 2.1 0.7l0.1-1.4c-0.3-0.1-1-0.4-2.1-0.4 c-0.8 0-3.5 0.3-3.5 3.3c0 1.5 0.6 2.4 2.4 3.7c1.6 1.1 2.6 1.7 2.6 3.3c0 0.5-0.3 2.4-2.4 2.4c-0.3 0-1.5-0.1-2.4-0.9l-0.1 1.4 c0.7 0.4 1.7 0.6 2.6 0.6c2.1 0 3.6-1.5 3.6-3.7C124.3 48.8 123.5 48.2 121.1 46.5z"/><path class="st0" d="M133.6 49.3c0 1.8-0.3 4-2.8 4c-2.4 0-2.8-2-2.8-4v-8.5h-1.2v8.5c0 2.9 0.9 5.1 4 5.1c3.1 0 4-2.4 4-5.1v-8.5 h-1.2V49.3z"/><polygon class="st0" points="139.1,40.8 137.9,40.8 137.9,54.3 143.5,54.3 143.5,53.2 139.1,53.2"/><polygon class="st0" points="150,40.8 142.5,40.8 142.5,41.9 145.6,41.9 145.6,54.3 146.8,54.3 146.8,41.9 150,41.9"/><path class="st0" d="M154.2 40.8l-4.5 13.5h1.2l1.2-3.7h5.4l1.2 3.7h1.3l-4.5-13.5H154.2z M152.5 49.4l2.3-7.4h0l2.3 7.4H152.5z"/><polygon class="st0" points="169,52.8 169,52.8 163.3,40.8 161.8,40.8 161.8,54.3 162.9,54.3 162.9,42.4 162.9,42.4 168.6,54.3 170.2,54.3 170.2,40.8 169,40.8"/><polygon class="st0" points="172.1,41.9 175.2,41.9 175.2,54.3 176.4,54.3 176.4,41.9 179.6,41.9 179.6,40.8 172.1,40.8"/><path class="st0" d="M184.1 46.5c-1.2-0.9-1.9-1.4-1.9-2.7c0-1.6 1.4-2 2.2-2c1 0 1.6 0.3 2.1 0.7l0.1-1.4c-0.3-0.1-1-0.4-2.1-0.4 c-0.8 0-3.5 0.3-3.5 3.3c0 1.5 0.6 2.4 2.4 3.7c1.6 1.1 2.6 1.7 2.6 3.3c0 0.5-0.3 2.4-2.4 2.4c-0.3 0-1.5-0.1-2.4-0.9l-0.1 1.4 c0.7 0.4 1.7 0.6 2.6 0.6c2.1 0 3.6-1.5 3.6-3.7C187.2 48.8 186.5 48.2 184.1 46.5z"/></g></svg>