<?xml version="1.0" encoding="utf-8"?>
<!-- Generator: Adobe Illustrator 19.1.0, SVG Export Plug-In . SVG Version: 6.00 Build 0)  -->
<svg version="1.1" id="Layer_1" xmlns="http://www.w3.org/2000/svg" xmlns:xlink="http://www.w3.org/1999/xlink" x="0px" y="0px"
	 viewBox="0 0 295.6 166.4" style="enable-background:new 0 0 295.6 166.4;" xml:space="preserve">
<style type="text/css">
	.st0{fill:#E9445A;}
</style>
<path class="st0" d="M220.8,15.4c21.8,0,33.7,11.4,33.7,26.2c0,14.3-12.5,25.5-25.9,28.6l23,28.6c6.8,8.5,17.5,17.8,26.8,23.7h-15
	c-8.6,0-14-2.1-18.9-8.1c0,0-13.6-18-18.5-25c-4.9-7-16.3-22.5-16.3-22.5c13-2,28.1-8,28.1-23.3c0-11.7-10.1-18.5-21-18.1
	c-3.7,0.2-7.3,0.7-11.1,1.3v72.9c0,7.5-1,19.4,7.3,22.3v0.5h-31.1V122c8.3-2.9,7.2-15,7.2-22.3V38.3c0-7.5,1.1-19.4-7.2-22.4v-0.5
	H220.8z"/>
<path class="st0" d="M140.8,10.2c-6.7,0-13,0.9-18.7,2.6c-4.8,1.4-9.2,3.3-13.3,5.8C94.5,27.2,85.3,42,83.9,60.8l27.4,34.6v-2.9
	c-5.8-8-9.1-18.1-9.1-28.8c0-10.9,3.3-20.2,9.1-27.1c3.2-3.9,7.2-7,11.8-9.2c5-2.4,10.8-3.7,17.1-3.7c10.7,0,21.1,3.6,30.1,9.3V14.2
	C160.8,11.9,150.7,10.2,140.8,10.2"/>
<path class="st0" d="M174,101.3c-10.2,5.9-22.5,10.9-34.7,10.3c-10.5-0.5-19.6-3.5-30.5-13.1c-5.2-4.9-10.8-11.3-15.6-17.3
	c-5.5-6.8-28-35.8-40.1-51.4c-4.7-6.1-8.6-11.7-8.9-12.2c-0.7-1.4-0.9-2.1-0.9-2.1H16.9v0.5c8.5,4.9,8.5,11.4,8.5,20.5v64.9
	c0,9.1,0,15.6-8.6,20.7v0.5h31V122c-8.6-5-8.5-11.5-8.5-20.7v-63l43.6,55.4c0,0,2.8,3.5,8.1,9.6c7.9,9.2,16.3,15.5,27.8,18.8
	c8,2.3,14.5,2.9,22.8,2.9c8.5,0,16.9-1.3,24.6-4.9l8.3-18.9H174z"/>
<path class="st0" d="M7.6,155.2V137h2.6l5.8,9.2c1.3,2.1,2.4,4,3.2,5.9l0.1,0c-0.2-2.4-0.3-4.6-0.3-7.4V137h2.2v18.1h-2.4l-5.8-9.2
	c-1.3-2-2.5-4.1-3.4-6.1l-0.1,0c0.1,2.3,0.2,4.5,0.2,7.5v7.8H7.6z"/>
<path class="st0" d="M32,148.5c-2.6,0-5.5,0.4-5.5,2.9c0,1.6,1,2.3,2.2,2.3c1.7,0,2.8-1.1,3.2-2.2c0.1-0.2,0.1-0.5,0.1-0.8V148.5z
	 M34.4,152c0,1.1,0.1,2.2,0.2,3.1h-2.1l-0.2-1.6h-0.1c-0.7,1-2.1,1.9-4,1.9c-2.6,0-4-1.8-4-3.7c0-3.2,2.8-4.9,7.8-4.8v-0.3
	c0-1.1-0.3-3-3-3c-1.2,0-2.5,0.4-3.4,1l-0.5-1.6c1.1-0.7,2.7-1.1,4.3-1.1c4,0,5,2.7,5,5.3V152z"/>
<path class="st0" d="M40.9,139v3.1h3.4v1.8h-3.4v7c0,1.6,0.5,2.5,1.8,2.5c0.6,0,1-0.1,1.4-0.2l0.1,1.8c-0.5,0.2-1.2,0.3-2.1,0.3
	c-1.1,0-2-0.4-2.6-1c-0.6-0.7-0.9-1.9-0.9-3.4V144h-2v-1.8h2v-2.4L40.9,139z"/>
<path class="st0" d="M46.9,142.2h2.4v13h-2.4V142.2z M48.1,139.8c-0.9,0-1.5-0.7-1.5-1.5s0.6-1.5,1.5-1.5c0.9,0,1.5,0.7,1.5,1.5
	S49,139.8,48.1,139.8L48.1,139.8z"/>
<path class="st0" d="M58.6,153.7c2.3,0,4-2.1,4-5.1c0-2.2-1.1-5-3.9-5c-2.8,0-4,2.6-4,5.1C54.7,151.5,56.3,153.7,58.6,153.7
	L58.6,153.7z M58.5,155.5c-3.5,0-6.2-2.6-6.2-6.7c0-4.4,2.9-6.9,6.5-6.9c3.7,0,6.3,2.7,6.3,6.7C65,153.4,61.7,155.5,58.5,155.5
	L58.5,155.5z"/>
<path class="st0" d="M68,145.7c0-1.4,0-2.5-0.1-3.5H70l0.1,2.1h0.1c0.6-1.2,2.2-2.4,4.3-2.4c1.8,0,4.6,1.1,4.6,5.5v7.8h-2.4v-7.5
	c0-2.1-0.8-3.9-3-3.9c-1.5,0-2.7,1.1-3.2,2.4c-0.1,0.3-0.2,0.7-0.2,1.1v7.9H68V145.7z"/>
<path class="st0" d="M89.8,148.5c-2.6,0-5.5,0.4-5.5,2.9c0,1.6,1,2.3,2.2,2.3c1.7,0,2.8-1.1,3.2-2.2c0.1-0.2,0.1-0.5,0.1-0.8V148.5z
	 M92.1,152c0,1.1,0.1,2.2,0.2,3.1h-2.1l-0.2-1.6h-0.1c-0.7,1-2.1,1.9-4,1.9c-2.6,0-4-1.8-4-3.7c0-3.2,2.8-4.9,7.8-4.8v-0.3
	c0-1.1-0.3-3-3-3c-1.2,0-2.5,0.4-3.4,1l-0.5-1.6c1.1-0.7,2.7-1.1,4.3-1.1c4,0,5,2.7,5,5.3V152z"/>
<rect x="95.9" y="136.1" class="st0" width="2.4" height="19.1"/>
<path class="st0" d="M120.6,154.6c-0.8,0.4-2.6,0.9-4.8,0.9c-5.1,0-8.9-3.2-8.9-9.2c0-5.7,3.8-9.5,9.5-9.5c2.2,0,3.7,0.5,4.3,0.8
	l-0.6,1.9c-0.9-0.4-2.1-0.8-3.6-0.8c-4.2,0-7.1,2.7-7.1,7.5c0,4.5,2.6,7.3,6.9,7.3c1.5,0,2.9-0.3,3.9-0.8L120.6,154.6z"/>
<path class="st0" d="M123.5,146.2c0-1.5,0-2.8-0.1-4.1h2.1l0.1,2.6h0.1c0.6-1.8,2-2.9,3.6-2.9c0.2,0,0.4,0,0.7,0.1v2.2
	c-0.3,0-0.5-0.1-0.8-0.1c-1.7,0-2.9,1.3-3.2,3c0,0.4-0.1,0.7-0.1,1.1v6.9h-2.4L123.5,146.2z"/>
<path class="st0" d="M140.4,147.4c0-1.5-0.6-3.8-3.3-3.8c-2.4,0-3.4,2.2-3.6,3.8H140.4z M133.5,149.1c0.1,3.2,2.1,4.5,4.4,4.5
	c1.7,0,2.7-0.3,3.6-0.7l0.4,1.7c-0.8,0.4-2.3,0.8-4.4,0.8c-4,0-6.4-2.7-6.4-6.6c0-4,2.3-7,6.1-7c4.2,0,5.4,3.7,5.4,6.1
	c0,0.5,0,0.9-0.1,1.1L133.5,149.1z"/>
<path class="st0" d="M154.5,147.4c0-0.3,0-0.7-0.1-1c-0.3-1.5-1.6-2.7-3.4-2.7c-2.4,0-3.9,2.2-3.9,5c0,2.7,1.3,4.8,3.9,4.8
	c1.6,0,3-1.1,3.5-2.8c0.1-0.3,0.1-0.6,0.1-1V147.4z M156.8,136.1v15.7c0,1.2,0,2.5,0.1,3.4h-2.1l-0.1-2.3h-0.1
	c-0.7,1.5-2.3,2.6-4.4,2.6c-3.1,0-5.6-2.7-5.6-6.6c0-4.4,2.7-7,5.8-7c2,0,3.4,0.9,3.9,2h0v-7.7H156.8z"/>
<path class="st0" d="M160.8,142.2h2.4v13h-2.4V142.2z M161.9,139.8c-0.9,0-1.5-0.7-1.5-1.5s0.6-1.5,1.5-1.5c0.9,0,1.5,0.7,1.5,1.5
	S162.9,139.8,161.9,139.8L161.9,139.8z"/>
<path class="st0" d="M169.9,139v3.1h3.4v1.8h-3.4v7c0,1.6,0.5,2.5,1.8,2.5c0.6,0,1-0.1,1.4-0.2l0.1,1.8c-0.5,0.2-1.2,0.3-2.1,0.3
	c-1.1,0-2-0.4-2.6-1c-0.6-0.7-0.9-1.9-0.9-3.4V144h-2v-1.8h2v-2.4L169.9,139z"/>
<path class="st0" d="M184.1,145.5h2.4c2.5,0,4.1-1.4,4.1-3.4c0-2.3-1.7-3.4-4.2-3.4c-1.1,0-1.9,0.1-2.3,0.2V145.5z M181.7,137.3
	c1.2-0.2,2.9-0.4,4.5-0.4c2.5,0,4.1,0.5,5.3,1.5c0.9,0.8,1.4,2,1.4,3.4c0,2.4-1.5,4-3.4,4.6v0.1c1.4,0.5,2.2,1.8,2.7,3.7
	c0.6,2.5,1,4.3,1.4,5h-2.4c-0.3-0.5-0.7-2.1-1.2-4.3c-0.5-2.5-1.5-3.4-3.7-3.5h-2.2v7.9h-2.3V137.3z"/>
<path class="st0" d="M204.5,147.4c0-1.5-0.6-3.8-3.2-3.8c-2.4,0-3.4,2.2-3.6,3.8H204.5z M197.6,149.1c0.1,3.2,2.1,4.5,4.4,4.5
	c1.7,0,2.7-0.3,3.6-0.7l0.4,1.7c-0.8,0.4-2.3,0.8-4.4,0.8c-4,0-6.4-2.7-6.4-6.6c0-4,2.3-7,6.1-7c4.2,0,5.4,3.7,5.4,6.1
	c0,0.5,0,0.9-0.1,1.1L197.6,149.1z"/>
<path class="st0" d="M218.5,147.3c0-0.4,0-0.7-0.1-1.1c-0.4-1.4-1.6-2.5-3.3-2.5c-2.3,0-3.9,1.9-3.9,5c0,2.5,1.3,4.7,3.9,4.7
	c1.5,0,2.8-0.9,3.3-2.4c0.1-0.4,0.2-0.8,0.2-1.3V147.3z M220.8,153.3c0,3-0.6,4.8-1.9,6c-1.3,1.2-3.1,1.6-4.8,1.6
	c-1.6,0-3.3-0.4-4.3-1.1l0.6-1.8c0.9,0.6,2.2,1,3.8,1c2.4,0,4.2-1.3,4.2-4.6v-1.4h-0.1c-0.7,1.2-2.1,2.2-4.1,2.2
	c-3.2,0-5.5-2.7-5.5-6.4c0-4.4,2.9-6.9,5.9-6.9c2.3,0,3.5,1.2,4.1,2.2h0.1l0.1-1.9h2.1c-0.1,0.9-0.1,2-0.1,3.5V153.3z"/>
<path class="st0" d="M235.6,151.6c0,1.3,0,2.5,0.1,3.5h-2.1l-0.1-2.1h-0.1c-0.6,1-2,2.4-4.3,2.4c-2,0-4.5-1.2-4.5-5.7v-7.6h2.4v7.2
	c0,2.5,0.8,4.2,2.9,4.2c1.6,0,2.7-1.1,3.1-2.2c0.1-0.3,0.2-0.8,0.2-1.2v-8h2.4V151.6z"/>
<rect x="239.6" y="136.1" class="st0" width="2.4" height="19.1"/>
<path class="st0" d="M252.7,148.5c-2.6,0-5.5,0.4-5.5,2.9c0,1.6,1,2.3,2.2,2.3c1.7,0,2.8-1.1,3.2-2.2c0.1-0.2,0.1-0.5,0.1-0.8V148.5
	z M255,152c0,1.1,0,2.2,0.2,3.1h-2.1l-0.2-1.6h-0.1c-0.7,1-2.1,1.9-4,1.9c-2.6,0-4-1.8-4-3.7c0-3.2,2.8-4.9,7.8-4.8v-0.3
	c0-1.1-0.3-3-3-3c-1.2,0-2.5,0.4-3.4,1l-0.5-1.6c1.1-0.7,2.7-1.1,4.3-1.1c4,0,5,2.7,5,5.3V152z"/>
<path class="st0" d="M261.6,139v3.1h3.4v1.8h-3.4v7c0,1.6,0.5,2.5,1.8,2.5c0.7,0,1-0.1,1.4-0.2l0.1,1.8c-0.5,0.2-1.2,0.3-2.1,0.3
	c-1.1,0-2-0.4-2.6-1c-0.6-0.7-0.9-1.9-0.9-3.4V144h-2v-1.8h2v-2.4L261.6,139z"/>
<path class="st0" d="M272.8,153.7c2.3,0,4-2.1,4-5.1c0-2.2-1.1-5-3.9-5c-2.8,0-4,2.6-4,5.1C268.9,151.5,270.5,153.7,272.8,153.7
	L272.8,153.7z M272.7,155.5c-3.5,0-6.2-2.6-6.2-6.7c0-4.4,2.9-6.9,6.5-6.9c3.7,0,6.3,2.7,6.3,6.7
	C279.2,153.4,275.9,155.5,272.7,155.5L272.7,155.5z"/>
<path class="st0" d="M282.2,146.2c0-1.5,0-2.8-0.1-4.1h2.1l0.1,2.6h0.1c0.6-1.8,2-2.9,3.6-2.9c0.2,0,0.4,0,0.6,0.1v2.2
	c-0.3,0-0.5-0.1-0.8-0.1c-1.7,0-2.9,1.3-3.2,3c0,0.4-0.1,0.7-0.1,1.1v6.9h-2.4L282.2,146.2z"/>
</svg>
