<?xml version="1.0" encoding="utf-8"?>
<!-- Generator: Adobe Illustrator 19.1.0, SVG Export Plug-In . SVG Version: 6.00 Build 0)  -->
<svg version="1.1"   xmlns="http://www.w3.org/2000/svg" xmlns:xlink="http://www.w3.org/1999/xlink" x="0px" y="0px"
	 viewBox="-262 385.9 70 70" style="enable-background:new -262 385.9 70 70;" xml:space="preserve">
<style type="text/css">
	.st0{fill:#E9445A;}
</style>
<path class="st0" d="M-209.3,402.6c5.3,0,8.2,2.8,8.2,6.4c0,3.5-3,6.2-6.3,6.9l5.6,6.9c1.6,2.1,4.2,4.3,6.5,5.7h-3.6
	c-2.1,0-3.4-0.5-4.6-2c0,0-3.3-4.4-4.5-6.1c-1.2-1.7-4-5.5-4-5.5c3.2-0.5,6.8-1.9,6.8-5.7c0-2.8-2.5-4.5-5.1-4.4
	c-0.9,0-1.8,0.2-2.7,0.3v17.7c0,1.8-0.2,4.7,1.8,5.4v0.1h-7.5v-0.1c2-0.7,1.7-3.6,1.7-5.4v-14.9c0-1.8,0.3-4.7-1.7-5.4v-0.1H-209.3z
	"/>
<path class="st0" d="M-228.7,401.4c-1.6,0-3.2,0.2-4.5,0.6c-1.2,0.3-2.2,0.8-3.2,1.4c-3.5,2.1-5.7,5.7-6,10.2l6.6,8.4v-0.7
	c-1.4-1.9-2.2-4.4-2.2-7c0-2.6,0.8-4.9,2.2-6.6c0.8-0.9,1.7-1.7,2.9-2.2c1.2-0.6,2.6-0.9,4.1-0.9c2.6,0,5.1,0.9,7.3,2.3v-4.6
	C-223.8,401.8-226.3,401.4-228.7,401.4"/>
<path class="st0" d="M-220.6,423.5c-2.5,1.4-5.5,2.6-8.4,2.5c-2.5-0.1-4.8-0.8-7.4-3.2c-1.3-1.2-2.6-2.7-3.8-4.2
	c-1.3-1.6-6.8-8.7-9.7-12.5c-1.1-1.5-2.1-2.8-2.2-3c-0.2-0.3-0.2-0.5-0.2-0.5h-6.4v0.1c2.1,1.2,2.1,2.8,2.1,5v15.7
	c0,2.2,0,3.8-2.1,5v0.1h7.5v-0.1c-2.1-1.2-2.1-2.8-2.1-5v-15.3l10.6,13.4c0,0,0.7,0.8,2,2.3c1.9,2.2,4,3.8,6.7,4.6
	c1.9,0.6,3.5,0.7,5.5,0.7c2.1,0,4.1-0.3,6-1.2l2-4.6L-220.6,423.5L-220.6,423.5z"/>
<path class="st0" d="M-261,436.5v-4.4h0.6l1.4,2.2c0.3,0.5,0.6,1,0.8,1.4h0c0-0.6-0.1-1.1-0.1-1.8v-1.9h0.5v4.4h-0.6l-1.4-2.2
	c-0.3-0.5-0.6-1-0.8-1.5h0c0,0.6,0,1.1,0,1.8v1.9L-261,436.5L-261,436.5z"/>
<path class="st0" d="M-255.1,434.9c-0.6,0-1.3,0.1-1.3,0.7c0,0.4,0.2,0.6,0.5,0.6c0.4,0,0.7-0.3,0.8-0.5c0,0,0-0.1,0-0.2V434.9z
	 M-254.5,435.8c0,0.3,0,0.5,0,0.8h-0.5l0-0.4h0c-0.2,0.2-0.5,0.5-1,0.5c-0.6,0-1-0.4-1-0.9c0-0.8,0.7-1.2,1.9-1.2v-0.1
	c0-0.3-0.1-0.7-0.7-0.7c-0.3,0-0.6,0.1-0.8,0.2l-0.1-0.4c0.3-0.2,0.7-0.3,1-0.3c1,0,1.2,0.7,1.2,1.3
	C-254.5,434.6-254.5,435.8-254.5,435.8z"/>
<path class="st0" d="M-252.9,432.6v0.8h0.8v0.4h-0.8v1.7c0,0.4,0.1,0.6,0.4,0.6c0.1,0,0.2,0,0.3,0l0,0.4c-0.1,0-0.3,0.1-0.5,0.1
	c-0.3,0-0.5-0.1-0.6-0.2c-0.1-0.2-0.2-0.5-0.2-0.8v-1.7h-0.5v-0.4h0.5v-0.6L-252.9,432.6z"/>
<path class="st0" d="M-251.5,433.4h0.6v3.2h-0.6V433.4z M-251.2,432.8c-0.2,0-0.4-0.2-0.4-0.4s0.1-0.4,0.4-0.4
	c0.2,0,0.4,0.2,0.4,0.4S-251,432.8-251.2,432.8L-251.2,432.8z"/>
<path class="st0" d="M-248.6,436.2c0.6,0,1-0.5,1-1.2c0-0.5-0.3-1.2-0.9-1.2s-1,0.6-1,1.2C-249.6,435.6-249.2,436.2-248.6,436.2
	L-248.6,436.2z M-248.7,436.6c-0.8,0-1.5-0.6-1.5-1.6c0-1.1,0.7-1.7,1.6-1.7c0.9,0,1.5,0.7,1.5,1.6
	C-247.1,436.1-247.9,436.6-248.7,436.6L-248.7,436.6z"/>
<path class="st0" d="M-246.3,434.2c0-0.3,0-0.6,0-0.8h0.5l0,0.5h0c0.1-0.3,0.5-0.6,1-0.6c0.4,0,1.1,0.3,1.1,1.3v1.9h-0.6v-1.8
	c0-0.5-0.2-0.9-0.7-0.9c-0.4,0-0.7,0.3-0.8,0.6c0,0.1,0,0.2,0,0.3v1.9h-0.6V434.2z"/>
<path class="st0" d="M-241.1,434.9c-0.6,0-1.3,0.1-1.3,0.7c0,0.4,0.2,0.6,0.5,0.6c0.4,0,0.7-0.3,0.8-0.5c0,0,0-0.1,0-0.2
	C-241.1,435.5-241.1,434.9-241.1,434.9z M-240.5,435.8c0,0.3,0,0.5,0,0.8h-0.5l0-0.4h0c-0.2,0.2-0.5,0.5-1,0.5c-0.6,0-1-0.4-1-0.9
	c0-0.8,0.7-1.2,1.9-1.2v-0.1c0-0.3-0.1-0.7-0.7-0.7c-0.3,0-0.6,0.1-0.8,0.2l-0.1-0.4c0.3-0.2,0.7-0.3,1-0.3c1,0,1.2,0.7,1.2,1.3
	C-240.5,434.6-240.5,435.8-240.5,435.8z"/>
<rect x="-239.6" y="431.9" class="st0" width="0.6" height="4.6"/>
<path class="st0" d="M-233.6,436.4c-0.2,0.1-0.6,0.2-1.2,0.2c-1.2,0-2.2-0.8-2.2-2.2c0-1.4,0.9-2.3,2.3-2.3c0.5,0,0.9,0.1,1,0.2
	l-0.1,0.5c-0.2-0.1-0.5-0.2-0.9-0.2c-1,0-1.7,0.7-1.7,1.8c0,1.1,0.6,1.8,1.7,1.8c0.4,0,0.7-0.1,0.9-0.2L-233.6,436.4z"/>
<path class="st0" d="M-232.9,434.4c0-0.4,0-0.7,0-1h0.5l0,0.6h0c0.1-0.4,0.5-0.7,0.9-0.7c0,0,0.1,0,0.2,0v0.5c-0.1,0-0.1,0-0.2,0
	c-0.4,0-0.7,0.3-0.8,0.7c0,0.1,0,0.2,0,0.3v1.7h-0.6V434.4z"/>
<path class="st0" d="M-228.8,434.7c0-0.4-0.1-0.9-0.8-0.9c-0.6,0-0.8,0.5-0.9,0.9H-228.8z M-230.5,435.1c0,0.8,0.5,1.1,1.1,1.1
	c0.4,0,0.7-0.1,0.9-0.2l0.1,0.4c-0.2,0.1-0.6,0.2-1.1,0.2c-1,0-1.6-0.7-1.6-1.6c0-1,0.6-1.7,1.5-1.7c1,0,1.3,0.9,1.3,1.5
	c0,0.1,0,0.2,0,0.3L-230.5,435.1z"/>
<path class="st0" d="M-225.4,434.7c0-0.1,0-0.2,0-0.2c-0.1-0.4-0.4-0.7-0.8-0.7c-0.6,0-0.9,0.5-0.9,1.2c0,0.7,0.3,1.2,0.9,1.2
	c0.4,0,0.7-0.3,0.8-0.7c0-0.1,0-0.1,0-0.2L-225.4,434.7L-225.4,434.7z M-224.8,431.9v3.8c0,0.3,0,0.6,0,0.8h-0.5l0-0.6h0
	c-0.2,0.4-0.6,0.6-1.1,0.6c-0.8,0-1.4-0.7-1.4-1.6c0-1.1,0.7-1.7,1.4-1.7c0.5,0,0.8,0.2,0.9,0.5l0,0v-1.9L-224.8,431.9L-224.8,431.9
	z"/>
<path class="st0" d="M-223.8,433.4h0.6v3.2h-0.6V433.4z M-223.6,432.8c-0.2,0-0.4-0.2-0.4-0.4s0.1-0.4,0.4-0.4s0.4,0.2,0.4,0.4
	S-223.3,432.8-223.6,432.8L-223.6,432.8z"/>
<path class="st0" d="M-221.6,432.6v0.8h0.8v0.4h-0.8v1.7c0,0.4,0.1,0.6,0.4,0.6c0.1,0,0.2,0,0.3,0l0,0.4c-0.1,0-0.3,0.1-0.5,0.1
	c-0.3,0-0.5-0.1-0.6-0.2c-0.1-0.2-0.2-0.5-0.2-0.8v-1.7h-0.5v-0.4h0.5v-0.6L-221.6,432.6z"/>
<path class="st0" d="M-218.2,434.2h0.6c0.6,0,1-0.3,1-0.8c0-0.6-0.4-0.8-1-0.8c-0.3,0-0.5,0-0.6,0V434.2z M-218.8,432.2
	c0.3,0,0.7-0.1,1.1-0.1c0.6,0,1,0.1,1.3,0.4c0.2,0.2,0.3,0.5,0.3,0.8c0,0.6-0.4,1-0.8,1.1v0c0.3,0.1,0.5,0.4,0.7,0.9
	c0.1,0.6,0.2,1,0.3,1.2h-0.6c-0.1-0.1-0.2-0.5-0.3-1c-0.1-0.6-0.4-0.8-0.9-0.8h-0.5v1.9h-0.6L-218.8,432.2L-218.8,432.2z"/>
<path class="st0" d="M-213.2,434.7c0-0.4-0.1-0.9-0.8-0.9c-0.6,0-0.8,0.5-0.9,0.9H-213.2z M-214.9,435.1c0,0.8,0.5,1.1,1.1,1.1
	c0.4,0,0.7-0.1,0.9-0.2l0.1,0.4c-0.2,0.1-0.6,0.2-1.1,0.2c-1,0-1.6-0.7-1.6-1.6c0-1,0.6-1.7,1.5-1.7c1,0,1.3,0.9,1.3,1.5
	c0,0.1,0,0.2,0,0.3L-214.9,435.1z"/>
<path class="st0" d="M-209.8,434.6c0-0.1,0-0.2,0-0.3c-0.1-0.3-0.4-0.6-0.8-0.6c-0.6,0-0.9,0.5-0.9,1.2c0,0.6,0.3,1.1,0.9,1.1
	c0.4,0,0.7-0.2,0.8-0.6c0-0.1,0-0.2,0-0.3L-209.8,434.6L-209.8,434.6z M-209.3,436.1c0,0.7-0.1,1.2-0.5,1.5
	c-0.3,0.3-0.8,0.4-1.2,0.4c-0.4,0-0.8-0.1-1-0.3l0.1-0.4c0.2,0.1,0.5,0.2,0.9,0.2c0.6,0,1-0.3,1-1.1V436h0c-0.2,0.3-0.5,0.5-1,0.5
	c-0.8,0-1.3-0.7-1.3-1.6c0-1.1,0.7-1.7,1.4-1.7c0.6,0,0.8,0.3,1,0.5h0l0-0.5h0.5c0,0.2,0,0.5,0,0.8L-209.3,436.1L-209.3,436.1z"/>
<path class="st0" d="M-205.7,435.7c0,0.3,0,0.6,0,0.8h-0.5l0-0.5h0c-0.1,0.2-0.5,0.6-1,0.6c-0.5,0-1.1-0.3-1.1-1.4v-1.8h0.6v1.7
	c0,0.6,0.2,1,0.7,1c0.4,0,0.7-0.3,0.8-0.5c0-0.1,0-0.2,0-0.3v-1.9h0.6V435.7L-205.7,435.7z"/>
<rect x="-204.7" y="431.9" class="st0" width="0.6" height="4.6"/>
<path class="st0" d="M-201.5,434.9c-0.6,0-1.3,0.1-1.3,0.7c0,0.4,0.2,0.6,0.5,0.6c0.4,0,0.7-0.3,0.8-0.5c0,0,0-0.1,0-0.2V434.9z
	 M-201,435.8c0,0.3,0,0.5,0,0.8h-0.5l0-0.4h0c-0.2,0.2-0.5,0.5-1,0.5c-0.6,0-1-0.4-1-0.9c0-0.8,0.7-1.2,1.9-1.2v-0.1
	c0-0.3-0.1-0.7-0.7-0.7c-0.3,0-0.6,0.1-0.8,0.2l-0.1-0.4c0.3-0.2,0.7-0.3,1-0.3c1,0,1.2,0.7,1.2,1.3V435.8z"/>
<path class="st0" d="M-199.4,432.6v0.8h0.8v0.4h-0.8v1.7c0,0.4,0.1,0.6,0.4,0.6c0.2,0,0.2,0,0.3,0l0,0.4c-0.1,0-0.3,0.1-0.5,0.1
	c-0.3,0-0.5-0.1-0.6-0.2c-0.1-0.2-0.2-0.5-0.2-0.8v-1.7h-0.5v-0.4h0.5v-0.6L-199.4,432.6z"/>
<path class="st0" d="M-196.7,436.2c0.6,0,1-0.5,1-1.2c0-0.5-0.3-1.2-0.9-1.2c-0.7,0-1,0.6-1,1.2
	C-197.6,435.6-197.2,436.2-196.7,436.2L-196.7,436.2z M-196.7,436.6c-0.8,0-1.5-0.6-1.5-1.6c0-1.1,0.7-1.7,1.6-1.7
	c0.9,0,1.5,0.7,1.5,1.6C-195.1,436.1-195.9,436.6-196.7,436.6L-196.7,436.6z"/>
<path class="st0" d="M-194.4,434.4c0-0.4,0-0.7,0-1h0.5l0,0.6h0c0.1-0.4,0.5-0.7,0.9-0.7c0,0,0.1,0,0.1,0v0.5c-0.1,0-0.1,0-0.2,0
	c-0.4,0-0.7,0.3-0.8,0.7c0,0.1,0,0.2,0,0.3v1.7h-0.6L-194.4,434.4z"/>
</svg>
