<?xml version="1.0" encoding="utf-8"?>
<!-- Generator: Adobe Illustrator 19.2.0, SVG Export Plug-In . SVG Version: 6.00 Build 0)  -->
<svg version="1.1" id="Layer_1" xmlns="http://www.w3.org/2000/svg" xmlns:xlink="http://www.w3.org/1999/xlink" x="0px" y="0px"
	 viewBox="0 0 233.2 230" style="enable-background:new 0 0 233.2 230;" xml:space="preserve">
<style type="text/css">
	.st0{fill:#D4D4D4;}
</style>
<path class="st0" d="M9.2,204.9c0,10.7,8.3,19.4,18.5,19.4h60c10.2,0,18.5-8.7,18.5-19.4v-77.6c0-10.7-8.3-19.4-18.5-19.4H58
	c-5.1,0-9.2-4.4-9.2-9.7c0-1.7,0.4-3,0.4-3C56,71.8,73,52.9,94.8,44.6l0.1-0.1c6.6-3,11.2-9.8,11.2-17.9c0-10.7-8.3-19.4-18.5-19.4
	c-2.5,0-4.9,0.5-7,1.5L79.8,9C38.5,26,9.2,68.2,9.2,117.6C9.2,117.6,9.2,204.9,9.2,204.9z M129.3,204.9c0,10.7,8.3,19.4,18.5,19.4
	h60c10.2,0,18.5-8.7,18.5-19.4v-77.6c0-10.7-8.3-19.4-18.5-19.4h-29.7c-5.1,0-9.2-4.4-9.2-9.7c0-1.8,0.4-3,0.4-3
	c6.7-23.5,23.8-42.3,45.6-50.6l0.1-0.1c6.6-3,11.2-9.8,11.2-17.9c0-10.7-8.3-19.4-18.5-19.4c-2.5,0-4.9,0.5-7,1.5L199.9,9
	c-41.3,16.9-70.7,59.1-70.7,108.6C129.3,117.6,129.3,204.9,129.3,204.9z"/>
</svg>
