<?xml version="1.0" encoding="utf-8"?>
<!-- Generator: Adobe Illustrator 19.2.0, SVG Export Plug-In . SVG Version: 6.00 Build 0)  -->
<svg version="1.1"   xmlns="http://www.w3.org/2000/svg" xmlns:xlink="http://www.w3.org/1999/xlink" x="0px" y="0px"
	 viewBox="0 0 442 436" style="enable-background:new 0 0 442 436;" xml:space="preserve">
<style type="text/css">
	.st0{fill:#D4D4D4;}
</style>
<path class="st0" d="M9.9,392.3c0,21,16.2,38,36.2,38h117.6c20,0,36.2-17,36.2-38v-152c0-21-16.2-38-36.2-38h-58.1
	c-10,0-18.1-8.6-18.1-19c0-3.4,0.8-5.8,0.8-5.8c13.2-46,46.6-82.9,89.4-99.2l0.2-0.2c12.9-5.8,22-19.3,22-35c0-21-16.2-38-36.2-38
	c-4.9,0-9.5,1-13.8,2.9l-1.6,0.7C67.3,41.8,9.9,124.5,9.9,221.3C9.9,221.3,9.9,392.3,9.9,392.3z M245.1,392.3c0,21,16.2,38,36.2,38
	h117.6c20,0,36.2-17,36.2-38v-152c0-21-16.2-38-36.2-38h-58.1c-10,0-18.1-8.6-18.1-19c0-3.5,0.8-5.8,0.8-5.8
	c13.2-46,46.6-82.9,89.4-99.2l0.2-0.2c12.9-5.8,22-19.3,22-35c0-21-16.2-38-36.2-38c-4.9,0-9.5,1-13.8,2.9l-1.6,0.7
	c-81,33.2-138.4,115.8-138.4,212.6C245.1,221.3,245.1,392.3,245.1,392.3z"/>
</svg>
